SplineFontDB: 3.0
FontName: sharpiestylie
FullName: sharpie stylie
FamilyName: sharpie stylie
Weight: Normal
Copyright: Copyright 1997-2016 - Drawn by Mark Sandman, Assembled by Terrence Curran, Retouched by Chank Diesel - grilledcheese.com, chank.com
Version: 20161022
ItalicAngle: 0
UnderlinePosition: -113
UnderlineWidth: 20
Ascent: 800
Descent: 200
InvalidEm: 0
sfntRevision: 0x00010000
LayerCount: 2
Layer: 0 0 "Back" 1
Layer: 1 0 "Fore" 0
XUID: [1021 270 -1463357204 4387902]
UniqueID: 4015629
FSType: 4
OS2Version: 3
OS2_WeightWidthSlopeOnly: 0
OS2_UseTypoMetrics: 1
CreationTime: 1424514571
ModificationTime: 1477123008
PfmFamily: 81
TTFWeight: 400
TTFWidth: 5
LineGap: 0
VLineGap: 0
Panose: 0 0 0 0 0 0 0 0 0 0
OS2TypoAscent: 800
OS2TypoAOffset: 0
OS2TypoDescent: -200
OS2TypoDOffset: 0
OS2TypoLinegap: 0
OS2WinAscent: 1000
OS2WinAOffset: 0
OS2WinDescent: 0
OS2WinDOffset: 0
HheadAscent: 800
HheadAOffset: 0
HheadDescent: -200
HheadDOffset: 0
OS2SubXSize: 650
OS2SubYSize: 600
OS2SubXOff: 0
OS2SubYOff: 75
OS2SupXSize: 650
OS2SupYSize: 600
OS2SupXOff: 0
OS2SupYOff: 350
OS2StrikeYSize: 20
OS2StrikeYPos: 300
OS2CapHeight: 0
OS2XHeight: 0
OS2Vendor: 'pyrs'
OS2CodePages: 00000001.00000000
OS2UnicodeRanges: 00000001.00000000.00000000.00000000
Lookup: 258 0 0 "'kern' Horizontal Kerning in Latin lookup 0" { "'kern' Horizontal Kerning in Latin lookup 0 subtable"  } ['kern' ('latn' <'dflt' > ) ]
MarkAttachClasses: 1
DEI: 91125

StartChar: zero
Encoding: 48 48 1
Width: 528
Flags: MW
HStem: -106 143<202 207.5> 462 187<252 273.5 252 294>
VStem: 33 97<157 164.5 157 192> 435 93<265.5 327 265.5 347>
LayerCount: 2
Back
Fore
SplineSet
528 320 m 0
 528 211 457 65 350 -22 c 0
 339 -31 219 -106 196 -106 c 0
 157 -106 69 -44 58 -7 c 0
 34 69 33 83 33 131 c 0
 33 253 69 350 126 474 c 0
 128 480 128 486 121 491 c 1
 126 497 126 517 132 525 c 0
 144 544 179 569 198 583 c 0
 199 584 250 649 254 649 c 0
 293 649 291 596 296 582 c 1
 329 562 384 541 426 520 c 0
 440 512 467 496 473 485 c 0
 491 452 528 334 528 320 c 0
435 307 m 0
 435 387 332 462 256 462 c 0
 217 462 143 281 138 247 c 0
 134 218 130 168 130 161 c 0
 130 153 135 114 145 92 c 0
 149 84 173 62 175 51 c 1
 183 49 198 37 206 37 c 0
 327 37 435 208 435 307 c 0
EndSplineSet
Validated: 1
EndChar

StartChar: one
Encoding: 49 49 2
Width: 218
Flags: W
HStem: 651 20G<65.5 92>
VStem: 47 155<528.275 586.01> 58 90<314.516 517.853> 68 80<94.3733 517.853>
LayerCount: 2
Back
Fore
SplineSet
211 -5 m 4x90
 211 -17 199 -25 195 -25 c 4
 72 -25 68 230 68 267 c 4
 68 269 68 270 68 271 c 4x90
 68 285 69 299 69 314 c 4
 69 325 69 336 66 348 c 4
 59 382 58 408 58 432 c 4
 58 440 58 446 58 454 c 4xa0
 58 481 57 509 47 549 c 5
 49 589 49 610 49 621 c 4
 49 632 49 633 47 635 c 5
 53 647 62 671 69 671 c 4
 115 671 202 576 202 539 c 4xc0
 202 532 199 534 199 528 c 5
 190 528 169 513 160 513 c 4
 153 513 152 516 150 519 c 5
 148 473 148 445 148 427 c 4
 148 409 148 401 148 398 c 6xa0
 148 280 l 6
 148 187 163 80 177 54 c 4
 186 38 211 19 211 -5 c 4x90
EndSplineSet
Validated: 1
EndChar

StartChar: two
Encoding: 50 50 3
Width: 641
Flags: W
HStem: -43 171<218.5 340> 406 149<189.019 295.675>
VStem: 297 120<333.464 405.997>
LayerCount: 2
Back
Fore
SplineSet
636 185 m 0
 636 89 274 -43 249 -43 c 0
 188 -43 151 6 151 52 c 0
 151 143 297 339 297 390 c 2
 297 400 l 1
 289 404 286 406 276 406 c 0
 226 406 156 366 120 366 c 0
 68 366 48 433 48 462 c 0
 48 482 51 509 67 528 c 1
 134 544 222 555 278 555 c 0
 370 555 417 452 417 391 c 0
 417 311 365 235 315 134 c 1
 318 131 315 128 324 128 c 0
 356 128 600 238 601 238 c 0
 613 238 636 190 636 185 c 0
EndSplineSet
Validated: 1
EndChar

StartChar: three
Encoding: 51 51 4
Width: 501
Flags: W
HStem: 527 117<135.143 288.253>
LayerCount: 2
Back
Fore
SplineSet
501 234 m 0
 501 212 497 216 472 186 c 0
 397 96 381 105 340 38 c 0
 330 22 303 4 289 4 c 0
 262 4 251 32 251 54 c 0
 251 94 338 211 368 228 c 1
 287 279 164 254 164 363 c 0
 164 442 250 467 290 522 c 1
 275 525 250 527 241 527 c 0
 233 527 86 494 79 494 c 0
 26 494 14 542 14 572 c 0
 14 582 26 620 33 622 c 0
 64 629 205 644 245 644 c 0
 301 644 437 633 437 557 c 0
 437 488 324 404 284 369 c 1
 321 347 501 329 501 234 c 0
EndSplineSet
Validated: 1
EndChar

StartChar: four
Encoding: 52 52 5
Width: 373
Flags: W
HStem: 651 20G<309 336.5>
VStem: 23 82<305 416.512> 144 76<16.858 205.841>
LayerCount: 2
Back
Fore
SplineSet
373 618 m 4
 373 557 266 449 266 378 c 6
 266 370 l 6
 269 367 270 365 271 365 c 6
 279 371 l 5
 280 365 294 335 294 323 c 4
 294 286 246 275 240 257 c 4
 234 241 220 162 220 121 c 4
 220 38 264 -30 264 -31 c 4
 264 -37 257 -59 255 -74 c 5
 250 -74 243 -77 236 -77 c 4
 138 -77 145 190 144 207 c 5
 124 200 99 199 80 199 c 4
 76 199 72 199 68 199 c 4
 29 199 23 291 23 301 c 4
 23 327 67 611 117 611 c 4
 148 611 173 568 173 542 c 4
 173 517 105 387 105 334 c 6
 105 310 l 5
 110 305 113 305 120 305 c 4
 125 305 152 316 167 327 c 5
 179 379 190 426 212 496 c 4
 218 513 293 671 325 671 c 4
 348 671 373 637 373 618 c 4
EndSplineSet
Validated: 1
EndChar

StartChar: five
Encoding: 53 53 6
Width: 623
Flags: W
HStem: -32 107<134.928 217.334> 510 105<539.168 615.81>
LayerCount: 2
Back
Fore
SplineSet
623 570 m 4
 623 531 608 515 595 510 c 4
 356 415 121 448 121 386 c 4
 121 299 341 255 341 73 c 4
 341 7 227 -32 188 -32 c 4
 142 -32 112 7 112 41 c 4
 112 48 122 69 122 80 c 4
 122 81 122 81 122 81 c 5
 132 78 145 75 152 75 c 4
 167 75 205 83 231 106 c 5
 204 171 118 209 87 238 c 4
 25 304 30 365 18 413 c 5
 34 452 23 498 64 549 c 5
 100 550 132 550 175 556 c 4
 198 559 232 566 262 569 c 4
 286 571 330 573 362 575 c 4
 393 578 580 615 587 615 c 4
 620 615 623 585 623 570 c 4
EndSplineSet
Validated: 1
EndChar

StartChar: six
Encoding: 54 54 7
Width: 436
Flags: W
HStem: -71 103<102 201.298> 195 106<189.25 253>
VStem: 15 85<40.9567 88> 259 87<98.2994 192>
LayerCount: 2
Back
Fore
SplineSet
436 636 m 0
 436 624 417 596 412 594 c 0
 364 565 354 537 316 499 c 0
 282 463 230 378 175 286 c 1
 175 286 175 286 175 285 c 0
 175 284 175 284 176 282 c 1
 179 285 212 301 239 301 c 0
 307 301 346 224 346 171 c 0
 346 84 288 -71 155 -71 c 0
 57 -71 15 31 15 101 c 0
 15 154 23 178 58 277 c 0
 60 281 308 724 377 724 c 0
 409 724 436 648 436 636 c 0
259 164 m 0
 259 171 253 184 253 192 c 1
 250 192 246 195 239 195 c 0
 237 195 141 159 141 133 c 0
 141 125 141 122 141 119 c 0
 141 114 140 110 136 85 c 0
 135 85 l 0
 135 85 136 86 136 87 c 0
 136 88 135 88 132 88 c 0
 125 88 127 91 120 91 c 0
 113 91 105 88 100 88 c 1
 100 59 l 6
 100 45 144 32 151 32 c 0
 213 32 259 122 259 164 c 0
EndSplineSet
Validated: 1
EndChar

StartChar: seven
Encoding: 55 55 8
Width: 745
Flags: W
HStem: 161 136<246.146 375.216> 504 117<274.578 490.476>
VStem: 501 93<340.714 491.506>
LayerCount: 2
Back
Fore
SplineSet
745 333 m 5
 742 325 734 314 734 308 c 4
 734 301 739 292 740 286 c 4
 706 210 584 241 544 207 c 4
 515 181 497 -67 432 -67 c 4
 425 -67 420 -69 413 -70 c 5
 405 -57 387 -33 387 -14 c 4
 387 -13 387 -12 387 -11 c 6
 431 175 l 5
 431 190 l 5
 429 191 426 192 422 192 c 4
 392 192 317 161 287 161 c 4
 256 161 224 201 224 227 c 4
 224 235 243 297 257 297 c 6
 284 297 l 6
 291 297 287 303 295 303 c 4
 320 303 401 315 453 320 c 4
 461 321 475 322 479 333 c 4
 490 368 501 442 501 450 c 4
 501 497 463 504 427 504 c 4
 223 504 103 399 83 399 c 4
 78 399 73 405 52 405 c 5
 42 427 29 468 29 476 c 4
 29 483 42 509 43 526 c 5
 152 594 290 621 403 621 c 4
 536 621 594 575 594 445 c 4
 594 438 587 370 581 340 c 5
 615 340 673 337 680 337 c 4
 687 337 715 346 721 346 c 4
 728 346 736 336 745 333 c 5
EndSplineSet
Validated: 1
EndChar

StartChar: eight
Encoding: 56 56 9
Width: 554
Flags: W
HStem: -109 132<155.795 242> 554 133<157.241 297.049>
VStem: 48 104<28.3695 86.9955> 54 91<403.922 540.355>
LayerCount: 2
Back
Fore
SplineSet
546 363 m 0xd0
 546 356 534 337 526 328 c 0
 526 326 533 322 536 315 c 1
 450 298 357 270 264 196 c 1
 298 124 365 43 365 -33 c 0
 365 -92 281 -109 242 -109 c 0
 149 -109 48 -77 48 39 c 0xe0
 48 47 49 72 55 87 c 0
 95 183 132 209 132 219 c 0
 132 220 54 420 54 456 c 2
 54 532 l 2
 54 574 112 679 137 682 c 0
 163 685 232 687 240 687 c 0
 285 687 399 622 418 604 c 1
 457 542 485 530 485 471 c 0
 485 460 476 430 468 423 c 1
 489 423 514 420 536 417 c 1
 530 411 523 400 517 397 c 1
 520 393 546 374 546 363 c 0xd0
413 409 m 1
 396 472 291 554 232 554 c 0
 187 554 145 549 145 489 c 0xd0
 145 445 191 334 211 305 c 1
 216 308 353 399 381 399 c 0
 383 399 384 398 384 397 c 0
 384 396 383 395 383 394 c 0
 383 393 384 392 386 392 c 1
 388 392 389 392 389 393 c 0
 389 394 386 397 386 398 c 0
 386 399 387 399 389 399 c 0
 402 399 404 402 413 409 c 1
195 23 m 2
 242 23 l 1
 242 35 l 1
 225 62 214 92 188 114 c 1
 175 92 152 59 152 39 c 0
 152 38 152 38 152 37 c 1xe0
 164 30 187 23 195 23 c 2
EndSplineSet
Validated: 1
EndChar

StartChar: nine
Encoding: 57 57 10
Width: 483
Flags: W
HStem: 244 121<159.789 285.155> 602 120<224.261 373.922>
VStem: 24 90<408.743 502.283> 312 114<-68.9432 65.584> 314 91<54.0931 282.33> 382 101<450.516 489.778> 390 79<487.82 585.777>
LayerCount: 2
Back
Fore
SplineSet
483 429 m 4xe4
 483 411 405 301 405 126 c 4xe8
 405 74 426 -2 426 -20 c 4
 426 -35 422 -131 360 -131 c 4
 335 -131 324 8 312 54 c 4xf0
 314 56 314 57 314 66 c 4xe8
 314 75 314 90 312 120 c 5xf0
 318 176 330 267 331 273 c 6
 331 284 l 5
 269 261 254 244 219 244 c 4
 212 244 189 244 182 244 c 4
 83 244 24 381 24 437 c 4
 24 591 175 722 323 722 c 4
 370 722 437 684 455 646 c 4
 460 634 469 593 469 550 c 4xe2
 469 529 467 509 462 490 c 5
 471 486 483 435 483 429 c 4xe4
390 546 m 4xe2
 390 571 361 602 329 602 c 4
 272 602 222 589 172 549 c 4
 163 541 114 483 114 456 c 4
 114 413 172 365 224 365 c 4
 267 365 364 428 383 450 c 5
 382 461 382 473 382 484 c 4xe4
 382 500 383 515 385 531 c 4
 386 538 390 539 390 546 c 4xe2
EndSplineSet
Validated: 1
EndChar

StartChar: colon
Encoding: 58 58 11
Width: 247
Flags: W
HStem: 58 155<71.8662 186.453> 313 172<73.0078 162.549>
VStem: 40 159<351.705 450.454> 48 158<83.3784 189.312>
LayerCount: 2
Back
Fore
SplineSet
199 405 m 0xe0
 199 386.333333333 189.333333333 365.333333333 170 342 c 0
 154 322.666666667 138.666666667 313 124 313 c 0
 113.333333333 313 96.6666666667 320 74 334 c 0
 51.3333333333 348 40 369.333333333 40 398 c 0
 40 429.333333333 56.6666666667 456.333333333 90 479 c 0
 96 483 103 485 111 485 c 0
 124.333333333 485 139.333333333 479.333333333 156 468 c 0
 170 458.666666667 180.666666667 448.666666667 188 438 c 0
 195.333333333 427.333333333 199 416.333333333 199 405 c 0xe0
206 146 m 0xd0
 206 125.333333333 202.333333333 107.333333333 195 92 c 0
 183 69.3333333333 162.333333333 58 133 58 c 0
 123.666666667 58 113.666666667 59 103 61 c 0
 81 65 66 72.3333333333 58 83 c 0
 51.3333333333 91 48 103.666666667 48 121 c 0
 48 125 48.3333333333 132 49 142 c 0
 50.3333333333 172.666666667 67.3333333333 194.666666667 100 208 c 0
 108 211.333333333 116.666666667 213 126 213 c 0
 144 213 163 207.666666667 183 197 c 0
 198.333333333 189 206 172 206 146 c 0xd0
EndSplineSet
EndChar

StartChar: semicolon
Encoding: 59 59 12
Width: 244
Flags: W
HStem: 352 159<72.3525 180.217>
VStem: 45 161<379.092 483.25> 69 157<77.3079 194.458>
LayerCount: 2
Back
Fore
SplineSet
206 413 m 0xc0
 206 397.666666667 200.666666667 385.666666667 190 377 c 0
 183.333333333 371.666666667 170 365 150 357 c 0
 141.333333333 353.666666667 132.666666667 352 124 352 c 0
 104.666666667 352 86.6666666667 360 70 376 c 0
 53.3333333333 392 45 415.666666667 45 447 c 0
 45 452 45 452 45 457 c 0
 46.3333333333 473.666666667 58 487.333333333 80 498 c 0
 97.3333333333 506.666666667 115 511 133 511 c 0
 141.666666667 511 150 509.333333333 158 506 c 0
 178.666666667 498 193.333333333 475.666666667 202 439 c 0
 204.666666667 429 206 420.333333333 206 413 c 0xc0
226 150 m 0xa0
 226 129.333333333 222.333333333 111.333333333 215 96 c 0
 209 86.6666666667 199.333333333 68.6666666667 186 42 c 0
 178 21.3333333333 170.333333333 0.666666666667 163 -20 c 0
 153 -45.3333333333 143 -62 133 -70 c 0
 127 -75.3333333333 119.333333333 -78 110 -78 c 0
 106 -78 101 -77.3333333333 95 -76 c 0
 75.6666666667 -72.6666666667 64.3333333333 -64.3333333333 61 -51 c 0
 59.6666666667 -45.6666666667 59 -39 59 -31 c 0
 59 -19.6666666667 61.5 0.166666666667 66.5 28.5 c 0
 71.5 56.8333333333 74 77.3333333333 74 90 c 0
 74 98.6666666667 73.1666666667 109.166666667 71.5 121.5 c 0
 69.8333333333 133.833333333 69 141.666666667 69 145 c 0
 69 175.666666667 86 198 120 212 c 0
 128 215.333333333 136.666666667 217 146 217 c 0
 164 217 183 211.666666667 203 201 c 0
 218.333333333 193 226 176 226 150 c 0xa0
EndSplineSet
EndChar

StartChar: less
Encoding: 60 60 13
Width: 352
Flags: W
VStem: 21 119<271.807 357.555>
LayerCount: 2
Back
Fore
SplineSet
316 85 m 0
 316 71.6666666667 312 60.3333333333 304 51 c 0
 298.666666667 45 286 38.6666666667 266 32 c 0
 258.666666667 32 240 44.3333333333 210 69 c 0
 208 70.3333333333 188 90.3333333333 150 129 c 1
 137.333333333 147.666666667 117.333333333 171.666666667 90 201 c 1
 62 226.333333333 41.6666666667 255.666666667 29 289 c 0
 23.6666666667 295.666666667 21 301.333333333 21 306 c 0
 21 315.333333333 27.6666666667 331.666666667 41 355 c 0
 41.6666666667 357 55.3333333333 374.333333333 82 407 c 1
 115.333333333 437.666666667 152 475.333333333 192 520 c 0
 200 532 212.5 543.5 229.5 554.5 c 0
 246.5 565.5 259 571 267 571 c 0
 270.333333333 571 273.5 570 276.5 568 c 0
 279.5 566 282 565 284 565 c 0
 286.666666667 565 289.333333333 566 292 568 c 1
 298 558 301 548.333333333 301 539 c 0
 301 525 293.666666667 510.166666667 279 494.5 c 0
 264.333333333 478.833333333 249.666666667 463.333333333 235 448 c 0
 171.666666667 381.333333333 140 333.333333333 140 304 c 0
 140 302 140 302 140 301 c 0
 137.333333333 298.333333333 131.666666667 288.333333333 123 271 c 1
 156.333333333 231 176.666666667 207.666666667 184 201 c 0
 208.666666667 177 232.333333333 163 255 159 c 1
 259 154.333333333 267.833333333 147 281.5 137 c 0
 295.166666667 127 304 119 308 113 c 0
 313.333333333 105 316 95.6666666667 316 85 c 0
EndSplineSet
EndChar

StartChar: equal
Encoding: 61 61 14
Width: 451
Flags: W
HStem: 72 83<48.8169 310.884> 289 71<33.4883 284.523>
LayerCount: 2
Back
Fore
SplineSet
416 149 m 0
 416.666666667 139.666666667 413.666666667 123.666666667 407 101 c 0
 403.666666667 94.3333333333 387 87 357 79 c 0
 355 78.3333333333 333 76 291 72 c 0
 287 72 287 72 280 72 c 0
 272 72 254.333333333 72.6666666667 227 74 c 0
 199.666666667 75.3333333333 179.666666667 76 167 76 c 0
 157 76 147.166666667 75.3333333333 137.5 74 c 0
 127.833333333 72.6666666667 121.333333333 72 118 72 c 0
 88.6666666667 72 65.3333333333 77.3333333333 48 88 c 0
 44 91.3333333333 41.3333333333 95.6666666667 40 101 c 0
 38.6666666667 106.333333333 35.3333333333 110 30 112 c 1
 36.6666666667 140.666666667 61.3333333333 155 104 155 c 0
 112 155 112 155 128 155 c 0
 138.666666667 154.333333333 146.666666667 154 152 154 c 0
 180.666666667 154 211 156.333333333 243 161 c 0
 289.666666667 167 318 176 328 188 c 0
 329 188 329 188 330 188 c 0
 334.666666667 188 342.333333333 189.833333333 353 193.5 c 0
 363.666666667 197.166666667 371.333333333 199 376 199 c 0
 386.666666667 199 395.666666667 193.833333333 403 183.5 c 0
 410.333333333 173.166666667 414.666666667 161.666666667 416 149 c 0
406 353 m 0
 407.333333333 345 403.666666667 331.333333333 395 312 c 0
 391 306.666666667 369.666666667 300.666666667 331 294 c 0
 308.333333333 289.333333333 277 287 237 287 c 0
 229 287 218 287.833333333 204 289.5 c 0
 190 291.166666667 179.666666667 292 173 292 c 0
 169 292 162.5 291.5 153.5 290.5 c 0
 144.5 289.5 137.666666667 289 133 289 c 0
 95 289 65 293.666666667 43 303 c 0
 37 305.666666667 33.3333333333 309.333333333 32 314 c 0
 30.6666666667 318.666666667 26 321.666666667 18 323 c 1
 27.3333333333 347.666666667 59.6666666667 360 115 360 c 0
 124 360 124 360 145 360 c 0
 159 359.333333333 169.333333333 359 176 359 c 2
 180 359 l 2
 232.666666667 359.666666667 270.333333333 369 293 387 c 0
 294 387 294 387 295 387 c 0
 301 387 311 388.666666667 325 392 c 0
 339 395.333333333 349 397 355 397 c 0
 369 397 380.5 392.5 389.5 383.5 c 0
 398.5 374.5 404 364.333333333 406 353 c 0
EndSplineSet
EndChar

StartChar: greater
Encoding: 62 62 15
Width: 352
Flags: W
VStem: 189 119<271.346 357.17>
LayerCount: 2
Back
Fore
SplineSet
308 306 m 0
 308 301.333333333 305.333333333 295.666666667 300 289 c 0
 287.333333333 255.666666667 267 226.333333333 239 201 c 0
 230.333333333 195 220.666666667 184 210 168 c 0
 196.666666667 148.666666667 186.666666667 135.666666667 180 129 c 0
 166 114.333333333 145.666666667 94.3333333333 119 69 c 0
 89 44.3333333333 70.3333333333 32 63 32 c 0
 55 32.6666666667 48.3333333333 35 43 39 c 0
 35 45.6666666667 29 49.6666666667 25 51 c 0
 17 60.3333333333 13 71.6666666667 13 85 c 0
 13 95.6666666667 15.6666666667 105 21 113 c 0
 25 119 33.8333333333 127 47.5 137 c 0
 61.1666666667 147 70 154.333333333 74 159 c 1
 96.6666666667 163 120.333333333 177 145 201 c 0
 152.333333333 207.666666667 172.666666667 231 206 271 c 1
 203.333333333 278.333333333 197.666666667 288.333333333 189 301 c 0
 189 302 189 302 189 304 c 0
 189 333.333333333 157.333333333 381.333333333 94 448 c 0
 79.3333333333 463.333333333 64.6666666667 478.833333333 50 494.5 c 0
 35.3333333333 510.166666667 28 525 28 539 c 0
 28 548.333333333 31 558 37 568 c 1
 39.6666666667 566 42.3333333333 565 45 565 c 0
 47 565 49.5 566 52.5 568 c 0
 55.5 570 58.6666666667 571 62 571 c 0
 70 571 82.5 565.5 99.5 554.5 c 0
 116.5 543.5 129 532 137 520 c 0
 141 512 158.666666667 493.333333333 190 464 c 0
 224.666666667 430.666666667 243.666666667 411.666666667 247 407 c 0
 257.666666667 395.666666667 271.333333333 378.333333333 288 355 c 1
 301.333333333 331.666666667 308 315.333333333 308 306 c 0
EndSplineSet
EndChar

StartChar: question
Encoding: 63 63 16
Width: 512
Flags: W
HStem: -44 143<119.275 230.193> 156 108<242.426 331.66> 669 103<72 244.282>
VStem: 97 149<-20.4954 76.5156> 108 132<264.199 330.292> 352 123<534.192 603.281>
LayerCount: 2
Back
Fore
SplineSet
475 586 m 0xec
 475 566.666666667 471.333333333 550.333333333 464 537 c 0
 438.666666667 492.333333333 415.666666667 459 395 437 c 0
 381.666666667 426.333333333 362 409 336 385 c 1
 322 377 301.333333333 362.666666667 274 342 c 1
 251.333333333 321.333333333 240 307.333333333 240 300 c 0
 240 297.333333333 240.666666667 292.666666667 242 286 c 0
 246 271.333333333 251.333333333 264 258 264 c 0
 258.666666667 264 262.166666667 265 268.5 267 c 0
 274.833333333 269 281 270 287 270 c 0
 288.333333333 270 291 268.833333333 295 266.5 c 0
 299 264.166666667 301.666666667 263 303 263 c 0
 305 263 307.666666667 264.166666667 311 266.5 c 0
 314.333333333 268.833333333 317 270 319 270 c 0
 326.333333333 270 335.333333333 265.833333333 346 257.5 c 0
 356.666666667 249.166666667 362 240.333333333 362 231 c 0
 362 197.666666667 352 177.666666667 332 171 c 0
 300.666666667 161 276.333333333 156 259 156 c 0
 239 156 218 160.666666667 196 170 c 0
 160 186 135 207.333333333 121 234 c 0
 112.333333333 250.666666667 108 268 108 286 c 0
 108 320.666666667 123.333333333 353.333333333 154 384 c 0
 168.666666667 399.333333333 191.5 417.666666667 222.5 439 c 0
 253.5 460.333333333 276 477.333333333 290 490 c 0
 331.333333333 530 352 559.333333333 352 578 c 0
 352 582 351.666666667 586 351 590 c 0
 347 602.666666667 338.666666667 612.666666667 326 620 c 0
 313.333333333 627.333333333 287.333333333 636.333333333 248 647 c 0
 190 661.666666667 148.333333333 669 123 669 c 0
 116.333333333 669 110.666666667 668.333333333 106 667 c 0
 104.666666667 667 99.5 664 90.5 658 c 0
 81.5 652 76.3333333333 649 75 649 c 0
 74 649 74 649 73 649 c 256
 72.3333333333 649 72 649.333333333 72 650 c 256
 72 651 72 651 72 651 c 2
 72.6666666667 651.666666667 73 652.333333333 73 653 c 256
 73 653.666666667 72.6666666667 654 72 654 c 0
 68.6666666667 654 67 653 67 651 c 1
 65.6666666667 649 63 648 59 648 c 0
 51.6666666667 648 40.3333333333 651.666666667 25 659 c 0
 16.3333333333 662.333333333 7.33333333333 669.666666667 -2 681 c 0
 -9.33333333333 690.333333333 -13.6666666667 697.333333333 -15 702 c 0
 -15.6666666667 704 -16 705.666666667 -16 707 c 1
 -16 706.333333333 -15.6666666667 708 -15 712 c 2
 -15 713 l 1
 -8 713 l 1
 1 725 1 725 10 737 c 0
 22.6666666667 754.333333333 37.3333333333 765.333333333 54 770 c 0
 59.3333333333 771.333333333 68.6666666667 772 82 772 c 0
 100.666666667 772 128.333333333 770.333333333 165 767 c 0
 347 751 446.666666667 713 464 653 c 0
 471.333333333 627 475 604.666666667 475 586 c 0xec
246 28 m 0xf4
 246 16.6666666667 245 7 243 -1 c 0
 233.666666667 -29.6666666667 207.333333333 -44 164 -44 c 0
 136.666666667 -44 118 -36.3333333333 108 -21 c 0xec
 100.666666667 -10.3333333333 97 6.66666666667 97 30 c 0
 97 54 109.666666667 73.6666666667 135 89 c 0
 145.666666667 95.6666666667 159 99 175 99 c 0
 191.666666667 99 206 96.3333333333 218 91 c 0
 236.666666667 83 246 62 246 28 c 0xf4
EndSplineSet
EndChar

StartChar: at
Encoding: 64 64 17
Width: 489
Flags: W
HStem: 12 118<185.148 320.831> 182 89<232.095 278.044> 345 89<252.807 298.797> 500 134<211.377 316.826>
VStem: 15 91<199.089 366.056> 146 86<256 325.402> 346 98<405.423 470.985>
LayerCount: 2
Back
Fore
SplineSet
516 158 m 1
 514.666666667 140.666666667 503.666666667 128.333333333 483 121 c 0
 455.666666667 111.666666667 439.666666667 104.333333333 435 99 c 0
 350.333333333 41 283.666666667 12 235 12 c 0
 204.333333333 12 175.666666667 20.6666666667 149 38 c 0
 59.6666666667 95.3333333333 15 170 15 262 c 0
 15 334.666666667 32 404.5 66 471.5 c 0
 100 538.5 145.333333333 591.666666667 202 631 c 1
 213.333333333 633 224.333333333 634 235 634 c 0
 283 634 332 615.666666667 382 579 c 1
 394.666666667 559 407.333333333 538.666666667 420 518 c 0
 436 488 444 456.666666667 444 424 c 0
 444 402.666666667 440.666666667 380.666666667 434 358 c 1
 418.666666667 346 401.666666667 323.333333333 383 290 c 0
 362.333333333 254.666666667 346.666666667 231.666666667 336 221 c 0
 310 195 284.333333333 182 259 182 c 0
 244.333333333 182 229.666666667 186 215 194 c 0
 169 219.333333333 146 244 146 268 c 0
 146 315.333333333 156.333333333 353 177 381 c 0
 192.333333333 401.666666667 220.333333333 418 261 430 c 0
 265.666666667 432.666666667 270 434 274 434 c 0
 281.333333333 434 291 429.166666667 303 419.5 c 0
 315 409.833333333 323.666666667 405 329 405 c 0
 340.333333333 405 346 411.333333333 346 424 c 0
 346 450 330 472.333333333 298 491 c 0
 287.333333333 497 276.333333333 500 265 500 c 0
 237.666666667 500 213.333333333 485.666666667 192 457 c 0
 158 411.666666667 137.666666667 383.333333333 131 372 c 0
 114.333333333 342.666666667 106 314.333333333 106 287 c 0
 106 260.333333333 113.333333333 230.666666667 128 198 c 1
 129.333333333 178.666666667 142.666666667 165 168 157 c 0
 205.333333333 145.666666667 228.666666667 136.666666667 238 130 c 1
 284.666666667 130 324.333333333 136.333333333 357 149 c 1
 409 174 409 174 461 199 c 1
 491 189 509.333333333 175.333333333 516 158 c 1
299 344 m 1
 298 344 l 2
 294.666666667 344.666666667 291.666666667 345 289 345 c 0
 275 345 263 338.333333333 253 325 c 0
 251.666666667 321.666666667 247.833333333 315.666666667 241.5 307 c 0
 235.166666667 298.333333333 232 291.333333333 232 286 c 0
 232 276 236 271 244 271 c 0
 260 271 272.333333333 280 281 298 c 0
 290 321 290 321 299 344 c 1
EndSplineSet
EndChar

StartChar: A
Encoding: 65 65 18
Width: 597
Flags: W
HStem: -48 21G<109 127>
VStem: 188 115<529.727 633.316> 458 111<62.0831 137.964>
LayerCount: 2
Back
Fore
SplineSet
569 93 m 4
 569 64 542 29 505 29 c 4
 489 29 459 48 449 53 c 5
 451 57 451 60 451 62 c 4
 451 67 449 70 449 75 c 4
 449 76 449 76 449 77 c 4
 451 86 458 95 458 103 c 4
 458 114 386 206 380 213 c 5
 332 193 270 175 220 131 c 4
 168 84 212 -45 150 -45 c 4
 144 -45 130 -48 124 -48 c 4
 94 -48 68 -22 68 4 c 4
 68 64 95 115 95 166 c 4
 95 169 95 171 95 174 c 4
 95 180 117 201 123 218 c 4
 158 311 190 444 190 544 c 4
 190 554 190 563 189 572 c 4
 189 579 188 584 188 590 c 4
 188 650 213 656 251 656 c 4
 270 656 298 615 303 593 c 4
 315 541 368 408 419 342 c 5
 449 357 445 366 465 366 c 4
 479 366 523 346 523 325 c 4
 523 308 491 274 476 261 c 5
 504 210 569 153 569 93 c 4
317 299 m 5
 317 312 l 5
 294 332 286 364 268 380 c 5
 263 342 253 305 248 269 c 5
 271 278 297 290 317 299 c 5
EndSplineSet
Validated: 1
EndChar

StartChar: B
Encoding: 66 66 19
Width: 605
Flags: W
HStem: -47 21G<417 461.5> 312 67<389.203 495.509> 573 80<288.991 337>
VStem: 496 109<161.948 308.336>
LayerCount: 2
Back
Fore
SplineSet
605 266 m 0
 605 201 576 134 548 57 c 1
 548 57 477 -47 446 -47 c 0
 439 -47 440 -47 433 -47 c 0
 401 -47 382 -13 370 -11 c 0
 370 -8 373 -6 376 -6 c 1
 359 71 332 108 285 233 c 1
 274 233 271 229 264 229 c 0
 257 229 220 242 199 251 c 1
 199 253 199 255 199 257 c 0
 199 265 198 275 193 284 c 1
 203 290 246 347 246 368 c 0
 246 384 201 501 197 512 c 1
 161 497 117 459 73 459 c 0
 68 459 33 476 24 486 c 1
 26 492 26 501 26 507 c 0
 26 510 20 507 17 510 c 1
 85 559 177 565 177 623 c 0
 177 625 177 627 177 629 c 1
 180 630 183 630 187 630 c 0
 191 630 196 630 201 630 c 0
 204 630 207 630 209 630 c 0
 217 631 235 641 242 641 c 0
 250 641 257 632 264 632 c 2
 264 632 335 653 351 653 c 0
 382 653 458 652 458 601 c 0
 458 563 356 391 343 363 c 0
 346 360 342 359 349 359 c 0
 356 359 386 370 400 372 c 0
 435 378 505 379 512 379 c 0
 572 379 605 314 605 266 c 0
303 506 m 1
 337 573 l 1
 317 572 301 566 288 555 c 1
 290 540 300 520 303 506 c 1
496 273 m 0
 496 280 496 297 493 306 c 1
 487 306 481 312 474 312 c 0
 462 312 378 289 373 284 c 1
 373 275 l 2
 373 257 434 106 443 88 c 1
 469 131 496 221 496 273 c 0
EndSplineSet
Validated: 1
EndChar

StartChar: C
Encoding: 67 67 20
Width: 480
Flags: HMW
HStem: -11 132<228 267.5 228 299> -11 168 475 156<265 414.5> 483 148<313 358.5>
VStem: 47 137<326 391 326 444.5>
LayerCount: 2
Back
Fore
SplineSet
477 529 m 4xa8
 477 494 420 475 409 475 c 4
 400 475 363 483 354 483 c 4x58
 272 483 184 450 184 332 c 4
 184 320 198 121 258 121 c 4
 277 121 321 145 359 157 c 5x98
 369 145 389 112 408 104 c 5
 400 40 326 -11 272 -11 c 4
 89 -11 47 258 47 344 c 4
 47 545 172 631 358 631 c 4
 405 631 477 588 477 529 c 4xa8
EndSplineSet
Validated: 1
EndChar

StartChar: D
Encoding: 68 68 21
Width: 475
Flags: W
VStem: 50 117<339.491 483.859> 374 101<315.938 402.341>
LayerCount: 2
Back
Fore
SplineSet
475 373 m 4
 475 261 225 -15 148 -15 c 4
 142 -15 128 -10 122 -10 c 4
 110 -10 108 -8 108 -5 c 4
 108 -3 110 1 110 3 c 4
 110 5 109 5 105 5 c 4
 105 5 104 5 103 5 c 5
 110 28 115 34 117 54 c 5
 200 120 308 205 355 320 c 4
 360 333 374 360 374 367 c 4
 374 427 178 481 169 484 c 5
 167 481 167 477 167 473 c 4
 167 470 167 468 167 465 c 4
 167 452 176 305 191 305 c 4
 192 305 194 306 195 309 c 5
 206 295 206 279 206 268 c 4
 206 261 203 238 203 224 c 5
 184 211 173 198 154 198 c 4
 148 198 141 195 132 195 c 4
 125 195 107 225 101 238 c 4
 67 318 70 371 55 454 c 4
 53 464 50 479 50 494 c 4
 50 497 50 499 50 502 c 4
 51 510 57 518 57 525 c 4
 57 526 56 528 56 529 c 4
 53 541 38 544 38 565 c 4
 38 584 55 621 81 621 c 4
 107 621 416 488 438 459 c 4
 468 422 475 397 475 373 c 4
EndSplineSet
Validated: 1
EndChar

StartChar: E
Encoding: 69 69 22
Width: 486
Flags: HMW
HStem: -11 110<250.5 307.5> 212 117<218 246.5 218 255.5>
VStem: 290 117<417 434>
LayerCount: 2
Back
Fore
SplineSet
486 159 m 4
 486 151 472 115 461 96 c 4
 414 20 344 -11 271 -11 c 4
 107 -11 24 127 24 273 c 4
 24 282 24 291 25 300 c 4
 25 312 15 336 15 345 c 4
 15 399 44 398 64 409 c 5
 64 409 180 625 242 625 c 4
 384 625 407 509 407 412 c 4
 407 301 308 212 203 212 c 4
 192 212 178 220 169 220 c 4
 165 220 162 218 160 215 c 5
 174 146 218 99 283 99 c 4
 340 99 399 192 445 192 c 4
 452 192 486 173 486 159 c 4
290 430 m 4
 290 438 281 479 272 497 c 5
 213 453 200 387 174 347 c 5
 192 341 214 329 222 329 c 4
 271 329 290 404 290 430 c 4
EndSplineSet
Validated: 1
EndChar

StartChar: F
Encoding: 70 70 23
Width: 743
Flags: W
HStem: -133 87<381.489 431.074> 203 105<474.076 587.186> 210 91<301.044 455.577 463.138 523.531> 624 94<442.939 590.447>
VStem: 183 106<80.356 207.862>
LayerCount: 2
Back
Fore
SplineSet
291 208 m 0xb8
 288 205 289 205 289 197 c 0
 289 135 319 -16 420 -46 c 1
 434 -77 441 -68 441 -92 c 0
 441 -110 407 -133 396 -133 c 0
 389 -133 372 -135 365 -135 c 0
 272 -135 199 78 196 97 c 0
 192 121 183 154 183 185 c 0
 183 195 184 205 186 214 c 1
 168 223 45 233 45 290 c 0
 45 311 65 337 88 337 c 0
 122 337 113 333 187 310 c 1
 233 416 273 718 473 718 c 0
 516 718 743 679 743 586 c 0
 743 576 735 542 726 542 c 0
 719 542 711 539 704 539 c 0
 661 539 649 571 609 594 c 0
 589 605 563 614 539 620 c 0
 531 622 513 624 507 624 c 0
 371 624 330 394 300 309 c 1
 322 303 361 301 368 301 c 0
 385 301 407 307 427 307 c 0
 437 307 447 305 456 301 c 1xb8
 463 310 l 1
 466 307 466 304 473 304 c 0
 496 304 516 308 534 308 c 0
 557 308 578 302 602 273 c 0
 603 272 603 270 603 265 c 0
 603 246 593 203 524 203 c 0xd8
 514 203 504 204 492 206 c 1
 487 206 481 206 476 206 c 0
 434 206 388 210 342 210 c 0
 325 210 308 210 291 208 c 0xb8
EndSplineSet
Validated: 1
EndChar

StartChar: G
Encoding: 71 71 24
Width: 502
Flags: HMW
HStem: 5 93<218 251.5 218 253> 565 104<316 317.5 269.5 323.5> 570 99<269.5 291>
VStem: 27 101<305.5 345 305.5 372.5>
LayerCount: 2
Back
Fore
SplineSet
502 38 m 0xd0
 502 11 470 -28 442 -28 c 0
 378 -28 388 96 381 117 c 1
 358 47 283 5 223 5 c 0
 191 5 135 39 128 44 c 0
 52 105 27 250 27 329 c 0
 27 416 75 617 189 654 c 0
 205 659 239 669 300 669 c 0
 335 669 371 642 371 604 c 0
 371 580 328 565 319 565 c 0
 313 565 294 570 288 570 c 0xb0
 153 570 128 382 128 308 c 0
 128 303 132 292 138 284 c 1
 210 361 292 384 366 422 c 0
 373 426 389 426 401 426 c 0
 406 426 410 426 412 426 c 0
 434 426 468 351 468 345 c 0
 473 294 484 203 484 126 c 0
 484 112 483 99 483 87 c 0
 483 73 502 45 502 38 c 0xd0
364 248 m 2
 376 248 l 1
 376 258 l 2
 376 286 361 310 356 311 c 0
 320 290 222 223 208 223 c 0
 202 223 189 218 182 218 c 0
 166 218 155 235 139 245 c 1
 139 231 l 2
 139 208 200 98 236 98 c 0
 267 98 302 162 307 178 c 0
 308 182 309 187 309 192 c 0
 309 205 305 218 303 230 c 0
 303 231 320 262 330 262 c 0
 337 262 359 248 364 248 c 2
EndSplineSet
Validated: 1
EndChar

StartChar: H
Encoding: 72 72 25
Width: 424
Flags: W
VStem: 20 88<43 230.138> 58 188<563.25 635.481>
LayerCount: 2
Back
Fore
SplineSet
424 -33 m 4x80
 424 -60 385 -74 373 -74 c 4
 298 -74 277 90 262 120 c 5
 215 52 197 -89 114 -89 c 4
 45 -89 33 -27 20 34 c 4
 22 35 22 40 22 46 c 4
 22 56 22 76 20 112 c 5x80
 28 262 89 404 120 554 c 5
 112 549 104 544 95 540 c 5
 94 540 l 5
 69 548 58 564 58 583 c 4
 58 614 86 651 120 671 c 5
 188 706 l 5
 230 695 246 683 246 646 c 4x40
 246 607 108 236 108 93 c 4
 108 87 113 61 113 43 c 5
 116 43 115 40 118 37 c 5
 160 95 152 92 171 133 c 4
 175 141 229 284 268 284 c 6
 272 284 l 6
 283 284 309 283 315 274 c 4
 347 225 338 191 387 36 c 4
 393 17 424 -19 424 -33 c 4x80
EndSplineSet
Validated: 1
EndChar

StartChar: I
Encoding: 73 73 26
Width: 249
Flags: W
VStem: 40 141<42.6274 366.92>
LayerCount: 2
Back
Fore
SplineSet
192 8 m 0
 184 -15 161 -24 138 -24 c 0
 127 -24 117 -22 108 -19 c 0
 47 1 53 124 49 145 c 0
 43 172 40 209 40 250 c 0
 40 341 54 452 78 525 c 0
 88 556 119 573 147 573 c 0
 154 573 160 572 166 570 c 0
 208 557 217 508 217 466 c 0
 217 447 216 430 214 419 c 0
 208 378 184 313 182 281 c 0
 182 274 181 266 181 257 c 0
 181 185 192 45 192 14 c 0
 192 11 192 9 192 8 c 0
EndSplineSet
Validated: 1
EndChar

StartChar: J
Encoding: 74 74 27
Width: 849
Flags: W
HStem: -94 106<385 498.545> 502 185<732.653 796.674>
VStem: 38 482<402.5 539> 538 133<57.6894 252.773>
LayerCount: 2
Back
Fore
SplineSet
849 599 m 0
 849 578 839 532 814 517 c 0
 812 515 802 517 797 515 c 0
 790 511 786 502 777 502 c 0
 769 502 764 502 755 502 c 0
 722 502 731 559 717 581 c 1
 654 570 520 549 520 529 c 0
 520 520 671 290 671 148 c 0
 671 103 654 -12 590 -48 c 0
 562 -64 493 -90 484 -90 c 0
 477 -90 408 -94 399 -94 c 0
 325 -94 98 1 86 39 c 1
 89 39 92 38 96 42 c 1
 90 53 82 62 68 72 c 1
 72 76 78 70 81 67 c 0
 85 67 87 74 87 77 c 2
 95 70 l 1
 104 72 115 82 117 97 c 0
 120 100 122 101 130 101 c 0
 138 101 144 91 152 91 c 0
 161 91 152 94 161 94 c 0
 169 94 190 77 208 74 c 2
 385 12 l 1
 418 12 419 12 447 12 c 0
 525 12 538 117 538 154 c 0
 538 253 464 361 391 495 c 1
 382 495 l 2
 355 495 216 410 210 407 c 0
 194 398 153 362 146 362 c 0
 137 362 147 365 139 365 c 0
 130 365 134 355 125 355 c 0
 116 355 120 355 111 355 c 0
 89 355 38 390 38 415 c 0
 38 481 215 546 237 557 c 0
 357 618 544 660 631 674 c 0
 669 680 750 687 758 687 c 0
 786 687 849 650 849 599 c 0
EndSplineSet
Validated: 1
EndChar

StartChar: K
Encoding: 75 75 28
Width: 550
Flags: W
HStem: -50 21G<123.5 164.5>
VStem: 19 116<418.136 590.544> 86 122<-21.3867 170.711>
LayerCount: 2
Back
Fore
SplineSet
550 513 m 0xc0
 550 467 368 367 328 336 c 1
 342 292 393 239 431 187 c 0
 449 159 517 84 517 59 c 0
 517 42 498 2 470 2 c 0
 392 2 258 266 229 266 c 0
 221 266 192 249 178 238 c 1
 180 210 208 24 208 15 c 0
 208 -21 178 -50 151 -50 c 0
 96 -50 86 46 86 52 c 0xa0
 84 96 66 231 59 297 c 0
 48 386 19 539 19 547 c 0
 19 555 30 572 33 579 c 0
 41 599 59 601 75 601 c 0
 80 601 85 601 89 601 c 0
 108 601 131 579 135 561 c 0
 147 503 152 441 158 379 c 1
 158 379 156 376 164 376 c 0
 171 376 445 546 459 576 c 0
 463 584 489 588 496 588 c 0
 502 588 527 568 542 558 c 1
 546 545 550 521 550 513 c 0xc0
EndSplineSet
Validated: 1
EndChar

StartChar: L
Encoding: 76 76 29
Width: 525
Flags: W
HStem: -119 93<176.404 321.525> 668 20G<91 107>
VStem: 46 104<13.6185 289> 49 115<289 636.602>
LayerCount: 2
Back
Fore
SplineSet
525 95 m 4xe0
 525 -49 290 -119 216 -119 c 4
 138 -119 62 -79 62 23 c 4
 62 24 62 24 62 25 c 4
 62 35 46 108 46 115 c 6
 46 224 l 6xe0
 46 230 52 263 57 278 c 5
 49 520 l 6
 49 527 32 630 32 637 c 4
 32 675 78 688 104 688 c 4
 110 688 141 666 146 662 c 5
 154 556 164 521 164 432 c 5xd0
 150 146 l 6
 150 98 174 -2 176 -5 c 4
 186 -20 203 -26 230 -26 c 4
 290 -26 390 12 421 79 c 4
 447 137 431 132 451 142 c 5
 454 139 459 136 462 131 c 5
 465 136 474 136 476 142 c 5
 476 139 476 136 479 133 c 6
 479 133 481 136 481 139 c 5
 484 136 485 133 488 130 c 4
 491 130 496 136 498 142 c 5
 503 134 515 133 521 121 c 4
 525 114 525 102 525 95 c 4xe0
EndSplineSet
Validated: 1
EndChar

StartChar: M
Encoding: 77 77 30
Width: 813
Flags: W
HStem: -49 37G<232 283 430.5 512.5> 17 496<604 759>
VStem: 167 154<-18.0316 61>
LayerCount: 2
Back
Fore
SplineSet
813 89 m 4
 813 75 794 17 759 17 c 4
 684 17 604 261 590 285 c 5
 578 256 567 201 558 158 c 4
 557 154 551 -33 474 -33 c 4
 387 -33 381 69 358 135 c 4
 345 172 315 267 291 323 c 5
 287 319 286 324 286 314 c 6
 286 197 l 5
 321 27 l 6
 321 26 321 26 321 25 c 4
 321 4 294 -49 272 -49 c 4
 264 -49 261 -49 251 -49 c 4
 213 -49 172 -12 167 23 c 4
 159 74 152 134 129 197 c 4
 103 271 34 412 34 422 c 4
 34 495 83 478 121 502 c 5
 134 491 162 474 172 474 c 4
 187 474 202 532 217 539 c 4
 235 546 268 548 278 548 c 4
 372 548 447 308 451 296 c 5
 503 400 492 513 604 513 c 4
 626 513 631 495 656 480 c 5
 695 400 732 288 760 210 c 4
 763 200 813 109 813 89 c 4
EndSplineSet
Validated: 1
EndChar

StartChar: N
Encoding: 78 78 31
Width: 716
Flags: W
HStem: 26 606<434 621>
VStem: 541 143<72.946 240.91>
LayerCount: 2
Back
Fore
SplineSet
684 108 m 0
 684 90 664 26 621 26 c 0
 562 26 543 123 541 152 c 0
 531 255 516 392 435 490 c 1
 304 128 382 1 292 1 c 0
 285 1 256 1 246 1 c 0
 239 1 214 27 204 46 c 0
 164 121 119 294 70 414 c 0
 66 423 40 437 29 450 c 0
 21 459 20 483 20 492 c 0
 20 508 47 570 68 570 c 0
 76 570 82 563 91 563 c 0
 100 563 101 566 110 566 c 0
 184 566 202 436 211 412 c 0
 223 379 235 332 248 296 c 1
 295 408 277 566 379 630 c 0
 384 634 393 635 401 635 c 0
 414 635 428 632 434 632 c 0
 479 632 532 576 566 524 c 0
 587 492 626 398 639 350 c 0
 661 270 684 118 684 108 c 0
EndSplineSet
Validated: 1
EndChar

StartChar: O
Encoding: 79 79 32
Width: 561
Flags: MW
HStem: -33 80<194 224 221 244> 476 117<325 332.5>
VStem: 54 93<140 191 140 213.5> 449 99<225.5 290>
LayerCount: 2
Back
Fore
SplineSet
548 266 m 0
 548 124 376 -33 244 -33 c 0
 237 -33 227 -33 221 -33 c 0
 83 -33 54 39 54 150 c 0
 54 277 120 536 265 566 c 1
 278 583 301 593 327 593 c 0
 460 593 548 336 548 266 c 0
449 278 m 0
 449 302 400 421 395 429 c 0
 382 449 367 479 349 488 c 1
 343 485 336 476 329 476 c 0
 321 476 294 482 287 482 c 0
 189 482 147 213 147 169 c 0
 147 111 153 47 235 47 c 0
 356 47 449 173 449 278 c 0
EndSplineSet
Validated: 1
EndChar

StartChar: P
Encoding: 80 80 33
Width: 296
Flags: MW
VStem: 49 81 209 86<384.5 425 365.5 436.5>
LayerCount: 2
Back
Fore
SplineSet
295 403 m 0
 295 328 263 175 180 156 c 1
 193 83 216 -21 216 -86 c 0
 216 -97 199 -143 180 -143 c 0
 70 -143 49 195 49 231 c 2
 34 498 l 1
 34 608 l 2
 34 629 60 651 78 651 c 0
 87 651 107 639 113 635 c 1
 154 675 152 680 189 680 c 0
 287 680 295 447 295 403 c 0
209 407 m 0
 209 466 192 567 178 580 c 1
 143 531 130 475 130 419 c 0
 130 363 155 260 163 246 c 1
 190 266 209 362 209 407 c 0
EndSplineSet
Validated: 1
EndChar

StartChar: Q
Encoding: 81 81 34
Width: 590
Flags: W
HStem: -94 123<165.585 235.166>
VStem: 37 123<29.8081 205.37> 297 134<149 200> 346 110<315.48 407.85>
LayerCount: 2
Back
Fore
SplineSet
590 36 m 4xe0
 590 17 533 -3 528 -3 c 4
 489 -3 423 53 395 68 c 5
 319 -48 272 -94 181 -94 c 4
 138 -94 52 -38 41 20 c 4
 39 36 37 70 37 78 c 4
 37 192 56 234 113 369 c 4
 118 381 161 454 184 500 c 4
 205 542 213 606 266 606 c 4
 292 606 324 586 338 560 c 4
 341 554 343 543 344 531 c 5
 350 528 359 514 370 512 c 4
 446 497 456 428 456 372 c 4xd0
 456 281 431 216 431 200 c 4
 431 170 590 104 590 36 c 4xe0
339 409 m 5
 320 409 l 5
 291 381 262 393 241 339 c 5
 250 339 268 348 278 356 c 5
 296 342 321 332 338 314 c 5
 344 329 346 348 346 366 c 4
 346 383 344 399 339 409 c 5
297 149 m 4xe0
 297 155 233 231 211 275 c 5
 196 248 160 164 160 94 c 4
 160 85 164 50 171 29 c 5
 186 29 204 29 215 33 c 4
 233 40 297 106 297 149 c 4xe0
EndSplineSet
Validated: 1
EndChar

StartChar: R
Encoding: 82 82 35
Width: 517
Flags: W
HStem: -38 21G<148.5 160.5> 580 126<148 291.649>
VStem: 35 154<59.1037 341.02> 38 132<361.496 558.867> 350 137<442.21 542.14>
LayerCount: 2
Back
Fore
SplineSet
513 10 m 0xd8
 503 -12 489 -19 475 -19 c 0
 462 -19 449 -13 440 -9 c 0
 383 17 364 104 294 195 c 0
 269 228 230 262 195 300 c 1
 195 300 194 305 190 296 c 0
 190 295 189 293 189 290 c 0
 189 260 209 129 209 47 c 0
 209 21 207 0 202 -11 c 0
 192 -31 169 -38 152 -38 c 0
 145 -38 139 -37 135 -35 c 0
 127 -32 122 -30 113 -25 c 0
 46 6 35 151 35 263 c 0xe8
 35 320 38 368 38 387 c 0
 38 449 18 577 18 608 c 0
 18 611 19 613 19 614 c 0
 30 637 44 640 73 648 c 1
 83 691 124 706 172 706 c 0
 234 706 308 681 346 664 c 0
 355 660 342 661 352 657 c 0
 361 652 349 667 359 662 c 0
 426 631 487 539 487 454 c 0
 487 432 483 411 474 391 c 0
 457 356 430 320 373 290 c 1
 374 286 517 111 517 30 c 0
 517 23 516 16 513 10 c 0xd8
344 465 m 0
 348 474 350 483 350 492 c 0
 350 525 324 554 296 567 c 0
 286 572 257 580 230 580 c 0
 210 580 192 575 184 560 c 0
 173 536 170 501 170 466 c 0xd8
 170 418 176 371 178 361 c 1
 216 402 313 397 344 465 c 0
EndSplineSet
Validated: 1
EndChar

StartChar: S
Encoding: 83 83 36
Width: 475
Flags: W
HStem: -53 91<78.2964 187.178> 659 20G<356 375.5>
VStem: 34 94<429.781 499.49> 372 103<162.145 229.7>
LayerCount: 2
Back
Fore
SplineSet
475 172 m 0
 475 56 140 -53 113 -53 c 0
 60 -53 55 -15 38 -15 c 1
 31 -17 l 2
 31 -14 28 -15 28 -7 c 0
 28 9 74 44 87 44 c 0
 94 44 87 41 94 41 c 0
 101 41 90 47 97 47 c 0
 103 47 125 38 132 38 c 0
 162 38 372 141 372 200 c 0
 372 306 34 348 34 481 c 0
 34 532 60 533 85 563 c 0
 123 610 190 640 241 657 c 0
 275 670 341 657 371 679 c 1
 380 663 401 644 416 631 c 1
 413 624 402 600 388 600 c 0
 382 600 382 603 375 603 c 0
 368 603 366 591 359 591 c 0
 352 591 350 597 341 597 c 0
 295 597 128 510 128 465 c 0
 128 416 258 372 268 366 c 0
 306 342 475 267 475 172 c 0
EndSplineSet
Validated: 1
EndChar

StartChar: T
Encoding: 84 84 37
Width: 599
Flags: W
HStem: 257 80<314.82 492.472> 263 114<60.0459 205.593> 650 20G<343 351>
VStem: 215 91<355.376 469.076>
LayerCount: 2
Back
Fore
SplineSet
599 269 m 0xb0
 599 256 594 223 571 223 c 0
 543 223 405 257 312 257 c 0xb0
 300 257 299 243 299 235 c 0
 299 232 299 229 299 229 c 0
 299 130 358 45 358 19 c 0
 358 13 341 -2 335 -9 c 1
 316 4 284 20 266 51 c 0
 235 104 223 203 215 252 c 0
 214 257 202 263 197 263 c 0
 190 263 139 260 131 260 c 0
 95 260 31 283 31 345 c 0
 31 353 42 377 57 377 c 0x70
 83 377 157 367 208 355 c 1
 214 363 215 372 215 380 c 0
 215 389 213 397 213 402 c 0
 213 423 257 655 309 655 c 0
 316 655 309 652 316 652 c 0
 323 652 339 670 347 670 c 0
 355 670 361 660 367 657 c 1
 359 646 352 626 352 618 c 0
 352 611 367 587 367 579 c 0
 367 573 306 441 306 366 c 0
 306 354 401 337 409 337 c 0
 453 337 599 318 599 269 c 0xb0
EndSplineSet
Validated: 1
EndChar

StartChar: U
Encoding: 85 85 38
Width: 483
Flags: W
HStem: -55 21G<234.5 394.5>
VStem: 342 141<147.92 436.591>
LayerCount: 2
Back
Fore
SplineSet
483 296 m 4
 483 199 471 -55 318 -55 c 4
 151 -55 25 278 25 352 c 4
 25 406 80 418 117 418 c 4
 126 418 147 407 163 400 c 5
 205 328 201 286 223 224 c 4
 231 199 271 131 293 101 c 5
 303 101 l 5
 330 155 342 237 342 310 c 4
 342 402 316 503 263 546 c 5
 260 546 257 545 254 545 c 4
 233 545 228 555 228 566 c 4
 228 573 230 580 230 585 c 4
 230 646 296 647 334 647 c 4
 419 647 473 402 473 377 c 4
 473 376 l 4
 473 358 483 306 483 296 c 4
EndSplineSet
Validated: 1
EndChar

StartChar: V
Encoding: 86 86 39
Width: 396
Flags: HMW
HStem: 663 20G<299.5 376>
VStem: 28 145
LayerCount: 2
Back
Fore
SplineSet
396 636 m 4
 396 610 380 626 370 587 c 4
 355 527 349 371 349 344 c 6
 349 253 l 6
 349 226 373 67 373 66 c 4
 373 48 333 17 326 17 c 4
 318 17 316 17 307 17 c 4
 199 17 58 363 52 386 c 5
 43 401 28 445 28 452 c 4
 28 460 32 471 32 481 c 5
 42 484 54 488 66 500 c 5
 67 500 l 4
 79 500 125 512 142 512 c 4
 151 512 174 489 174 478 c 4
 174 470 173 462 173 454 c 4
 173 391 204 331 230 275 c 5
 237 293 249 402 249 437 c 6
 249 520 l 6
 249 528 249 537 249 547 c 4
 249 603 257 683 361 683 c 5
 391 683 396 650 396 636 c 4
EndSplineSet
Validated: 1
EndChar

StartChar: W
Encoding: 87 87 40
Width: 620
Flags: W
HStem: -50 21G<432.5 544> 624 14<410 422.007> 675 20G<455.5 465 501 554>
VStem: 496 124<139.329 491.125>
LayerCount: 2
Back
Fore
SplineSet
620 285 m 4
 620 213 618 -50 470 -50 c 4
 395 -50 355 18 321 90 c 5
 312 86 269 48 248 48 c 4
 96 48 71 340 51 388 c 4
 41 414 15 467 15 478 c 4
 15 531 48 533 86 533 c 4
 158 533 182 420 193 374 c 4
 202 331 216 292 231 251 c 5
 267 294 258 383 305 437 c 4
 310 442 329 443 342 443 c 4
 346 443 349 443 351 443 c 4
 359 443 385 432 404 419 c 5
 413 380 414 356 414 332 c 4
 414 326 414 319 414 313 c 4
 414 291 415 266 422 227 c 4
 437 143 417 191 453 93 c 5
 488 130 496 279 496 326 c 4
 496 395 477 598 410 624 c 5
 410 638 l 5
 414 638 421 640 425 644 c 5
 421 648 417 654 414 658 c 6
 414 675 l 6
 417 679 451 695 460 695 c 4
 470 695 485 680 494 680 c 4
 504 680 496 683 506 683 c 4
 602 683 620 304 620 285 c 4
EndSplineSet
Validated: 1
EndChar

StartChar: X
Encoding: 88 88 41
Width: 639
Flags: W
LayerCount: 2
Back
Fore
SplineSet
639 47 m 4
 639 20 599 4 583 4 c 4
 575 4 578 4 570 4 c 4
 549 4 474 111 396 181 c 5
 363 152 325 113 288 68 c 4
 258 31 235 27 229 27 c 4
 221 27 224 31 216 31 c 4
 188 31 152 65 152 108 c 4
 152 113 153 118 154 124 c 5
 212 158 245 214 298 263 c 5
 258 305 27 491 27 529 c 4
 27 563 45 593 87 593 c 4
 94 593 120 590 130 581 c 4
 186 526 275 434 356 362 c 5
 401 424 428 545 487 546 c 6
 501 546 l 5
 504 537 524 526 525 526 c 4
 533 526 531 529 534 529 c 4
 537 499 548 480 548 472 c 4
 548 465 529 434 519 413 c 4
 503 379 458 283 458 282 c 4
 458 271 639 123 639 47 c 4
EndSplineSet
Validated: 1
EndChar

StartChar: Y
Encoding: 89 89 42
Width: 551
Flags: W
HStem: -49 21G<349 377.5> 663 20G<470 506>
VStem: 320 125<-27.5833 183.224> 425 126<450.399 657.428>
LayerCount: 2
Back
Fore
SplineSet
551 608 m 4xd0
 551 479 460 186 446 102 c 4
 445 96 445 91 445 85 c 4
 445 63 450 39 450 15 c 4
 450 11 449 6 449 2 c 4
 448 -24 381 -49 374 -49 c 4
 324 -49 320 21 320 37 c 4xe0
 320 45 327 103 330 133 c 6
 367 296 l 5
 364 298 l 5
 336 298 l 6
 313 298 107 459 53 497 c 4
 50 499 29 537 29 546 c 4
 29 565 74 599 89 599 c 4
 152 599 329 419 359 419 c 4
 367 419 359 422 367 422 c 4
 374 422 385 412 391 408 c 5
 424 494 410 582 425 657 c 5
 438 666 454 683 486 683 c 4
 526 683 551 624 551 608 c 4xd0
EndSplineSet
Validated: 1
EndChar

StartChar: Z
Encoding: 90 90 43
Width: 784
Flags: W
HStem: -42 131<250.001 323.959> 54 134<612.44 730.493> 260 114<113.64 176.5> 497 131<51.6532 221.193> 528 121<230 306.763>
VStem: 114 134<88.0007 152.989>
LayerCount: 2
Back
Fore
SplineSet
784 126 m 0x64
 784 92 694 58 686 58 c 0
 679 58 671 54 664 54 c 0x64
 655 54 621 61 612 61 c 0
 587 61 313 -42 183 -42 c 0
 142 -42 114 -8 114 28 c 0
 114 100 152 209 166 241 c 1
 158 249 140 260 131 260 c 0
 123 260 126 260 123 257 c 1
 115 272 87 280 87 321 c 0
 87 363 152 374 173 374 c 0
 180 374 205 363 212 363 c 0
 220 363 221 360 229 360 c 0
 247 360 286 480 307 517 c 1
 307 526 l 1
 302 528 293 528 285 528 c 0
 279 528 274 528 271 528 c 0xac
 262 528 247 522 230 522 c 1
 223 515 l 1
 185 511 111 497 102 497 c 0
 47 497 28 549 28 580 c 0
 28 620 53 605 81 628 c 1
 91 628 l 2x34
 251 628 158 649 384 649 c 0
 421 649 458 612 458 571 c 0
 458 534 387 382 380 356 c 1
 396 358 412 360 424 368 c 0
 440 377 463 401 472 401 c 0
 479 401 485 394 504 394 c 0
 508 394 557 383 557 358 c 0
 557 264 425 236 360 236 c 0
 352 236 328 240 320 240 c 0
 286 240 248 120 248 111 c 2
 248 91 l 1
 250 89 250 88 250 88 c 0
 250 88 251 89 255 89 c 0xac
 335 89 600 188 729 188 c 0
 761 188 784 153 784 126 c 0x64
EndSplineSet
Validated: 1
EndChar

StartChar: a
Encoding: 97 97 44
Width: 486
Flags: HMW
LayerCount: 2
Back
Fore
SplineSet
463 302 m 0
 461 289.333333333 455 273.333333333 445 254 c 1
 446 231 l 2
 446 235 446 227 446 207 c 0
 446 185.666666667 446.833333333 161 448.5 133 c 128
 450.166666667 105 451 90.6666666667 451 90 c 0
 451 85 451 85 451 75 c 0
 451.666666667 68.3333333333 452 63 452 59 c 0
 452 40.3333333333 448 26.1666666667 440 16.5 c 128
 432 6.83333333333 418 2 398 2 c 0
 376 2 361.666666667 9.66666666667 355 25 c 0
 353 29 346.666666667 35.3333333333 336 44 c 0
 328.666666667 50.6666666667 325 61 325 75 c 2
 325 75 325 75 325 76 c 1
 295 42.6666666667 264 26 232 26 c 0
 124 26 70 95 70 233 c 0
 70 292.333333333 91.3333333333 342 134 382 c 0
 175.333333333 419.333333333 221.666666667 438 273 438 c 0
 279.666666667 438 287 436.666666667 295 434 c 0
 300.333333333 432 305.666666667 430.666666667 311 430 c 0
 315 430 318 431.666666667 320 435 c 0
 311.333333333 483 273.333333333 518 206 540 c 1
 192 540 163.666666667 524.833333333 121 494.5 c 128
 78.3333333333 464.166666667 52.6666666667 449 44 449 c 0
 39.3333333333 450.333333333 31.3333333333 454.666666667 20 462 c 128
 8.66666666667 469.333333333 3 476.333333333 3 483 c 0
 5.66666666667 495 14.3333333333 516 29 546 c 1
 73 614.666666667 135.333333333 649 216 649 c 0
 301.333333333 649 363.666666667 620 403 562 c 0
 437.666666667 511.333333333 455 452 455 384 c 0
 455 380 454.666666667 374 454 366 c 0
 454 353 454 353 454 346 c 0
 454 342 455.5 334 458.5 322 c 128
 461.5 310 463 303.333333333 463 302 c 0
317 292 m 1
 291 301.333333333 270.666666667 311.333333333 256 322 c 1
 256 322 l 1
 256 322 l 1
 256 322 256 322 255 322 c 0
 233.666666667 322 216 308.666666667 202 282 c 0
 191.333333333 261.333333333 186 240.666666667 186 220 c 0
 186 200 191.666666667 178.333333333 203 155 c 1
 215.666666667 161.666666667 228.5 168.833333333 241.5 176.5 c 128
 254.5 184.166666667 264.666666667 194.666666667 272 208 c 0
 282.666666667 228 297.666666667 256 317 292 c 1
EndSplineSet
EndChar

StartChar: b
Encoding: 98 98 45
Width: 541
Flags: HMW
LayerCount: 2
Back
Fore
SplineSet
517 262 m 0
 517 229.333333333 502 188.333333333 472 139 c 0
 466 129.666666667 444.333333333 97.3333333333 407 42 c 1
 348.333333333 -8.66666666667 308.666666667 -34 288 -34 c 0
 286 -34 286 -34 283 -34 c 2
 271 -31 l 2
 261 -28.3333333333 249.666666667 -19.3333333333 237 -4 c 0
 230.333333333 4 224 11.6666666667 218 19 c 0
 218.666666667 21.6666666667 220.333333333 23 223 23 c 0
 224 23 224 23 225 23 c 1
 225 27 225 27 225 31 c 0
 225 59.6666666667 222.333333333 92.3333333333 217 129 c 0
 214.333333333 147 215.333333333 170.5 220 199.5 c 128
 224.666666667 228.5 226 247.333333333 224 256 c 0
 220.666666667 270.666666667 208 278 186 278 c 0
 184 278 184 278 181.5 278 c 128
 179 278 179 278 177 278 c 128
 175 278 175 278 174 278 c 0
 164 280.666666667 144.666666667 293 116 315 c 1
 118.666666667 321.666666667 120 328.333333333 120 335 c 0
 120 339.666666667 119.333333333 344.333333333 118 349 c 1
 125.333333333 350.333333333 138.666666667 359.833333333 158 377.5 c 128
 177.333333333 395.166666667 188 408.333333333 190 417 c 0
 190 420 190 420 190 427 c 0
 190 441.666666667 185.666666667 489 177 569 c 0
 176.333333333 569 154.666666667 563.333333333 112 552 c 0
 94 547.333333333 78.3333333333 545 65 545 c 0
 57 545 50 545.666666667 44 547 c 0
 40.6666666667 547.666666667 33.6666666667 553 23 563 c 128
 12.3333333333 573 5.66666666667 580.333333333 3 585 c 0
 3.66666666667 587.666666667 6 594.333333333 10 605 c 1
 8 605.666666667 5.33333333333 607.333333333 2 610 c 1
 16 616 42.8333333333 622.833333333 82.5 630.5 c 128
 122.166666667 638.166666667 145.333333333 643.333333333 152 646 c 0
 172 654 183.333333333 667.666666667 186 687 c 1
 192.666666667 685.666666667 203 683.333333333 217 680 c 0
 218.333333333 680 223.166666667 680.5 231.5 681.5 c 128
 239.833333333 682.5 245.333333333 683 248 683 c 0
 252.666666667 683 257 680.833333333 261 676.5 c 128
 265 672.166666667 268.333333333 669.666666667 271 669 c 0
 293.666666667 669.666666667 312 670 326 670 c 0
 344 670 355.666666667 669.333333333 361 668 c 0
 422.333333333 652.666666667 453 631 453 603 c 0
 453 599 452.666666667 595.333333333 452 592 c 0
 448 576.666666667 421 541 371 485 c 2
 283 389 l 1
 285.666666667 385 289.333333333 383 294 383 c 0
 298 383 304 383.333333333 312 384 c 0
 324 388.666666667 337.666666667 393.666666667 353 399 c 0
 363.666666667 401 373.333333333 402 382 402 c 0
 404.666666667 402 430 394 458 378 c 0
 478 366.666666667 494.666666667 343.666666667 508 309 c 0
 514 293 517 277.333333333 517 262 c 0
328 594 m 1
 321.333333333 595.333333333 315 596 309 596 c 0
 307.666666667 596 303.5 597 296.5 599 c 128
 289.5 601 284.333333333 601.333333333 281 600 c 0
 277 598 275 592.333333333 275 583 c 0
 275 579 275.666666667 571.833333333 277 561.5 c 128
 278.333333333 551.166666667 279 544.333333333 279 541 c 0
 279 539.666666667 278.666666667 538.333333333 278 537 c 2
 328 594 l 1
414 296 m 1
 414 295.333333333 411.333333333 297.333333333 406 302 c 128
 400.666666667 306.666666667 388 309 368 309 c 0
 357 309 357 309 343 309 c 0
 320.333333333 308.333333333 304.666666667 305.333333333 296 300 c 1
 294 292 l 2
 293.333333333 290 293 286.666666667 293 282 c 0
 293 266.666666667 295.666666667 238.666666667 301 198 c 0
 308.333333333 142 313 108.666666667 315 98 c 1
 329.666666667 112.666666667 348 138.666666667 370 176 c 0
 399.333333333 226.666666667 414 266.666666667 414 296 c 1
EndSplineSet
EndChar

StartChar: c
Encoding: 99 99 46
Width: 467
Flags: HMW
LayerCount: 2
Back
Fore
SplineSet
449 104 m 0
 449 84.6666666667 435 64.3333333333 407 43 c 0
 388.333333333 29 362.666666667 19.3333333333 330 14 c 0
 309.333333333 10.6666666667 289.666666667 9 271 9 c 0
 208.333333333 9 155.666666667 27.3333333333 113 64 c 0
 83.6666666667 89.3333333333 62.6666666667 116.833333333 50 146.5 c 128
 37.3333333333 176.166666667 31 214.666666667 31 262 c 0
 31 333.333333333 45.6666666667 403.333333333 75 472 c 0
 116.333333333 568.666666667 176.666666667 617 256 617 c 0
 285.333333333 617 314.333333333 605.333333333 343 582 c 128
 371.666666667 558.666666667 388 532 392 502 c 1
 384.666666667 498.666666667 368.333333333 481 343 449 c 1
 333 451.666666667 313.666666667 459 285 471 c 0
 262.333333333 480.333333333 248 485 242 485 c 0
 216.666666667 485 196.666666667 451.333333333 182 384 c 0
 170 328 164 291.333333333 164 274 c 0
 164 237.333333333 172.333333333 206.666666667 189 182 c 128
 205.666666667 157.333333333 227.666666667 145 255 145 c 0
 261 145 271.833333333 145.833333333 287.5 147.5 c 128
 303.166666667 149.166666667 316 150 326 150 c 0
 328 150 337.166666667 151.333333333 353.5 154 c 128
 369.833333333 156.666666667 379 158 381 158 c 0
 390.333333333 158 403 153.333333333 419 144 c 0
 439 132.666666667 449 119.333333333 449 104 c 0
EndSplineSet
EndChar

StartChar: d
Encoding: 100 100 47
Width: 475
Flags: HMW
LayerCount: 2
Back
Fore
SplineSet
453 356 m 0
 453 318.666666667 427.666666667 267.333333333 377 202 c 0
 333 144.666666667 283.5 93 228.5 47 c 128
 173.5 1 133.333333333 -22 108 -22 c 0
 105.333333333 -22 100.333333333 -20.6666666667 93 -18 c 0
 71 -11.3333333333 60 -1 60 13 c 0
 60 23 66.3333333333 35 79 49 c 0
 99 71 124 93 154 115 c 0
 190 141.666666667 210 156.666666667 214 160 c 0
 266.666666667 208 304 255.333333333 326 302 c 2
 348 348 l 2
 348 349 348 349 348 350 c 0
 348 387.333333333 283 429.333333333 153 476 c 1
 151 472 150 458.666666667 150 436 c 0
 150 419.333333333 150.666666667 398 152 372 c 0
 153.333333333 340.666666667 158 315.333333333 166 296 c 0
 167.333333333 296 168.666666667 297.333333333 170 300 c 1
 176 291.333333333 179 279.333333333 179 264 c 0
 179 259.333333333 178.166666667 251.166666667 176.5 239.5 c 128
 174.833333333 227.833333333 173.666666667 219.333333333 173 214 c 1
 152.333333333 202 141.333333333 195.666666667 140 195 c 0
 130.666666667 191 120 189 108 189 c 0
 95.3333333333 189 83.3333333333 204 72 234 c 0
 60 266.666666667 48.6666666667 339.333333333 38 452 c 0
 36 471.333333333 35 485 35 493 c 0
 35 499 36.6666666667 505.666666667 40 513 c 0
 42 517.666666667 43 521.333333333 43 524 c 0
 43 527.333333333 39.6666666667 533.333333333 33 542 c 0
 29 547.333333333 27 553.666666667 27 561 c 0
 27 573 31.5 585.333333333 40.5 598 c 128
 49.5 610.666666667 59.6666666667 617 71 617 c 0
 97.6666666667 617 157.333333333 593.666666667 250 547 c 0
 354.666666667 493.666666667 413 458.666666667 425 442 c 0
 443.666666667 416 453 387.333333333 453 356 c 0
EndSplineSet
EndChar

StartChar: e
Encoding: 101 101 48
Width: 513
Flags: HMW
LayerCount: 2
Back
Fore
SplineSet
520 202 m 0
 520 188 515.666666667 169.333333333 507 146 c 0
 477.666666667 68 421.333333333 20 338 2 c 0
 317.333333333 -2 297.666666667 -4 279 -4 c 0
 221.666666667 -4 170.666666667 15.6666666667 126 55 c 0
 72 103 39.3333333333 168 28 250 c 1
 22 262 15.6666666667 276 9 292 c 0
 7 299.333333333 6 306 6 312 c 0
 6 324 9.33333333333 334 16 342 c 2
 45 364 l 1
 95.6666666667 520 140.333333333 602.333333333 179 611 c 0
 195 614.333333333 210 616 224 616 c 0
 308 616 362.666666667 557.333333333 388 440 c 0
 390.666666667 426.666666667 392 413.666666667 392 401 c 0
 392 362.333333333 379.333333333 325.333333333 354 290 c 0
 320.666666667 243.333333333 277.333333333 214.333333333 224 203 c 0
 221 203 221 203 217 203 c 128
 213 203 213 203 204 203 c 0
 198.666666667 203.666666667 195 204 193 204 c 0
 186.333333333 204 182.333333333 201.666666667 181 197 c 1
 207.666666667 137.666666667 246 108 296 108 c 0
 306 108 317 109.166666667 329 111.5 c 128
 341 113.833333333 365 135.666666667 401 177 c 0
 435.666666667 216.333333333 459.666666667 236 473 236 c 0
 479.666666667 236 488.666666667 233.333333333 500 228 c 128
 511.333333333 222.666666667 517.666666667 217.333333333 519 212 c 0
 519.666666667 209.333333333 520 206 520 202 c 0
269 408 m 0
 269 437.333333333 257.666666667 465.666666667 235 493 c 1
 213.666666667 470.333333333 198 441.666666667 188 407 c 0
 183.333333333 389 176.666666667 362.333333333 168 327 c 1
 200.666666667 323 217.666666667 320.666666667 219 320 c 1
 219 320 l 1
 241 324.666666667 256 341.666666667 264 371 c 0
 267.333333333 383.666666667 269 396 269 408 c 0
EndSplineSet
EndChar

StartChar: f
Encoding: 102 102 49
Width: 702
Flags: HMW
LayerCount: 2
Back
Fore
SplineSet
687 635 m 0
 687 633.666666667 684 623.333333333 678 604 c 0
 674.666666667 594 671 588.5 667 587.5 c 128
 663 586.5 658.666666667 585.666666667 654 585 c 128
 649.333333333 584.333333333 646 584 644 584 c 0
 623.333333333 584 607 589.5 595 600.5 c 128
 577 617 577 617 553 639 c 1
 540.333333333 646.333333333 523.333333333 652.666666667 502 658 c 0
 492 660.666666667 481.333333333 662 470 662 c 0
 427.333333333 662 391.666666667 642.333333333 363 603 c 0
 339 570.333333333 318 526 300 470 c 2
 263 355 l 1
 283 349.666666667 305.666666667 347 331 347 c 0
 334.333333333 347 343.666666667 348 359 350 c 128
 374.333333333 352 384.666666667 353 390 353 c 0
 401.333333333 353 411 351 419 347 c 1
 426 356 l 1
 430 352 433.333333333 350 436 350 c 0
 442 350 452.666666667 350.666666667 468 352 c 128
 483.333333333 353.333333333 493 354 497 354 c 0
 520.333333333 354 543 341 565 315 c 0
 565.666666667 313 566 309 566 303 c 0
 566 259 540.333333333 237 489 237 c 0
 479 237 468.333333333 238 457 240 c 0
 427 242 387.333333333 243 338 243 c 0
 313.333333333 243 286 242.666666667 256 242 c 0
 254.666666667 240.666666667 254 237 254 231 c 0
 254 190.333333333 262.666666667 148.666666667 280 106 c 0
 304.666666667 46 339 9.33333333333 383 -4 c 1
 387 -12 392.333333333 -20.6666666667 399 -30 c 0
 402.333333333 -34.6666666667 404 -41.3333333333 404 -50 c 0
 404 -57.3333333333 398.333333333 -66 387 -76 c 128
 375.666666667 -86 366.333333333 -91 359 -91 c 0
 357.666666667 -91 352.666666667 -91.3333333333 344 -92 c 128
 335.333333333 -92.6666666667 330 -93 328 -93 c 0
 284.666666667 -93 243.333333333 -56.6666666667 204 16 c 0
 170.666666667 77.3333333333 152.333333333 118.333333333 149 139 c 0
 143 178.333333333 140 205.666666667 140 221 c 0
 140 231.666666667 141 241.333333333 143 250 c 1
 127 254 102.666666667 260.666666667 70 270 c 0
 28.6666666667 282.666666667 8 303.333333333 8 332 c 0
 8 346 12.3333333333 358 21 368 c 128
 29.6666666667 378 39.6666666667 383 51 383 c 0
 64.3333333333 383 75.6666666667 381.333333333 85 378 c 0
 99.6666666667 373.333333333 121.333333333 366 150 356 c 1
 158 388.666666667 171.333333333 438.333333333 190 505 c 1
 214.666666667 581 242.333333333 638.666666667 273 678 c 0
 315 732.666666667 369.333333333 760 436 760 c 0
 477.333333333 760 521.333333333 752 568 736 c 0
 647.333333333 708.666666667 687 675 687 635 c 0
EndSplineSet
EndChar

StartChar: g
Encoding: 103 103 50
Width: 502
Flags: HMW
LayerCount: 2
Back
Fore
SplineSet
470 336 m 0
 470 277.333333333 465 222.166666667 455 170.5 c 128
 445 118.833333333 440 86.6666666667 440 74 c 0
 440 69.3333333333 441.833333333 60.5 445.5 47.5 c 128
 449.166666667 34.5 451 27.6666666667 451 27 c 0
 447 17.6666666667 438 4.33333333333 424 -13 c 1
 411.333333333 -23 398.333333333 -28 385 -28 c 0
 353.666666667 -28 338 -3.66666666667 338 45 c 0
 338 54.3333333333 339.666666667 81.3333333333 343 126 c 1
 329 100 307.833333333 79.3333333333 279.5 64 c 128
 251.166666667 48.6666666667 222.666666667 41 194 41 c 0
 168 41 141.666666667 50.6666666667 115 70 c 0
 99 81.3333333333 87.6666666667 90.6666666667 81 98 c 0
 48.3333333333 135.333333333 28.3333333333 185 21 247 c 0
 19 267.666666667 18 288 18 308 c 0
 18 399.333333333 43.3333333333 486.333333333 94 569 c 0
 138 640.333333333 189 680 247 688 c 0
 259 690 271.666666667 691 285 691 c 0
 307.666666667 691 332.333333333 688.666666667 359 684 c 0
 375 680.666666667 389 672.833333333 401 660.5 c 128
 413 648.166666667 419 634.333333333 419 619 c 0
 419 602.333333333 409.333333333 590.666666667 390 584 c 0
 379.333333333 580 370.666666667 578 364 578 c 0
 360.666666667 578 354.666666667 579.666666667 346 583 c 128
 337.333333333 586.333333333 332 588 330 588 c 0
 322 589.333333333 314 590 306 590 c 0
 258.666666667 590 217.666666667 563.333333333 183 510 c 0
 145.666666667 450 127 398 127 354 c 0
 127 348 129 341 133 333 c 1
 170.333333333 361 212.333333333 382 259 396 c 0
 286.333333333 405.333333333 327.333333333 418.333333333 382 435 c 0
 385 435 385 435 389 435 c 0
 397.666666667 435 410.666666667 433.666666667 428 431 c 0
 436.666666667 429.666666667 446.666666667 412.666666667 458 380 c 0
 466 356.666666667 470 342 470 336 c 0
364 281 m 0
 364 305 360 318.333333333 352 321 c 0
 350.666666667 321 320.666666667 308.666666667 262 284 c 0
 223.333333333 268 200 260 192 260 c 2
 192 260 192 260 190 260 c 0
 189.333333333 260.666666667 188.666666667 261 188 261 c 0
 186.666666667 261 183.666666667 260.666666667 179 260 c 0
 172 260 172 260 170 260 c 0
 161.333333333 260 153.5 263.833333333 146.5 271.5 c 128
 139.5 279.166666667 133 286.666666667 127 294 c 1
 125 280 l 2
 124.333333333 278.666666667 124 276.666666667 124 274 c 0
 124 259.333333333 131.333333333 234.666666667 146 200 c 0
 165.333333333 154.666666667 183.666666667 132 201 132 c 0
 212.333333333 132 226.833333333 139.833333333 244.5 155.5 c 128
 262.166666667 171.166666667 274.333333333 185.666666667 281 199 c 0
 284.333333333 206.333333333 286 220 286 240 c 0
 286 245 286 245 286 251 c 0
 300 269 310.333333333 278 317 278 c 0
 319.666666667 278 325.333333333 274.666666667 334 268 c 128
 342.666666667 261.333333333 347.666666667 258 349 258 c 2
 361 256 l 1
 363 266 l 2
 363.666666667 271.333333333 364 276.333333333 364 281 c 0
EndSplineSet
EndChar

StartChar: h
Encoding: 104 104 51
Width: 443
Flags: HMW
LayerCount: 2
Back
Fore
SplineSet
428 6 m 0
 428 -4 422.166666667 -13.3333333333 410.5 -22 c 128
 398.833333333 -30.6666666667 387.666666667 -35 377 -35 c 0
 344.333333333 -35 318.333333333 -6.33333333333 299 51 c 0
 294.333333333 65 283.333333333 101 266 159 c 1
 256 153 248.333333333 142.333333333 243 127 c 0
 237 109.666666667 231.333333333 92.3333333333 226 75 c 0
 208.666666667 33.6666666667 194.333333333 5 183 -11 c 0
 164.333333333 -37 142.666666667 -50 118 -50 c 0
 87.3333333333 -50 64.6666666667 -37 50 -11 c 0
 36.6666666667 11.6666666667 26.6666666667 39.6666666667 20 73 c 0
 21.3333333333 73.6666666667 22 80.6666666667 22 94 c 0
 22 106.666666667 21.3333333333 125.666666667 20 151 c 1
 23.3333333333 211.666666667 37 285.333333333 61 372 c 0
 80.3333333333 438 101.333333333 511.666666667 124 593 c 1
 94 576 l 2
 96 577.333333333 97.6666666667 578.333333333 99 579 c 1
 99 579 l 1
 99 579 99 579 98 579 c 0
 74 587 62 601.333333333 62 622 c 0
 62 637.333333333 68 653.5 80 670.5 c 128
 92 687.5 106.666666667 700.666666667 124 710 c 2
 192 745 l 1
 214 739.666666667 229.166666667 732.833333333 237.5 724.5 c 128
 245.833333333 716.166666667 250 703 250 685 c 1
 250 690.333333333 227 611 181 447 c 128
 135 283 112 178 112 132 c 1
 112 132 112 132 114.5 111 c 128
 116.166666667 97 117 87.3333333333 117 82 c 1
 117 82 l 1
 117.666666667 80.6666666667 119.333333333 78.6666666667 122 76 c 1
 139.333333333 100 151 118.666666667 157 132 c 0
 159.666666667 140.666666667 164.5 153.833333333 171.5 171.5 c 128
 178.5 189.166666667 190 215.666666667 206 251 c 0
 229.333333333 299 250 323 268 323 c 0
 300.666666667 323 319 319.666666667 323 313 c 0
 333.666666667 296.333333333 343.333333333 270 352 234 c 0
 360 195.333333333 373 142.333333333 391 75 c 0
 391.666666667 72.3333333333 398 61.1666666667 410 41.5 c 128
 422 21.8333333333 428 10 428 6 c 0
EndSplineSet
EndChar

StartChar: i
Encoding: 105 105 52
Width: 249
Flags: HMW
LayerCount: 2
Back
Fore
SplineSet
217 491 m 0
 217 475.666666667 216 460 214 444 c 0
 204 408.666666667 193.333333333 362.666666667 182 306 c 0
 182 298 182 298 182 287 c 0
 182 265 183.666666667 218.833333333 187 148.5 c 128
 190.333333333 78.1666666667 192 40.6666666667 192 36 c 0
 192 34 192 34 192 33 c 0
 185.333333333 12.3333333333 167.666666667 2 139 2 c 0
 126.333333333 2 116 3.33333333333 108 6 c 0
 82.6666666667 14 65.6666666667 41.3333333333 57 88 c 1
 49 170 l 1
 43 196 40 230.333333333 40 273 c 0
 40 381 52.6666666667 473.333333333 78 550 c 0
 88.6666666667 582 112 598 148 598 c 0
 169.333333333 598 186.166666667 588.333333333 198.5 569 c 128
 210.833333333 549.666666667 217 523.666666667 217 491 c 0
EndSplineSet
EndChar

StartChar: j
Encoding: 106 106 53
Width: 819
Flags: HMW
LayerCount: 2
Back
Fore
SplineSet
833 624 m 0
 833 608.666666667 829.666666667 592.666666667 823 576 c 128
 816.333333333 559.333333333 808 548 798 542 c 0
 794 542 788.333333333 541.333333333 781 540 c 1
 772.333333333 531.333333333 765.666666667 527 761 527 c 2
 739 527 l 2
 726.333333333 527 717.666666667 537.333333333 713 558 c 0
 707 586 703 602 701 606 c 1
 571 582.666666667 506 566.666666667 506 558 c 1
 510 550 523 526.333333333 545 487 c 0
 619.666666667 351.666666667 657 248.333333333 657 177 c 0
 657 143 651.666666667 109 641 75 c 0
 625.666666667 26.3333333333 603.333333333 -6.33333333333 574 -23 c 0
 560.666666667 -30.3333333333 540.833333333 -39.1666666667 514.5 -49.5 c 128
 488.166666667 -59.8333333333 472.666666667 -65 468 -65 c 0
 466.666666667 -65 452.833333333 -65.6666666667 426.5 -67 c 128
 400.166666667 -68.3333333333 385.666666667 -69 383 -69 c 0
 345.666666667 -69 285.666666667 -51.5 203 -16.5 c 128
 120.333333333 18.5 76 45.3333333333 70 64 c 1
 74.6666666667 64 78 65 80 67 c 1
 74 77.6666666667 64.6666666667 87.6666666667 52 97 c 1
 52.6666666667 97.6666666667 53.6666666667 98 55 98 c 0
 57.6666666667 98 61 96 65 92 c 1
 69 92 71 95.3333333333 71 102 c 1
 79 95 l 1
 82.3333333333 95.6666666667 86.3333333333 100 91 108 c 0
 93.6666666667 114 97.6666666667 120.666666667 103 128 c 0
 105 129.333333333 108.666666667 130 114 130 c 0
 116 130 119.666666667 128.333333333 125 125 c 128
 130.333333333 121.666666667 134 120 136 120 c 256
 138 120 139.5 120.5 140.5 121.5 c 128
 141.5 122.5 143 123 145 123 c 256
 147 123 154.333333333 119.833333333 167 113.5 c 128
 179.666666667 107.166666667 188 103.666666667 192 103 c 2
 369 41 l 1
 431 41 l 2
 466.333333333 41 491.333333333 58.6666666667 506 94 c 0
 516.666666667 119.333333333 522 147.666666667 522 179 c 0
 522 225 506.666666667 277.333333333 476 336 c 0
 453.333333333 376.666666667 419.666666667 438 375 520 c 1
 366 520 l 2
 353.333333333 520 296 490.666666667 194 432 c 0
 190 430 178.333333333 421.333333333 159 406 c 0
 143 393.333333333 133.333333333 387 130 387 c 0
 127.333333333 387 126 387.333333333 126 388 c 2
 126 389 l 1
 126 389 l 1
 126 389.666666667 125 390 123 390 c 0
 120.333333333 390 117.666666667 388.333333333 115 385 c 128
 112.333333333 381.666666667 110.333333333 380 109 380 c 2
 95 380 l 2
 82.3333333333 380 67 387.166666667 49 401.5 c 128
 31 415.833333333 22 428.666666667 22 440 c 0
 22 469.333333333 52.3333333333 500 113 532 c 0
 137 542.666666667 173 559.333333333 221 582 c 0
 278.333333333 610 348.333333333 635.333333333 431 658 c 0
 562.333333333 694 666 712 742 712 c 0
 761.333333333 712 781.333333333 702.666666667 802 684 c 128
 822.666666667 665.333333333 833 645.333333333 833 624 c 0
EndSplineSet
EndChar

StartChar: k
Encoding: 107 107 54
Width: 550
Flags: HMW
LayerCount: 2
Back
Fore
SplineSet
550 526 m 0
 550 506.666666667 518 475.333333333 454 432 c 0
 430.666666667 416 388.666666667 388.333333333 328 349 c 1
 331.333333333 338.333333333 346.666666667 315.333333333 374 280 c 2
 485 137 l 2
 506.333333333 109 517 87.3333333333 517 72 c 0
 517 60 512 47.5 502 34.5 c 128
 492 21.5 481.333333333 15 470 15 c 0
 446.666666667 15 416.333333333 37.6666666667 379 83 c 0
 363.666666667 101.666666667 333 144 287 210 c 0
 255 256 235.666666667 279 229 279 c 0
 218.333333333 279 201.333333333 269.666666667 178 251 c 1
 180.666666667 234.333333333 186.666666667 194.666666667 196 132 c 0
 205.333333333 66.6666666667 210 32 210 28 c 0
 210 11.3333333333 203.833333333 -3.66666666667 191.5 -17 c 128
 179.166666667 -30.3333333333 165.666666667 -37 151 -37 c 0
 125.666666667 -37 106.666666667 -20.6666666667 94 12 c 0
 88.6666666667 26.6666666667 84.6666666667 44.3333333333 82 65 c 0
 72 161.666666667 63 243.333333333 55 310 c 0
 51.6666666667 339.333333333 43.6666666667 391 31 465 c 2
 15 560 l 1
 15 560 15 560 15 560 c 1
 17.6666666667 563.333333333 22.3333333333 574 29 592 c 0
 34.3333333333 606.666666667 54.3333333333 614 89 614 c 0
 98.3333333333 614 107.833333333 609.666666667 117.5 601 c 128
 127.166666667 592.333333333 133 583.333333333 135 574 c 0
 141 545.333333333 148.666666667 484.666666667 158 392 c 0
 158 391 158 391 158 391 c 2
 158.666666667 389.666666667 160.666666667 389 164 389 c 0
 169.333333333 389 217.666666667 418.666666667 309 478 c 0
 403 539.333333333 453 576.333333333 459 589 c 0
 463 597 475.333333333 601 496 601 c 1
 501.333333333 598.333333333 516.666666667 588.333333333 542 571 c 1
 547.333333333 555.666666667 550 540.666666667 550 526 c 0
EndSplineSet
EndChar

StartChar: l
Encoding: 108 108 55
Width: 525
Flags: HMW
LayerCount: 2
Back
Fore
SplineSet
519 158 m 0
 519 104.666666667 483.666666667 56.6666666667 413 14 c 0
 348.333333333 -24.6666666667 282.666666667 -44 216 -44 c 0
 154 -44 112.333333333 -35.3333333333 91 -18 c 0
 62.3333333333 5.33333333333 48 41.6666666667 48 91 c 0
 48 92 48 92 48 94 c 1
 48 92 46.3333333333 99.5 43 116.5 c 128
 39.6666666667 133.5 38 152.333333333 38 173 c 0
 38 193 40 223.666666667 44 265 c 0
 48 309 50.3333333333 336.333333333 51 347 c 0
 52.3333333333 393 53 425.666666667 53 445 c 0
 53 477 47 534 35 616 c 0
 29 652.666666667 26 672 26 674 c 0
 26 689.333333333 33.1666666667 701.666666667 47.5 711 c 128
 61.8333333333 720.333333333 78.6666666667 725 98 725 c 0
 116.666666667 725 131.333333333 716.333333333 142 699 c 0
 145.333333333 693.666666667 147.666666667 679.666666667 149 657 c 0
 151 618.333333333 152.666666667 592 154 578 c 0
 158 537.333333333 160 507 160 487 c 0
 160 442.333333333 158.5 395 155.5 345 c 128
 152.5 295 151 263 151 249 c 0
 151 215.666666667 152.666666667 175 156 127 c 0
 158.666666667 92.3333333333 162 72 166 66 c 128
 170 60 178.666666667 57 192 57 c 0
 195.333333333 57 201.333333333 57.3333333333 210 58 c 128
 218.666666667 58.6666666667 225.333333333 59 230 59 c 2
 242 59 l 2
 277.333333333 59 306.666666667 64.6666666667 330 76 c 0
 375.333333333 98 403.666666667 122 415 148 c 0
 419 157.333333333 424.666666667 172 432 192 c 0
 433.333333333 196.666666667 437.666666667 201 445 205 c 1
 447.666666667 203 451.333333333 199.333333333 456 194 c 1
 460 196.666666667 464.666666667 200.333333333 470 205 c 1
 470 201 471 198 473 196 c 1
 474.333333333 198 475 200 475 202 c 1
 476.333333333 200.666666667 479 197.666666667 483 193 c 0
 485 193 488 197 492 205 c 1
 498 201.666666667 505.666666667 194.666666667 515 184 c 0
 517.666666667 179.333333333 519 170.666666667 519 158 c 0
EndSplineSet
EndChar

StartChar: m
Encoding: 109 109 56
Width: 798
Flags: HMW
LayerCount: 2
Back
Fore
SplineSet
773 52 m 0
 773 38 766.666666667 23 754 7 c 128
 741.333333333 -9 728.666666667 -17 716 -17 c 0
 683.333333333 -17 650 27 616 115 c 0
 612.666666667 123.666666667 595.333333333 172.666666667 564 262 c 1
 557.333333333 248 544 206.666666667 524 138 c 1
 514 73.3333333333 501.166666667 26.3333333333 485.5 -3 c 128
 469.833333333 -32.3333333333 451.333333333 -47 430 -47 c 0
 392 -47 365 -25.6666666667 349 17 c 1
 322 129 l 2
 314 163 296.333333333 227 269 321 c 1
 265 317.666666667 263 314.666666667 263 312 c 2
 255 195 l 1
 278 23 l 2
 278 22 278 22 278 21 c 0
 278 9.66666666667 271.666666667 -4.83333333333 259 -22.5 c 128
 246.333333333 -40.1666666667 235 -49 225 -49 c 0
 224 -49 224 -49 224 -49 c 1
 203 -48 l 2
 184.333333333 -46.6666666667 166.833333333 -37.8333333333 150.5 -21.5 c 128
 134.166666667 -5.16666666667 125.333333333 12 124 30 c 0
 120.666666667 72 118.333333333 99.6666666667 117 113 c 0
 109.666666667 168.333333333 87.6666666667 246.333333333 51 347 c 0
 29.6666666667 405 19 435 19 437 c 0
 21.6666666667 447 24.6666666667 455.333333333 28 462 c 0
 36 479.333333333 44 489.333333333 52 492 c 0
 72 498.666666667 92 505 112 511 c 1
 124.666666667 498.333333333 141 488 161 480 c 0
 165 480 173.5 490 186.5 510 c 128
 199.5 530 207.333333333 540.333333333 210 541 c 0
 221.333333333 545 235.333333333 547 252 547 c 0
 258 547 264.333333333 546.666666667 271 546 c 0
 310.333333333 543.333333333 347.666666667 500.333333333 383 417 c 0
 400.333333333 375.666666667 414.666666667 331 426 283 c 1
 438 303 453.333333333 336.333333333 472 383 c 0
 488 425 504 453.166666667 520 467.5 c 128
 536 481.833333333 557.333333333 489 584 489 c 0
 598.666666667 489 610 484.666666667 618 476 c 0
 630.666666667 463.333333333 639.333333333 455.333333333 644 452 c 1
 664 402.666666667 692.333333333 310.333333333 729 175 c 0
 734.333333333 162.333333333 742.333333333 142.666666667 753 116 c 0
 766.333333333 82.6666666667 773 61.3333333333 773 52 c 0
EndSplineSet
EndChar

StartChar: n
Encoding: 110 110 57
Width: 621
Flags: HMW
LayerCount: 2
Back
Fore
SplineSet
593 249 m 0
 593 224.333333333 592.333333333 196.666666667 591 166 c 0
 589 114.666666667 587 84.3333333333 585 75 c 0
 581.666666667 61 573 46.8333333333 559 32.5 c 128
 545 18.1666666667 531 11 517 11 c 0
 488.333333333 11 469.666666667 31.3333333333 461 72 c 0
 457.666666667 86.6666666667 456 101.666666667 456 117 c 0
 456 125.666666667 456.666666667 134.666666667 458 144 c 0
 464.666666667 199.333333333 468 246.333333333 468 285 c 0
 468 361 453.666666667 425.666666667 425 479 c 1
 369 391 325.666666667 306.666666667 295 226 c 0
 284.333333333 195.333333333 267.333333333 149 244 87 c 0
 235.333333333 63.6666666667 220.666666667 52 200 52 c 0
 196.666666667 52 193 52.3333333333 189 53 c 2
 145 63 l 2
 141.666666667 63.6666666667 136.5 69.6666666667 129.5 81 c 128
 122.5 92.3333333333 117.333333333 103 114 113 c 0
 105.333333333 141 96.3333333333 196.666666667 87 280 c 0
 75.6666666667 383.333333333 67 450 61 480 c 1
 53 489.333333333 42.3333333333 503.333333333 29 522 c 0
 27 526 26 531.333333333 26 538 c 0
 26 558.666666667 35.6666666667 580 55 602 c 0
 68.3333333333 617.333333333 79.3333333333 625 88 625 c 0
 90.6666666667 625 94.8333333333 623.333333333 100.5 620 c 128
 106.166666667 616.666666667 109.666666667 614.666666667 111 614 c 0
 114 614 114 614 116 614 c 128
 118 614 118 614 120 614 c 128
 122 614 122 614 123 614 c 0
 155.666666667 614 177.333333333 587.666666667 188 535 c 1
 195 452 l 2
 197.666666667 424 201.666666667 385.333333333 207 336 c 1
 219 352 238.333333333 388.833333333 265 446.5 c 128
 291.666666667 504.166666667 308.666666667 538.666666667 316 550 c 0
 339.333333333 584.666666667 367.333333333 608 400 620 c 0
 403.333333333 620.666666667 407 621 411 621 c 0
 421 621 430.666666667 619.5 440 616.5 c 128
 449.333333333 613.5 454.333333333 612 455 612 c 0
 493 604 527 561.333333333 557 484 c 0
 563.666666667 467.333333333 570.666666667 439.833333333 578 401.5 c 128
 585.333333333 363.166666667 589.666666667 332.333333333 591 309 c 0
 592.333333333 291.666666667 593 271.666666667 593 249 c 0
EndSplineSet
EndChar

StartChar: o
Encoding: 111 111 58
Width: 520
Flags: HMW
LayerCount: 2
Back
Fore
SplineSet
495 359 m 0
 495 330.333333333 490.333333333 298.666666667 481 264 c 0
 457 177.333333333 417 113.666666667 361 73 c 2
 341 59 l 2
 296.333333333 26.3333333333 257 10 223 10 c 0
 183 10 144.666666667 35.3333333333 108 86 c 0
 67.3333333333 142 40 209.666666667 26 289 c 0
 21.3333333333 313.666666667 19 336.666666667 19 358 c 0
 19 420.666666667 37 470 73 506 c 1
 75.6666666667 528.666666667 89.3333333333 548.333333333 114 565 c 128
 138.666666667 581.666666667 167.333333333 590 200 590 c 0
 233.333333333 590 271.666666667 581.333333333 315 564 c 0
 381 537.333333333 427.5 508.5 454.5 477.5 c 128
 481.5 446.5 495 407 495 359 c 0
388 320 m 0
 388 352.666666667 379.333333333 381 362 405 c 0
 356.666666667 411.666666667 338.333333333 423.666666667 307 441 c 0
 278.333333333 457 260.666666667 465.666666667 254 467 c 0
 225.333333333 475 208.333333333 479 203 479 c 0
 193 479 191 479.333333333 197 480 c 1
 195 480 192.666666667 476.833333333 190 470.5 c 128
 187.333333333 464.166666667 179.666666667 457.333333333 167 450 c 0
 157 444.666666667 151.333333333 441.333333333 150 440 c 0
 130 426 120 402 120 368 c 0
 120 348 123.666666667 324.333333333 131 297 c 0
 156.333333333 202.333333333 189 147 229 131 c 0
 235 128.333333333 241.666666667 127 249 127 c 0
 265 127 282.666666667 134 302 148 c 0
 346 179.333333333 373 222.333333333 383 277 c 0
 386.333333333 292.333333333 388 306.666666667 388 320 c 0
EndSplineSet
EndChar

StartChar: p
Encoding: 112 112 59
Width: 364
Flags: HMW
LayerCount: 2
Back
Fore
SplineSet
352 409 m 0
 352 361 343 313 325 265 c 0
 315 238.333333333 292.666666667 214.666666667 258 194 c 0
 232.666666667 178.666666667 207 168 181 162 c 1
 205 26 217 -54.6666666667 217 -80 c 0
 217 -88.6666666667 212.666666667 -100.333333333 204 -115 c 128
 195.333333333 -129.666666667 187.666666667 -137 181 -137 c 0
 134.333333333 -137 98.6666666667 -79 74 37 c 0
 62.6666666667 91.6666666667 54.6666666667 158.333333333 50 237 c 2
 35 504 l 1
 35 614 l 2
 35 624 40 633.666666667 50 643 c 128
 60 652.333333333 69.6666666667 657 79 657 c 0
 85.6666666667 657 97.3333333333 651.666666667 114 641 c 1
 128.666666667 655.666666667 144 668.333333333 160 679 c 0
 167.333333333 683.666666667 186 686 216 686 c 0
 239.333333333 686 262 675.666666667 284 655 c 0
 309.333333333 632.333333333 326.333333333 602 335 564 c 0
 346.333333333 514 352 462.333333333 352 409 c 0
252 413 m 0
 252 443 248.666666667 478 242 518 c 0
 238.666666667 534 228 549.333333333 210 564 c 0
 200 571.333333333 189.666666667 578.666666667 179 586 c 1
 151 546.666666667 137 493 137 425 c 0
 137 396.333333333 141 362.333333333 149 323 c 0
 152.333333333 302.333333333 157.333333333 278.666666667 164 252 c 1
 176.666666667 260 189.333333333 268.333333333 202 277 c 0
 222.666666667 291.666666667 235 307 239 323 c 0
 247.666666667 356.333333333 252 386.333333333 252 413 c 0
EndSplineSet
EndChar

StartChar: q
Encoding: 113 113 60
Width: 569
Flags: HMW
LayerCount: 2
Back
Fore
SplineSet
571 115 m 0
 571 107 561.333333333 98 542 88 c 0
 526 80 515 76 509 76 c 0
 493 76 469.333333333 86 438 106 c 0
 420 118 399.333333333 131.666666667 376 147 c 1
 334 83 298.333333333 40 269 18 c 128
 239.666666667 -4 204 -15 162 -15 c 0
 137.333333333 -15 109 -2.5 77 22.5 c 128
 45 47.5 26.6666666667 73 22 99 c 0
 19.3333333333 113.666666667 18 133 18 157 c 0
 18 209.666666667 23.6666666667 255.666666667 35 295 c 0
 42.3333333333 320.333333333 62 371.333333333 94 448 c 1
 110 476.666666667 133.666666667 520.333333333 165 579 c 0
 171 594.333333333 180.666666667 617.333333333 194 648 c 0
 205.333333333 672.666666667 223 685 247 685 c 0
 278.333333333 685 302.333333333 669.666666667 319 639 c 0
 321 635.666666667 323 626 325 610 c 1
 329.666666667 604.666666667 338.333333333 598.333333333 351 591 c 1
 408.333333333 580.333333333 437 533.666666667 437 451 c 0
 437 401.666666667 428.666666667 344.333333333 412 279 c 1
 412 279 l 1
 412 271 425.666666667 257.333333333 453 238 c 0
 495 208.666666667 520.666666667 189.666666667 530 181 c 0
 557.333333333 156.333333333 571 134.333333333 571 115 c 0
329 446 m 0
 329 461.333333333 326 475.333333333 320 488 c 1
 301 488 l 1
 297 484 283 475.666666667 259 463 c 0
 243 454.333333333 230.666666667 439.333333333 222 418 c 1
 223 418 223 418 223 418 c 2
 232.333333333 418 244.333333333 423.666666667 259 435 c 1
 273 427 293 413 319 393 c 1
 325.666666667 412.333333333 329 430 329 446 c 0
278 228 m 1
 274 235.333333333 262.666666667 251.666666667 244 277 c 0
 216.666666667 313.666666667 199.333333333 339.333333333 192 354 c 1
 158 292.666666667 141 232.333333333 141 173 c 0
 141 152.333333333 144.666666667 130.666666667 152 108 c 1
 174.666666667 108 189.333333333 109.333333333 196 112 c 0
 210 117.333333333 227.166666667 133.666666667 247.5 161 c 128
 267.833333333 188.333333333 278 210.666666667 278 228 c 1
EndSplineSet
EndChar

StartChar: r
Encoding: 114 114 61
Width: 517
Flags: HMW
LayerCount: 2
Back
Fore
SplineSet
514 20 m 0
 514 12 512.666666667 5.33333333333 510 0 c 0
 500.666666667 -19.3333333333 487.666666667 -29 471 -29 c 0
 435.666666667 -29 401.666666667 0 369 58 c 0
 331.666666667 124 305.666666667 166.333333333 291 185 c 0
 269.666666667 207 236.666666667 242 192 290 c 0
 192 290.666666667 191.666666667 291 191 291 c 0
 189.666666667 291 188.333333333 289.333333333 187 286 c 0
 187 285 187 285 187 282 c 0
 187 273.333333333 189.666666667 243.333333333 195 192 c 0
 202.333333333 124 206 72.6666666667 206 38 c 0
 206 8.66666666667 203.666666667 -11 199 -21 c 0
 190.333333333 -39 173.333333333 -48 148 -48 c 0
 142 -48 136.666666667 -47 132 -45 c 2
 110 -35 l 2
 58 -11.6666666667 32 84 32 252 c 0
 32 277.333333333 32.6666666667 305 34 335 c 0
 34.6666666667 352.333333333 35 365.666666667 35 375 c 0
 35 380 35 380 35 381.5 c 128
 35 383 35 383 35 384 c 0
 35 396 31 439.666666667 23 515 c 0
 18.3333333333 561.666666667 16 589.666666667 16 599 c 0
 16 603 16 603 16 604 c 0
 21.3333333333 614.666666667 28 622.333333333 36 627 c 0
 40.6666666667 629.666666667 52 633.333333333 70 638 c 1
 79.3333333333 676.666666667 112.333333333 696 169 696 c 0
 225 696 283 682 343 654 c 0
 345 653.333333333 346 652.333333333 346 651 c 2
 346 651 346 651 345 650 c 0
 345.666666667 648.666666667 347 647.666666667 349 647 c 0
 351 649 353.333333333 650.666666667 356 652 c 0
 390.666666667 636 420.666666667 607.666666667 446 567 c 128
 471.333333333 526.333333333 484 485.666666667 484 445 c 0
 484 374.333333333 446 319.333333333 370 280 c 1
 386 257.333333333 410 223.666666667 442 179 c 0
 490 108.333333333 514 55.3333333333 514 20 c 0
347 481 m 0
 347 514.333333333 329 539.666666667 293 557 c 0
 273.666666667 566.333333333 252 571 228 571 c 0
 203.333333333 571 187.666666667 564 181 550 c 0
 171.666666667 530 167 498.333333333 167 455 c 0
 167 413 169.666666667 378.333333333 175 351 c 1
 183.666666667 360.333333333 212.333333333 374.333333333 261 393 c 0
 318.333333333 415 347 444.333333333 347 481 c 0
EndSplineSet
EndChar

StartChar: s
Encoding: 115 115 62
Width: 475
Flags: HMW
LayerCount: 2
Back
Fore
SplineSet
461 227 m 0
 461 199 455.666666667 178 445 164 c 0
 392.333333333 96.6666666667 333.666666667 47.6666666667 269 17 c 0
 259.666666667 12.3333333333 238.833333333 7.5 206.5 2.5 c 128
 174.166666667 -2.5 152.666666667 -9.33333333333 142 -18 c 1
 132.666666667 -5.33333333333 116.333333333 9 93 25 c 1
 102.333333333 61 111.666666667 79 121 79 c 0
 122.333333333 79 124.166666667 78.6666666667 126.5 78 c 128
 128.833333333 77.3333333333 130.666666667 77 132 77 c 0
 136 77 141.666666667 81.6666666667 149 91 c 0
 149.666666667 91 152 90.3333333333 156 89 c 128
 160 87.6666666667 163 87 165 87 c 0
 188.333333333 87 228.333333333 107.333333333 285 148 c 0
 325.666666667 178 346 202.333333333 346 221 c 0
 346 231 341.666666667 238.666666667 333 244 c 0
 327.666666667 247.333333333 311 254.333333333 283 265 c 0
 265.666666667 270.333333333 239.666666667 279 205 291 c 0
 189 296.333333333 164.333333333 305 131 317 c 1
 91.6666666667 335 59.3333333333 354 34 374 c 0
 2 400 -14 436 -14 482 c 0
 -14 542.666666667 64.3333333333 613 221 693 c 0
 275 720.333333333 308.666666667 735 322 737 c 0
 327 737 327 737 332 737 c 0
 346.666666667 737 362 732 378 722 c 128
 394 712 401.666666667 707 401 707 c 1
 401 707 l 1
 408 709 l 2
 408.666666667 708.333333333 409.5 707.333333333 410.5 706 c 128
 411.5 704.666666667 412 702.333333333 412 699 c 0
 412 677 404.666666667 658.5 390 643.5 c 128
 375.333333333 628.5 364.333333333 621 357 621 c 0
 355 621 353.666666667 621.333333333 353 622 c 128
 352.333333333 622.666666667 351.666666667 623 351 623 c 0
 349 623 348 622.666666667 348 622 c 0
 348.666666667 620.666666667 349.666666667 619.333333333 351 618 c 1
 350.333333333 617.333333333 349 617 347 617 c 0
 345.666666667 617 340.166666667 617.833333333 330.5 619.5 c 128
 320.833333333 621.166666667 315 622 313 622 c 0
 292.333333333 613.333333333 250.666666667 589.333333333 188 550 c 1
 138.666666667 513.333333333 114 485.333333333 114 466 c 0
 114 452 120.666666667 440.333333333 134 431 c 0
 144.666666667 423.666666667 168 412.666666667 204 398 c 1
 242 387.333333333 298.666666667 368.666666667 374 342 c 1
 432 317.333333333 461 279 461 227 c 0
EndSplineSet
EndChar

StartChar: t
Encoding: 116 116 63
Width: 599
Flags: HMW
LayerCount: 2
Back
Fore
SplineSet
583 294 m 0
 583 258 573.666666667 240 555 240 c 0
 551 240 516 245.666666667 450 257 c 128
 384 268.333333333 338 274 312 274 c 0
 303.333333333 274 299 265.666666667 299 249 c 0
 299 213.666666667 309 171.333333333 329 122 c 0
 338.333333333 98 343 76.3333333333 343 57 c 0
 343 55 342.666666667 50.6666666667 342 44 c 0
 342 25.3333333333 333 16 315 16 c 0
 307 16 291.333333333 24 268 40 c 0
 253.333333333 50 242 62 234 76 c 0
 216 106.666666667 199 173.666666667 183 277 c 0
 181.666666667 284.333333333 176 288 166 288 c 0
 164 288 152.833333333 287.5 132.5 286.5 c 128
 112.166666667 285.5 101 285 99 285 c 0
 79.6666666667 285 60.8333333333 291 42.5 303 c 128
 24.1666666667 315 15 337.333333333 15 370 c 0
 15 376 17.8333333333 382.833333333 23.5 390.5 c 128
 29.1666666667 398.166666667 35 402 41 402 c 0
 93 402 141.333333333 396.666666667 186 386 c 1
 189.333333333 391.333333333 191.666666667 397.333333333 193 404 c 0
 193 408 192.666666667 413.833333333 192 421.5 c 128
 191 433 191 433 191 433 c 2
 191 451.666666667 200.666666667 494.333333333 220 561 c 0
 242.666666667 640.333333333 267 680 293 680 c 0
 294.333333333 680 295.5 679.5 296.5 678.5 c 128
 297.5 677.5 298.666666667 677 300 677 c 256
 301.333333333 677 306.333333333 680 315 686 c 128
 323.666666667 692 329 695 331 695 c 0
 333.666666667 695 337 693.333333333 341 690 c 128
 345 686.666666667 348.333333333 684 351 682 c 1
 341 669.333333333 336 656.333333333 336 643 c 0
 336 641 338.5 634.5 343.5 623.5 c 128
 348.5 612.5 351 606 351 604 c 1
 351 604 l 1
 349 595.333333333 341 568.333333333 327 523 c 0
 306.333333333 465.666666667 296 421.666666667 296 391 c 0
 296 386.333333333 312 380 344 372 c 0
 371.333333333 365.333333333 389.666666667 362 399 362 c 0
 430.333333333 362 465.333333333 357 504 347 c 0
 556.666666667 333 583 315.333333333 583 294 c 0
EndSplineSet
EndChar

StartChar: u
Encoding: 117 117 64
Width: 503
Flags: HMW
LayerCount: 2
Back
Fore
SplineSet
486 305 m 0
 482.666666667 277 479 251.333333333 475 228 c 0
 465.666666667 172.666666667 456.666666667 134.333333333 448 113 c 0
 416 33.6666666667 367.666666667 -6 303 -6 c 0
 255.666666667 -6 208.833333333 17.1666666667 162.5 63.5 c 128
 116.166666667 109.833333333 77.3333333333 172 46 250 c 0
 12.6666666667 333.333333333 -4 391.666666667 -4 425 c 0
 -4 463.666666667 25 483 83 483 c 0
 87 483 87 483 96 483 c 2
 96 483 96 483 97 483 c 0
 113 483 128 476.666666667 142 464 c 0
 152.666666667 455.333333333 160 442.833333333 164 426.5 c 128
 168 410.166666667 171.666666667 394.333333333 175 379 c 0
 187 327 198.666666667 284.666666667 210 252 c 0
 227.333333333 202 255.333333333 173 294 165 c 1
 305 165 l 1
 323 180.333333333 333.333333333 201.666666667 336 229 c 0
 337.333333333 260.333333333 338.666666667 292 340 324 c 0
 340.666666667 332.666666667 341 341.666666667 341 351 c 0
 341 441 317.666666667 504.666666667 271 542 c 0
 269 541.333333333 267 541 265 541 c 0
 245.666666667 541 236 547.333333333 236 560 c 0
 236 596 250.333333333 618.333333333 279 627 c 0
 287.666666667 629.666666667 302 631 322 631 c 0
 330.666666667 631 340 630.666666667 350 630 c 0
 388 628 421 587.666666667 449 509 c 0
 469.666666667 451 480 409.333333333 480 384 c 0
 480 382 480 382 480 379 c 128
 480 376 480 376 480 374 c 0
 480 368.666666667 481 356.166666667 483 336.5 c 128
 485 316.833333333 486 306.333333333 486 305 c 0
EndSplineSet
EndChar

StartChar: v
Encoding: 118 118 65
Width: 420
Flags: HMW
LayerCount: 2
Back
Fore
SplineSet
406 655 m 0
 406 649 401.833333333 641.166666667 393.5 631.5 c 128
 385.166666667 621.833333333 379.666666667 612.666666667 377 604 c 0
 359.666666667 548 348.333333333 467.333333333 343 362 c 2
 338 272 l 2
 338 270 338 270 338 268 c 0
 338 250 343 188.666666667 353 84 c 0
 352.333333333 80.6666666667 342.333333333 71 323 55 c 0
 309.666666667 43.6666666667 300.333333333 38 295 38 c 1
 295 38 l 1
 276 39 l 2
 230.666666667 41 178.666666667 102.333333333 120 223 c 0
 78 309 51.6666666667 374.666666667 41 420 c 1
 27 448.666666667 20 471 20 487 c 0
 21 491 21 491 23.5 501 c 128
 25.1666666667 507.666666667 26 512.666666667 26 516 c 1
 40.6666666667 520 52.3333333333 526 61 534 c 0
 61.6666666667 533.333333333 62.3333333333 533 63 533 c 0
 66.3333333333 533 78 534.5 98 537.5 c 128
 118 540.5 130.333333333 542 135 542 c 0
 141 542 148 537.333333333 156 528 c 128
 164 518.666666667 168 511.333333333 168 506 c 0
 168 502.666666667 167.5 497.666666667 166.5 491 c 128
 165.5 484.333333333 165 479 165 475 c 0
 165 437 181 378.666666667 213 300 c 1
 216.333333333 308.666666667 221.5 333.166666667 228.5 373.5 c 128
 235.5 413.833333333 239.333333333 443 240 461 c 2
 245 544 l 2
 247 592.666666667 252 626 260 644 c 0
 276 682 307.666666667 701 355 701 c 0
 389 701 406 685.666666667 406 655 c 0
EndSplineSet
EndChar

StartChar: w
Encoding: 119 119 66
Width: 642
Flags: HMW
LayerCount: 2
Back
Fore
SplineSet
620 310 m 0
 620 86.6666666667 570 -25 470 -25 c 0
 440 -25 413.666666667 -14.6666666667 391 6 c 128
 368.333333333 26.6666666667 345 63 321 115 c 1
 283.666666667 87 259.333333333 73 248 73 c 0
 171.333333333 73 114.333333333 149.666666667 77 303 c 2
 77 303 77 303 51 413 c 1
 15 503 l 1
 15 523.666666667 19.6666666667 538 29 546 c 128
 38.3333333333 554 57.3333333333 558 86 558 c 0
 133.333333333 558 169 505 193 399 c 0
 199.666666667 370.333333333 212.333333333 329.333333333 231 276 c 1
 237 283.333333333 247.833333333 312.666666667 263.5 364 c 128
 279.166666667 415.333333333 293 448 305 462 c 0
 308.333333333 466 323.666666667 468 351 468 c 0
 361.666666667 468 379.333333333 460 404 444 c 1
 410.666666667 416.666666667 414 391.666666667 414 369 c 0
 414 367 414 367 414 365 c 128
 414 363 414 363 414 361 c 0
 414 335.666666667 416.666666667 299.333333333 422 252 c 2
 429 190 l 2
 429.666666667 182.666666667 437.666666667 158.666666667 453 118 c 1
 468.333333333 134 480 171.666666667 488 231 c 0
 493.333333333 271.666666667 496 311.666666667 496 351 c 0
 496 403.666666667 490 458.666666667 478 516 c 0
 462 593.333333333 439.333333333 637.666666667 410 649 c 1
 410 663 l 1
 416 663 421 665 425 669 c 1
 414 683 l 1
 414 700 l 2
 416 702 423.166666667 705.833333333 435.5 711.5 c 128
 447.833333333 717.166666667 456 720 460 720 c 0
 462.666666667 720 468.666666667 717.5 478 712.5 c 128
 487.333333333 707.5 492.666666667 705 494 705 c 0
 496 705 498 705.5 500 706.5 c 128
 502 707.5 504 708 506 708 c 0
 546 708 577 644 599 516 c 0
 613 434 620 365.333333333 620 310 c 0
EndSplineSet
EndChar

StartChar: x
Encoding: 120 120 67
Width: 639
Flags: HMW
LayerCount: 2
Back
Fore
SplineSet
631 72 m 0
 631 61.3333333333 624.833333333 51.5 612.5 42.5 c 128
 600.166666667 33.5 587.666666667 29 575 29 c 2
 562 29 l 2
 554 29 532 49.6666666667 496 91 c 0
 444 150.333333333 406 190.666666667 382 212 c 1
 369.333333333 201.333333333 335.333333333 161.666666667 280 93 c 0
 258 65.6666666667 238.333333333 52 221 52 c 0
 219 52 216.833333333 52.6666666667 214.5 54 c 128
 212.166666667 55.3333333333 210 56 208 56 c 0
 192.666666667 56 178.166666667 63.8333333333 164.5 79.5 c 128
 150.833333333 95.1666666667 144 113 144 133 c 0
 144 160.333333333 161 187.666666667 195 215 c 0
 213.666666667 233 243.333333333 259.333333333 284 294 c 1
 107.333333333 450 19 536.666666667 19 554 c 0
 19 596.666666667 39 618 79 618 c 0
 99.6666666667 618 114 614 122 606 c 0
 169.333333333 557.333333333 242.666666667 486.333333333 342 393 c 1
 352 404.333333333 367.666666667 427.666666667 389 463 c 1
 407 499.666666667 420.333333333 524.333333333 429 537 c 0
 445 559.666666667 461.666666667 571 479 571 c 2
 493 571 l 1
 495.666666667 564.333333333 503.666666667 557.666666667 517 551 c 0
 519.666666667 551 521.833333333 551.5 523.5 552.5 c 128
 526 554 526 554 526 554 c 1
 527.333333333 545.333333333 530 533.833333333 534 519.5 c 128
 538 505.166666667 540 497.666666667 540 497 c 1
 540 497 l 1
 536.666666667 492.333333333 527 472.666666667 511 438 c 0
 495.666666667 406 480.333333333 376.333333333 465 349 c 0
 457.666666667 337 450.666666667 325 444 313 c 0
 444 311 461.666666667 292.666666667 497 258 c 0
 586.333333333 170.666666667 631 108.666666667 631 72 c 0
EndSplineSet
EndChar

StartChar: y
Encoding: 121 121 68
Width: 551
Flags: HMW
LayerCount: 2
Back
Fore
SplineSet
531 633 m 0
 531 580.333333333 515.333333333 490.333333333 484 363 c 2
 426 127 l 2
 425.333333333 123.666666667 425 119 425 113 c 0
 425 105.666666667 425.666666667 93 427 75 c 128
 428.333333333 57 429 45 429 39 c 0
 429 32 429 32 429 27 c 0
 428.333333333 16.3333333333 416.666666667 4.66666666667 394 -8 c 0
 374.666666667 -18.6666666667 361.333333333 -24 354 -24 c 0
 337.333333333 -24 324.166666667 -15.8333333333 314.5 0.5 c 128
 304.833333333 16.8333333333 300 37.3333333333 300 62 c 0
 300 66 303.333333333 98 310 158 c 1
 347 321 l 1
 344 323 l 1
 316 323 l 2
 306 323 262.666666667 351.333333333 186 408 c 0
 135 446 135 446 33 522 c 0
 31 523.333333333 26.5 530.833333333 19.5 544.5 c 128
 12.5 558.166666667 9 567 9 571 c 0
 9 579.666666667 16.8333333333 590.666666667 32.5 604 c 128
 48.1666666667 617.333333333 60.3333333333 624 69 624 c 0
 87.6666666667 624 136.833333333 594 216.5 534 c 128
 296.166666667 474 337 444 339 444 c 256
 341 444 342.333333333 444.5 343 445.5 c 128
 343.666666667 446.5 345 447 347 447 c 0
 349.666666667 447 354.333333333 444.833333333 361 440.5 c 128
 367.666666667 436.166666667 371 433.666666667 371 433 c 1
 383.666666667 466.333333333 391.666666667 509.333333333 395 562 c 0
 399 628 402.333333333 668 405 682 c 1
 431 699.333333333 451.333333333 708 466 708 c 0
 482.666666667 708 498.333333333 697.333333333 513 676 c 0
 525 658 531 643.666666667 531 633 c 0
EndSplineSet
EndChar

StartChar: z
Encoding: 122 122 69
Width: 761
Flags: HMW
LayerCount: 2
Back
Fore
SplineSet
768 151 m 0
 768 136.333333333 752.666666667 120.666666667 722 104 c 0
 696 90 678.666666667 83 670 83 c 0
 668 83 664.333333333 82.3333333333 659 81 c 128
 653.666666667 79.6666666667 650 79 648 79 c 256
 646 79 637.333333333 80.1666666667 622 82.5 c 128
 606.666666667 84.8333333333 598 86 596 86 c 0
 376.666666667 17.3333333333 233.666666667 -17 167 -17 c 0
 147.666666667 -17 131.333333333 -10.1666666667 118 3.5 c 128
 104.666666667 17.1666666667 98 33.6666666667 98 53 c 0
 98 113 115.333333333 184 150 266 c 1
 137.333333333 278.666666667 125.666666667 285 115 285 c 0
 111.666666667 285 109 284 107 282 c 1
 83 306 71 327.333333333 71 346 c 0
 71 360.666666667 79.8333333333 373.166666667 97.5 383.5 c 128
 115.166666667 393.833333333 135 399 157 399 c 0
 159 399 165.666666667 397.166666667 177 393.5 c 128
 188.333333333 389.833333333 194.833333333 388 196.5 388 c 128
 198.166666667 388 200.833333333 387.5 204.5 386.5 c 128
 208.166666667 385.5 211 385 213 385 c 0
 220.333333333 385 233 406.666666667 251 450 c 0
 273.666666667 504 287 534.666666667 291 542 c 1
 291 551 l 1
 287 552.333333333 275 553 255 553 c 0
 253.666666667 553 247.833333333 552 237.5 550 c 128
 227.166666667 548 219.333333333 547 214 547 c 1
 207 540 l 1
 197 539.333333333 174 536 138 530 c 0
 104.666666667 524.666666667 87.3333333333 522 86 522 c 0
 64 522 46.1666666667 530.166666667 32.5 546.5 c 128
 18.8333333333 562.833333333 12 582.333333333 12 605 c 0
 12 620.333333333 17.3333333333 630.333333333 28 635 c 0
 48 643.666666667 60.3333333333 649.666666667 65 653 c 1
 75 653 l 2
 101.666666667 653 142.333333333 656.5 197 663.5 c 128
 251.666666667 670.5 308.666666667 674 368 674 c 0
 386.666666667 674 403.666666667 666 419 650 c 128
 434.333333333 634 442 616 442 596 c 0
 442 580.666666667 430 543.333333333 406 484 c 2
 364 381 l 1
 374.666666667 382.333333333 389.333333333 386.333333333 408 393 c 0
 410 394.333333333 418.666666667 401 434 413 c 0
 444.666666667 421.666666667 452 426 456 426 c 2
 456 426 456 426 467.5 422.5 c 128
 475.166666667 420.166666667 482.333333333 419 489 419 c 128
 495.666666667 419 504.666666667 416.333333333 516 411 c 0
 532.666666667 403 541 393.666666667 541 383 c 0
 541 341.666666667 516.333333333 309.666666667 467 287 c 0
 429.666666667 269.666666667 388.666666667 261 344 261 c 0
 342 261 335.333333333 261.666666667 324 263 c 128
 312.666666667 264.333333333 306 265 304 265 c 0
 289.333333333 265 273 244.666666667 255 204 c 0
 239.666666667 169.333333333 232 146.666666667 232 136 c 2
 232 116 l 2
 233.333333333 114.666666667 235.666666667 114 239 114 c 0
 249.666666667 114 322.5 130.5 457.5 163.5 c 128
 592.5 196.5 677.666666667 213 713 213 c 0
 727.666666667 213 740.5 206.5 751.5 193.5 c 128
 762.5 180.5 768 166.333333333 768 151 c 0
EndSplineSet
EndChar

StartChar: dollar
Encoding: 36 36 71
Width: 475
Flags: W
HStem: -53 113<73.0871 184.211> -17 2<30.6667 32> 583 81<281.935 347.937 348.063 364.492> 659 20G<359.667 369>
VStem: 21 116<431.119 495.518> 211 97<149 246.313> 343 126<160.331 236.188>
LayerCount: 2
Back
Fore
SplineSet
469 172 m 0x2e
 469 122 411 69.6666666667 295 15 c 1
 283.666666667 -31 251 -70.3333333333 197 -103 c 0
 193 -103 188.333333333 -99.1666666667 183 -91.5 c 0
 177.666666667 -83.8333333333 175 -77.3333333333 175 -72 c 0
 175 -62 178.666666667 -49.6666666667 186 -35 c 2
 188 -30 l 1
 145.333333333 -45.3333333333 118.333333333 -53 107 -53 c 0xae
 90.3333333333 -53 73.3333333333 -46.6666666667 56 -34 c 0
 38.6666666667 -21.3333333333 30.6666666667 -15 32 -15 c 2
 25 -17 l 1x4e
 23 -12.3333333333 22 -9 22 -7 c 0
 22 -2.33333333333 24.6666666667 6.16666666667 30 18.5 c 0
 35.3333333333 30.8333333333 41.6666666667 40 49 46 c 0
 65 59.3333333333 76.6666666667 66 84 66 c 0
 86.6666666667 66 88.3333333333 65.5 89 64.5 c 0
 89.6666666667 63.5 90.3333333333 63 91 63 c 0
 92.3333333333 63 93 63.3333333333 93 64 c 256
 93 64.6666666667 92.6666666667 65.3333333333 92 66 c 0
 92 67 92 67 92 68 c 256
 92 68.6666666667 92.6666666667 69 94 69 c 256
 95.3333333333 69 101.166666667 67.5 111.5 64.5 c 0
 121.833333333 61.5 127.666666667 60 129 60 c 0
 143.666666667 60 170.666666667 70.3333333333 210 91 c 1
 210.666666667 99 211 107 211 115 c 2
 211 125 l 2
 211 179.666666667 208.333333333 233.333333333 203 286 c 2
 202 298 l 1
 178.666666667 307.333333333 143.666666667 323 97 345 c 1
 46.3333333333 373 21 410.333333333 21 457 c 0
 21 489 29 513 45 529 c 0
 55.6666666667 540.333333333 66.6666666667 552 78 564 c 0
 89.3333333333 576 103 588 119 600 c 0
 119 602 119 602 119 604 c 0
 119 628 132 662 158 706 c 0
 176 735.333333333 206 760 248 780 c 0
 251.333333333 780 260 766.333333333 274 739 c 0
 273.333333333 737.666666667 273 736 273 734 c 0
 273 725.333333333 275.333333333 702 280 664 c 1xae
 286.666666667 664 293.666666667 664.333333333 301 665 c 0
 333 666.333333333 354.333333333 671 365 679 c 1x1e
 373 665 388 649 410 631 c 1
 396.666666667 597 385.666666667 580 377 580 c 0
 375.666666667 580 373.5 580.5 370.5 581.5 c 0
 367.5 582.5 365.333333333 583 364 583 c 0
 362 583 359.166666667 581 355.5 577 c 0
 351.833333333 573 349.333333333 571 348 571 c 256
 346.666666667 571 344 572 340 574 c 0
 336 576 332.666666667 577 330 577 c 0
 317.333333333 577 301 573.333333333 281 566 c 1
 281.666666667 546.666666667 284.333333333 515.666666667 289 473 c 0
 293 433 295 405 295 389 c 0
 295 383 294.666666667 377.666666667 294 373 c 2
 294 367 l 1
 351.333333333 341 397.333333333 311 432 277 c 0
 456.666666667 252.333333333 469 217.333333333 469 172 c 0x2e
191 415 m 1
 189 432 l 2
 186.333333333 462 183.666666667 488.666666667 181 512 c 1
 151.666666667 493.333333333 137 475 137 457 c 0
 137 448.333333333 141 441.333333333 149 436 c 0
 151 434 165 427 191 415 c 1
343 202 m 0
 343 218 330 233.333333333 304 248 c 1
 306.666666667 212 308 179 308 149 c 1
 331.333333333 166.333333333 343 184 343 202 c 0
EndSplineSet
EndChar

StartChar: percent
Encoding: 37 37 72
Width: 467
Flags: W
HStem: 76 154<316.297 433.453> 443 166<51.5898 150.747> 473 106<167.156 236.321>
VStem: 293 160<101.378 206.875>
LayerCount: 2
Back
Fore
SplineSet
432 560 m 0xb0
 432 525.333333333 410.666666667 478 368 418 c 1
 340 386.666666667 305 344.666666667 263 292 c 1
 249 270 219.333333333 217 174 133 c 0
 132.666666667 55.6666666667 111 16 109 14 c 0
 99 3.33333333333 88 -2 76 -2 c 0
 63.3333333333 -2 51.6666666667 2.66666666667 41 12 c 0
 30.3333333333 21.3333333333 25 34.6666666667 25 52 c 0
 25 72.6666666667 31.6666666667 96.6666666667 45 124 c 2
 88 210 l 2
 99.3333333333 238 117.333333333 273.666666667 142 317 c 0
 186.666666667 392.333333333 231 457.333333333 275 512 c 1
 263 509.333333333 247.666666667 502 229 490 c 0
 213 478.666666667 200.333333333 473 191 473 c 256xb0
 181.666666667 473 173 475.666666667 165 481 c 1
 161 465.666666667 156.333333333 455.5 151 450.5 c 0
 145.666666667 445.5 136.666666667 443 124 443 c 0
 114.666666667 443 99.6666666667 445 79 449 c 0
 58.3333333333 453 44 460.666666667 36 472 c 0
 30 480.666666667 27 494 27 512 c 0
 27 516 27.3333333333 523.666666667 28 535 c 0
 28.6666666667 566.333333333 45 589 77 603 c 0
 84.3333333333 607 93 609 103 609 c 0xd0
 132.333333333 609 154 600.666666667 168 584 c 1
 188 580.666666667 205.666666667 579 221 579 c 0
 243 579 268.666666667 584.166666667 298 594.5 c 0
 327.333333333 604.833333333 344.333333333 610 349 610 c 0
 355 610 359.666666667 607.333333333 363 602 c 1
 370.333333333 605.333333333 377.666666667 607 385 607 c 0
 397 607 407.833333333 602.833333333 417.5 594.5 c 0
 427.166666667 586.166666667 432 574.666666667 432 560 c 0xb0
453 164 m 0
 453 143.333333333 449.333333333 125.333333333 442 110 c 0
 430 87.3333333333 409 76 379 76 c 0
 369.666666667 76 359.333333333 77 348 79 c 0
 325.333333333 83 310 90.3333333333 302 101 c 0
 296 109 293 121.666666667 293 139 c 0
 293 145 293 145 293 160 c 0
 294.333333333 190 311.666666667 212 345 226 c 0
 353 228.666666667 362 230 372 230 c 0
 390 230 409.333333333 225 430 215 c 0
 445.333333333 207 453 190 453 164 c 0
EndSplineSet
EndChar

StartChar: ampersand
Encoding: 38 38 73
Width: 1519
Flags: W
HStem: 311 108<210.516 295.666> 526 101<148.575 240.337>
VStem: 74 111<156.665 284.85> 325 112<37.3423 116.157> 919 132<82.9375 363.648> 1095 111<373.344 526> 1141.5 99.5<258.08 311.965>
LayerCount: 2
Back
Fore
SplineSet
1500 410 m 256xfc
 1500 378.666666667 1480.33333333 334.666666667 1441 278 c 0
 1401.66666667 221.333333333 1355.66666667 169 1303 121 c 0
 1250.33333333 73 1212 49 1188 49 c 0
 1186.66666667 49 1182.66666667 49.8333333333 1176 51.5 c 0
 1169.33333333 53.1666666667 1165.33333333 54 1164 54 c 0
 1154.66666667 54 1150 56 1150 60 c 0
 1152 66 1152 66 1152 66 c 2
 1152 67.3333333333 1150 68 1146 68 c 1
 1149.33333333 76.6666666667 1153.66666667 91.6666666667 1159 113 c 1
 1195.66666667 141.666666667 1236.66666667 178.333333333 1282 223 c 0
 1330 270.333333333 1363.33333333 316 1382 360 c 2
 1400 404 l 1
 1400 439.333333333 1336 475.666666667 1208 513 c 1
 1206.66666667 510.333333333 1206 504.333333333 1206 495 c 0xfc
 1206 478.333333333 1208 452 1212 416 c 0
 1217.33333333 369.333333333 1223 346 1229 346 c 0
 1230.33333333 346.666666667 1231.66666667 348 1233 350 c 1
 1240.33333333 341.333333333 1244 328.666666667 1244 312 c 0
 1244 311.333333333 1243.5 305.333333333 1242.5 294 c 0
 1241.5 282.666666667 1241 275 1241 271 c 1
 1221.66666667 259 1211.33333333 252.666666667 1210 252 c 0
 1200 246.666666667 1187.66666667 244 1173 244 c 0
 1164.33333333 244 1153.83333333 258.833333333 1141.5 288.5 c 0xfa
 1129.16666667 318.166666667 1120.33333333 350 1115 384 c 0
 1111.66666667 406 1106.66666667 439.666666667 1100 485 c 0
 1096.66666667 505.666666667 1095 519.333333333 1095 526 c 0
 1095 530 1096.33333333 535 1099 541 c 0
 1100.33333333 545 1101 548.333333333 1101 551 c 0
 1101 554.333333333 1097.66666667 560 1091 568 c 0
 1086.33333333 573.333333333 1084 580 1084 588 c 0
 1084 599.333333333 1088 610.833333333 1096 622.5 c 0
 1104 634.166666667 1113.66666667 640 1125 640 c 0
 1152.33333333 640 1209.66666667 621 1297 583 c 0
 1399 539 1456 509.666666667 1468 495 c 0
 1489.33333333 469.666666667 1500 441.333333333 1500 410 c 256xfc
1051 130 m 0
 1051 126.666666667 1050.66666667 124 1050 122 c 0
 1048.66666667 107.333333333 1041.33333333 92 1028 76 c 0
 1014.66666667 60 1001 52 987 52 c 0
 961 52 942 70.3333333333 930 107 c 0
 922.666666667 127.666666667 919 149.666666667 919 173 c 0
 919 179 919 179 919 189 c 0
 919.666666667 196.333333333 920 201.666666667 920 205 c 0
 920 258.333333333 917.333333333 302.333333333 912 337 c 0
 902 401.666666667 882.333333333 455.666666667 853 499 c 1
 807 407.666666667 773.666666667 321.333333333 753 240 c 0
 745.666666667 208.666666667 734.333333333 161.666666667 719 99 c 0
 711.666666667 73.6666666667 696.666666667 61 674 61 c 0
 672.666666667 61 671 61.3333333333 669 62 c 2
 625 66 l 2
 621.666666667 66 615.833333333 71.3333333333 607.5 82 c 0
 599.166666667 92.6666666667 593.333333333 102.666666667 590 112 c 0
 578.666666667 138 564 191.333333333 546 272 c 0
 523.333333333 371.333333333 507.666666667 435.333333333 499 464 c 1
 490.333333333 472.666666667 478.666666667 485 464 501 c 0
 460.666666667 506.333333333 459 514.666666667 459 526 c 0
 459 542.666666667 466.333333333 561.333333333 481 582 c 0
 493 599.333333333 503.333333333 608 512 608 c 0
 514 608 518 606.666666667 524 604 c 0
 530 601.333333333 534.333333333 600 537 600 c 0
 538 600 538 600 543 600 c 0
 545.666666667 600.666666667 547.666666667 601 549 601 c 0
 579.666666667 601 602.333333333 577.666666667 617 531 c 1
 632 450 l 2
 637.333333333 423.333333333 645.333333333 386 656 338 c 1
 666 355.333333333 680.666666667 392.666666667 700 450 c 0
 720 510 733 545.666666667 739 557 c 0
 757.666666667 593.666666667 782.333333333 619.333333333 813 634 c 0
 817.666666667 636 822.666666667 637 828 637 c 1
 823.333333333 637 836.666666667 635.333333333 868 632 c 0
 905.333333333 628 942.666666667 590 980 518 c 0
 988 502 997.666666667 475.666666667 1009 439 c 0
 1020.33333333 402.333333333 1028 372.666666667 1032 350 c 0
 1037.33333333 315.333333333 1042.33333333 269 1047 211 c 0
 1049.66666667 172.333333333 1051 145.333333333 1051 130 c 0
448 293 m 0
 446 281 440.333333333 266.333333333 431 249 c 1
 425 246 l 1
 425 241 425 241 425 235 c 0
 425 212.333333333 427 183.666666667 431 149 c 0
 435 114.333333333 437 96.6666666667 437 96 c 0
 437 86 433 72.1666666667 425 54.5 c 0
 417 36.8333333333 410.666666667 27.3333333333 406 26 c 0
 390.666666667 20.6666666667 380 18 374 18 c 0
 360.666666667 18 351 24 345 36 c 0
 331.666666667 64.6666666667 325 91.3333333333 325 116 c 0
 325 117 325 117 325 117 c 1
 313.666666667 94.3333333333 298 75.3333333333 278 60 c 0
 258 44.6666666667 241.333333333 37 228 37 c 1
 125.333333333 86.3333333333 74 150.333333333 74 229 c 0
 74 284.333333333 94.6666666667 330.333333333 136 367 c 0
 174.666666667 401.666666667 218.666666667 419 268 419 c 0
 274 419 281 417.666666667 289 415 c 0
 293.666666667 413.666666667 298.666666667 412.333333333 304 411 c 0
 308 411 311 412.666666667 313 416 c 0
 304.333333333 460.666666667 265.666666667 497.333333333 197 526 c 1
 183 526 155.833333333 512 115.5 484 c 0
 75.1666666667 456 50.6666666667 442 42 442 c 0
 38 443.333333333 30.5 447.333333333 19.5 454 c 0
 8.5 460.666666667 3 467 3 473 c 0
 5.66666666667 483.666666667 14 503 28 531 c 1
 70 595 129.333333333 627 206 627 c 0
 275.333333333 627 331.833333333 602.5 375.5 553.5 c 0
 419.166666667 504.5 441 443 441 369 c 0
 441 365.666666667 440.666666667 360 440 352 c 0
 440 341 440 341 440 334 c 0
 440 330 441.333333333 322.5 444 311.5 c 0
 446.666666667 300.5 448 294.333333333 448 293 c 0
297 294 m 1
 268.333333333 304.666666667 253.333333333 310.333333333 252 311 c 1
 251 311 251 311 251 311 c 2
 230.333333333 311 213.333333333 298.666666667 200 274 c 0
 190 254.666666667 185 235.666666667 185 217 c 256
 185 198.333333333 190.333333333 178 201 156 c 1
 213 162.666666667 225.166666667 169.5 237.5 176.5 c 0
 249.833333333 183.5 259.333333333 193.333333333 266 206 c 0
 272.666666667 227.333333333 283 256.666666667 297 294 c 1
EndSplineSet
EndChar

StartChar: quotesingle
Encoding: 39 39 74
Width: 202
Flags: W
VStem: 39 122<634 700.77> 39 86<400.161 538.414> 58 78<440.569 606.88>
LayerCount: 2
Back
Fore
SplineSet
161 634 m 1x80
 161 636.666666667 158.666666667 614.666666667 154 568 c 0
 153.333333333 559.333333333 150.166666667 547.166666667 144.5 531.5 c 0
 138.833333333 515.833333333 136 504 136 496 c 0
 136 493 136 493 136 489 c 0x20
 136 475 132.333333333 458.5 125 439.5 c 0
 117.666666667 420.5 110 407 102 399 c 0
 98 395 93 392.833333333 87 392.5 c 0
 81 392.166666667 76.3333333333 389 73 383 c 1
 50.3333333333 393.666666667 39 412.666666667 39 440 c 0x40
 39 452 42.1666666667 472.833333333 48.5 502.5 c 0
 54.8333333333 532.166666667 58 554.666666667 58 570 c 0x20
 58 594.666666667 51.3333333333 615.333333333 38 632 c 0
 38.6666666667 634.666666667 39 638 39 642 c 256
 39 646 38.3333333333 652.333333333 37 661 c 0
 35.6666666667 669.666666667 35 676.333333333 35 681 c 0
 35 693.666666667 41.3333333333 703.666666667 54 711 c 0
 64.6666666667 717.666666667 77.3333333333 721 92 721 c 0
 113.333333333 721 132 714.333333333 148 701 c 0
 154 696.333333333 158 676.666666667 160 642 c 0
 160.666666667 639.333333333 161 636.666666667 161 634 c 1x80
EndSplineSet
EndChar

StartChar: parenleft
Encoding: 40 40 75
Width: 415
Flags: W
HStem: 615 91<363.099 406.476>
VStem: 21 115<289.823 431.029>
LayerCount: 2
Back
Fore
SplineSet
421 650 m 0
 421 641.333333333 418.333333333 634.333333333 413 629 c 0
 407 621.666666667 403.666666667 616.666666667 403 614 c 1
 403 614.666666667 402.666666667 615 402 615 c 0
 398 615 363.333333333 594.333333333 298 553 c 0
 248.666666667 521.666666667 212.666666667 494.666666667 190 472 c 0
 154 436 136 400 136 364 c 0
 136 348 139.333333333 331.666666667 146 315 c 0
 166 265.666666667 197.666666667 219.333333333 241 176 c 0
 265 149 265 149 289 122 c 0
 312.333333333 96 336 73.3333333333 360 54 c 1
 365.333333333 30.6666666667 370 14.3333333333 374 5 c 1
 370 5 368 4.33333333333 368 3 c 1
 368 3.66666666667 368.333333333 1.33333333333 369 -4 c 0
 369 -8 364.333333333 -10 355 -10 c 0
 353.666666667 -10 349.333333333 -10.8333333333 342 -12.5 c 0
 334.666666667 -14.1666666667 330.333333333 -15 329 -15 c 0
 304.333333333 -15 265.5 9.5 212.5 58.5 c 0
 159.5 107.5 112 162 70 222 c 0
 37.3333333333 269.333333333 21 307.666666667 21 337 c 0
 21 461.666666667 82.3333333333 559 205 629 c 0
 295 680.333333333 352.666666667 706 378 706 c 0
 389.333333333 706 399.333333333 699.666666667 408 687 c 0
 416.666666667 674.333333333 421 662 421 650 c 0
EndSplineSet
EndChar

StartChar: parenright
Encoding: 41 41 76
Width: 424
Flags: W
HStem: 597 91<26.5243 80.1797>
VStem: 291 119<301.42 438.663>
LayerCount: 2
Back
Fore
SplineSet
410 396 m 0
 410 342.666666667 386.333333333 282 339 214 c 0
 313 176.666666667 294 150.333333333 282 135 c 0
 261.333333333 109 239.333333333 85 216 63 c 0
 161.333333333 12.3333333333 121.666666667 -13 97 -13 c 0
 95.6666666667 -13 91.3333333333 -12.1666666667 84 -10.5 c 0
 76.6666666667 -8.83333333333 72.3333333333 -8 71 -8 c 0
 61.6666666667 -8 57 -6 57 -2 c 0
 59 5 59 5 59 5 c 2
 59 6.33333333333 56.6666666667 7 52 7 c 1
 56 16.3333333333 60.6666666667 32.6666666667 66 56 c 1
 90 75.3333333333 113.666666667 98 137 124 c 0
 161 151 161 151 185 178 c 0
 228.333333333 221.333333333 260 267.666666667 280 317 c 0
 287.333333333 334.333333333 291 351.333333333 291 368 c 0
 291 436 237.666666667 495.666666667 131 547 c 0
 108 560 108 560 85 573 c 0
 55 589 37.3333333333 597 32 597 c 0
 30.6666666667 597 30 596.666666667 30 596 c 1
 29.3333333333 598.666666667 26 603.666666667 20 611 c 0
 14.6666666667 616.333333333 12 623.333333333 12 632 c 0
 12 644 16.3333333333 656.333333333 25 669 c 0
 33.6666666667 681.666666667 43.6666666667 688 55 688 c 0
 70.3333333333 688 126.666666667 666.333333333 224 623 c 0
 291.333333333 593 347 541 391 467 c 0
 403.666666667 446.333333333 410 422.666666667 410 396 c 0
EndSplineSet
EndChar

StartChar: asterisk
Encoding: 42 42 77
Width: 613
Flags: W
HStem: 261 155<51.2734 159.6> 441 104<528.655 573.792>
VStem: 177 118<643.711 792.841> 295 105<49.2371 121.507 124.729 235.653>
LayerCount: 2
Back
Fore
SplineSet
597 290 m 0xe0
 597 288.666666667 596.5 286.833333333 595.5 284.5 c 0
 594.5 282.166666667 594 280.333333333 594 279 c 2
 594 279 594 279 594 277 c 0
 594 275 594 275 594 274 c 0
 594 258 586.666666667 243 572 229 c 0
 555.333333333 213.666666667 537 206 517 206 c 0
 491.666666667 206 465 220 437 248 c 0
 429 256.666666667 413.666666667 270.666666667 391 290 c 1
 394 273 l 2
 404 209.666666667 409 159.666666667 409 123 c 0
 409 91 406 68.3333333333 400 55 c 0
 393.333333333 39 380.333333333 31 361 31 c 0
 345.666666667 31 332.666666667 34.6666666667 322 42 c 2
 312 49 l 2
 305.333333333 53.6666666667 299.666666667 83.3333333333 295 138 c 0xd0
 291 175.333333333 287.333333333 208.333333333 284 237 c 1
 268 214.333333333 252 192.333333333 236 171 c 0
 172.666666667 83.6666666667 133.666666667 39.3333333333 119 38 c 0
 114.333333333 37.3333333333 110 37 106 37 c 0
 71.3333333333 37 52.3333333333 55 49 91 c 0
 48.3333333333 95.6666666667 48 100 48 104 c 0
 48 118 50.6666666667 128.333333333 56 135 c 0
 86.6666666667 171.666666667 125.666666667 220.666666667 173 282 c 1
 123.666666667 268 92.3333333333 261 79 261 c 0
 59 261 47.6666666667 265.333333333 45 274 c 0
 44.3333333333 276 43 277.666666667 41 279 c 0
 26.3333333333 289.666666667 19 307.666666667 19 333 c 0
 19 355.666666667 28 374.666666667 46 390 c 0
 64 405.333333333 90 414 124 416 c 0
 134 416 146.333333333 417 161 419 c 1
 127.666666667 431 105 440.333333333 93 447 c 0
 68.3333333333 461 55.3333333333 476.666666667 54 494 c 2
 52 508 l 1
 58.6666666667 511.333333333 64.6666666667 519.666666667 70 533 c 0
 68.6666666667 535.666666667 67.3333333333 538.666666667 66 542 c 1
 82.6666666667 548.666666667 101 555.333333333 121 562 c 1
 125.666666667 559.333333333 146.333333333 551.666666667 183 539 c 0
 195.666666667 535 208.333333333 530.666666667 221 526 c 1
 213.666666667 557.333333333 207 587.666666667 201 617 c 0
 185 692.333333333 177 743.666666667 177 771 c 0
 177 782.333333333 178.333333333 789.666666667 181 793 c 0
 195.666666667 813.666666667 211.666666667 824 229 824 c 0
 242.333333333 824 256.166666667 818.333333333 270.5 807 c 0
 284.833333333 795.666666667 293 785 295 775 c 0
 303.666666667 714.333333333 318.666666667 627.666666667 340 515 c 1
 346.666666667 523.666666667 354.333333333 533.333333333 363 544 c 0
 443.666666667 646 501.666666667 697 537 697 c 0
 547 697 556.833333333 691.333333333 566.5 680 c 0
 576.166666667 668.666666667 581.666666667 657.333333333 583 646 c 2
 584 633 l 1
 584 632 l 2
 584 624 565.666666667 600.333333333 529 561 c 2
 511 541 l 1
 520.333333333 543.666666667 528.333333333 545 535 545 c 0
 546.333333333 545 555.666666667 542.333333333 563 537 c 2
 574 529 l 2
 574 526 574 526 574 524 c 0
 574 517.333333333 576.666666667 508.666666667 582 498 c 0
 584.666666667 496.666666667 586.666666667 496 588 496 c 2
 588 496 588 496 589 496 c 0
 590.333333333 496 591 495.666666667 591 495 c 0
 584.333333333 478.333333333 577 460.333333333 569 441 c 1
 567.666666667 441 548.333333333 430.666666667 511 410 c 0
 499 404 487.666666667 398 477 392 c 1
 493 382 517 366.666666667 549 346 c 0
 581 325.333333333 597 306.666666667 597 290 c 0xe0
EndSplineSet
EndChar

StartChar: plus
Encoding: 43 43 78
Width: 544
Flags: W
HStem: 256 123<329.277 467.59> 257 91<27.1406 203.986> 293.5 96.5<438.993 523.782>
VStem: 174 139<416.995 543.684> 204 102<77.4551 258.23>
LayerCount: 2
Back
Fore
SplineSet
540 340 m 1x30
 537.333333333 334.666666667 536 326.666666667 536 316 c 0
 535.333333333 308 531.666666667 300.5 525 293.5 c 0x30
 518.333333333 286.5 488 279 434 271 c 0
 405.333333333 266.333333333 362 261.333333333 304 256 c 1x90
 303.333333333 240.666666667 303 227.666666667 303 217 c 0
 303 207.666666667 303.5 198.5 304.5 189.5 c 0
 305.5 180.5 306 174.333333333 306 171 c 0
 306 133 298.333333333 101 283 75 c 0
 279.666666667 69 274.5 65.1666666667 267.5 63.5 c 0
 260.5 61.8333333333 255.666666667 57 253 49 c 1
 220.333333333 59.6666666667 204 90.6666666667 204 142 c 0
 204 150.666666667 204.5 163.833333333 205.5 181.5 c 0
 206.5 199.166666667 207.333333333 212.333333333 208 221 c 0
 208 229 208 229 208 239.5 c 0
 208 250 208 250 208 262 c 1
 199.333333333 261.333333333 191.333333333 260.333333333 184 259 c 0
 168.666666667 257.666666667 152 257 134 257 c 0
 91.3333333333 257 59.6666666667 260.666666667 39 268 c 0
 18.3333333333 275.333333333 8 285 8 297 c 256
 8 309 16.3333333333 320 33 330 c 0
 49.6666666667 340 67.3333333333 345.666666667 86 347 c 0
 98 347.666666667 112.666666667 348 130 348 c 0
 144 348 144 348 167 348 c 0
 185 347.333333333 197.333333333 347 204 347 c 1x48
 198.666666667 417.666666667 188.666666667 460.333333333 174 475 c 0
 174 478 174 478 174 480 c 0
 174 486 172 496.5 168 511.5 c 0
 164 526.5 162 537.333333333 162 544 c 0
 162 559.333333333 169 572.333333333 183 583 c 0
 195 592.333333333 209 597.666666667 225 599 c 0
 231.666666667 597 241.666666667 595.333333333 255 594 c 0
 265 593.333333333 274.666666667 590 284 584 c 0
 291.333333333 579.333333333 299 555.666666667 307 513 c 0
 311 493.666666667 313 460 313 412 c 0
 313 401.333333333 312 381.666666667 310 353 c 1
 338.666666667 358.333333333 362 367 380 379 c 0
 382 379 382 379 384 379 c 0x90
 392 379 405.833333333 380.833333333 425.5 384.5 c 0
 445.166666667 388.166666667 459.333333333 390 468 390 c 0
 487.333333333 390 503.5 384.833333333 516.5 374.5 c 0
 529.5 364.166666667 537.333333333 352.666666667 540 340 c 1x30
EndSplineSet
EndChar

StartChar: comma
Encoding: 44 44 79
Width: 202
Flags: W
HStem: -101 272
VStem: 62 96<-60.5381 -10.0938> 63 118<101 154.804> 81 76<-15.9062 84.0684>
LayerCount: 2
Back
Fore
SplineSet
181 101 m 1xa0
 181 103 179 85.3333333333 175 48 c 0
 174.333333333 40.6666666667 171.166666667 30.6666666667 165.5 18 c 0
 159.833333333 5.33333333333 157 -4 157 -10 c 0x90
 157 -12 157.333333333 -14 158 -16 c 0
 157.333333333 -33.3333333333 149 -49.3333333333 133 -64 c 0
 110.333333333 -85.3333333333 98 -97.6666666667 96 -101 c 1
 80 -95 68.6666666667 -79.6666666667 62 -55 c 0xc0
 62 -45.6666666667 65.1666666667 -29 71.5 -5 c 0
 77.8333333333 19 81 37 81 49 c 0x90
 81 69 74.6666666667 85.6666666667 62 99 c 0xc0
 62.6666666667 101.666666667 63 104.333333333 63 107 c 0
 63 110.333333333 62.3333333333 115.5 61 122.5 c 0
 59.6666666667 129.5 59 134.666666667 59 138 c 0
 59 160 77.6666666667 171 115 171 c 0
 135 171 153 165.666666667 169 155 c 0
 175 151 179 135 181 107 c 0
 181 104 181 104 181 101 c 1xa0
EndSplineSet
EndChar

StartChar: hyphen
Encoding: 45 45 80
Width: 484
Flags: W
HStem: 214 88<36.5457 340.022> 223 101<340 412.684>
LayerCount: 2
Back
Fore
SplineSet
457 249 m 0x40
 457 234.333333333 452 224.333333333 442 219 c 0
 432 213.666666667 422.333333333 211 413 211 c 0
 406.333333333 211 395.333333333 213 380 217 c 0
 364.666666667 221 351.333333333 223 340 223 c 1x40
 340.666666667 223 328.666666667 222 304 220 c 0
 290 219.333333333 276.666666667 219 264 219 c 0
 254 219 254 219 237 219 c 0
 226.333333333 219.666666667 218.666666667 220 214 220 c 0
 202 220 189.333333333 219 176 217 c 0
 160.666666667 215 144.333333333 214 127 214 c 0
 63.6666666667 214 30.6666666667 227.333333333 28 254 c 0
 27.3333333333 260 27 265 27 269 c 0
 27 287.666666667 32.6666666667 298 44 300 c 0
 50 301.333333333 72 302 110 302 c 0
 121 302 121 302 124 302 c 0x80
 149.333333333 300 170 299 186 299 c 0
 206 299 224 300.333333333 240 303 c 0
 259.333333333 303.666666667 287.666666667 305.666666667 325 309 c 0
 329.666666667 309.666666667 340 312.666666667 356 318 c 0
 369.333333333 322 381.333333333 324 392 324 c 0
 413.333333333 324 429.5 320.666666667 440.5 314 c 0
 451.5 307.333333333 457 285.666666667 457 249 c 0x40
EndSplineSet
EndChar

StartChar: period
Encoding: 46 46 81
Width: 299
Flags: W
HStem: 30 155<83.8662 198.604>
VStem: 60 159<55.3784 161.312>
LayerCount: 2
Back
Fore
SplineSet
219 118 m 0
 219 97.3333333333 215 79.3333333333 207 64 c 0
 195.666666667 41.3333333333 175 30 145 30 c 0
 136.333333333 30 126.333333333 31 115 33 c 0
 93 37 78 44.3333333333 70 55 c 0
 63.3333333333 63 60 75.6666666667 60 93 c 0
 60 97 60.3333333333 104.333333333 61 115 c 0
 62.3333333333 145 79.3333333333 166.666666667 112 180 c 0
 120 183.333333333 129 185 139 185 c 0
 156.333333333 185 175 179.666666667 195 169 c 0
 211 161 219 144 219 118 c 0
EndSplineSet
EndChar

StartChar: slash
Encoding: 47 47 82
Width: 388
Flags: W
HStem: -43 21G<99.6667 116>
VStem: 47 101<-25.9784 53.7812>
LayerCount: 2
Back
Fore
SplineSet
370 631 m 0
 370 594.333333333 357.333333333 546 332 486 c 1
 309.333333333 444.666666667 281.666666667 390.666666667 249 324 c 1
 239 296.666666667 219.333333333 231.333333333 190 128 c 0
 164 34.6666666667 150 -13.3333333333 148 -16 c 0
 137.333333333 -34 124 -43 108 -43 c 0
 91.3333333333 -43 77 -37.5 65 -26.5 c 0
 53 -15.5 47 3.66666666667 47 31 c 0
 47 53.6666666667 49 73.3333333333 53 90 c 2
 80 193 l 1
 84.6666666667 227 95.6666666667 270.333333333 113 323 c 0
 156.333333333 457 204.333333333 567.666666667 257 655 c 0
 274.333333333 683.666666667 294.333333333 698 317 698 c 0
 331.666666667 698 344 692.666666667 354 682 c 0
 364.666666667 669.333333333 370 652.333333333 370 631 c 0
EndSplineSet
EndChar

StartChar: exclam
Encoding: 33 33 83
Width: 369
Flags: W
HStem: -8 156<65.918 178.586> 678 21G<129.333 133.667>
VStem: 40 162<20.3617 122.211> 82 169<689 756.687> 150 103<477 508.468 509.438 682.775> 157 92<343.92 579>
LayerCount: 2
Back
Fore
SplineSet
260 716 m 1xd0
 254 696 251 674 251 650 c 0xd0
 251 644 251.333333333 635.5 252 624.5 c 0
 252.666666667 613.5 253 605.666666667 253 601 c 0xc8
 253 578.333333333 251 558.333333333 247 541 c 0
 246.333333333 529 246 518.333333333 246 509 c 0
 246 497.666666667 246.5 485.333333333 247.5 472 c 0
 248.5 458.666666667 249 449.666666667 249 445 c 0
 249 353.666666667 204.333333333 275.333333333 115 210 c 0
 111 210 106.833333333 211.666666667 102.5 215 c 0
 98.1666666667 218.333333333 96 222.333333333 96 227 c 0
 96 235.666666667 108 253 132 279 c 0
 140 291 146.333333333 317.333333333 151 358 c 0
 155 386 157 414 157 442 c 0xc4
 157 453.333333333 156.666666667 465 156 477 c 2
 150 579 l 2xc8
 148 623 145.333333333 658 142 684 c 1
 140 681.333333333 136.333333333 679.333333333 131 678 c 0
 127.666666667 678 119.833333333 679.833333333 107.5 683.5 c 0
 95.1666666667 687.166666667 88 689 86 689 c 2
 85 689 l 2
 85 689.666666667 84.5 691.166666667 83.5 693.5 c 0
 82.5 695.833333333 82 697.666666667 82 699 c 0
 82 720.333333333 131 761 229 821 c 0
 233 821 242 811 256 791 c 0
 255.333333333 789.666666667 255 786.666666667 255 782 c 0
 255 770.666666667 256.666666667 748.666666667 260 716 c 1xd0
202 84 m 0xe0
 202 59.3333333333 195.666666667 37.8333333333 183 19.5 c 0
 170.333333333 1.16666666667 153 -8 131 -8 c 0
 99 -8 73.3333333333 0.333333333333 54 17 c 0
 44.6666666667 25.6666666667 40 37 40 51 c 0
 40 57.6666666667 41.6666666667 70 45 88 c 0
 50.3333333333 118 70.3333333333 137.333333333 105 146 c 0
 109.666666667 147.333333333 114.666666667 148 120 148 c 0
 141.333333333 148 163.333333333 140 186 124 c 0
 196.666666667 116 202 102.666666667 202 84 c 0xe0
EndSplineSet
EndChar

StartChar: quotedbl
Encoding: 34 34 84
Width: 316
Flags: W
HStem: 406 329
VStem: 26 112<630 690.772> 26 79<418.928 549.248> 44 71<456.537 621.45> 177 79.5<446.594 577.17> 178 111<657 716.802> 195 72<483.537 655.279>
LayerCount: 2
Back
Fore
SplineSet
289 657 m 1x84
 289 659.666666667 287 640 283 598 c 0
 282.333333333 590.666666667 279.5 579.833333333 274.5 565.5 c 0
 269.5 551.166666667 267 540.666666667 267 534 c 0
 267 531 267 531 267 528 c 0x82
 267 514.666666667 263.5 499.666666667 256.5 483 c 0
 249.5 466.333333333 242.333333333 454.333333333 235 447 c 0
 231.666666667 443 227.166666667 441 221.5 441 c 0
 215.833333333 441 211.666666667 438.333333333 209 433 c 1
 187.666666667 442.333333333 177 459 177 483 c 0x88
 177 494.333333333 180 513.166666667 186 539.5 c 0
 192 565.833333333 195 586 195 600 c 0x82
 195 622 189 640.666666667 177 656 c 0x88
 177.666666667 658 178 660.666666667 178 664 c 0
 178 668 177.333333333 673.833333333 176 681.5 c 0
 174.666666667 689.166666667 174 695 174 699 c 0
 174 710.333333333 179.333333333 719.166666667 190 725.5 c 0
 200.666666667 731.833333333 213 735 227 735 c 0
 246.333333333 735 263.333333333 729 278 717 c 0
 283.333333333 713 287 695.333333333 289 664 c 0
 289 661 289 661 289 657 c 1x84
138 630 m 1xc0
 138 632.666666667 136 613 132 571 c 0
 131.333333333 563.666666667 128.333333333 552.833333333 123 538.5 c 0
 117.666666667 524.166666667 115 513.666666667 115 507 c 0
 115 504 115 504 115 501 c 0x90
 115 487.666666667 111.666666667 472.666666667 105 456 c 0
 98.3333333333 439.333333333 91.3333333333 427.333333333 84 420 c 0
 80.6666666667 416 76.1666666667 414 70.5 414 c 0
 64.8333333333 414 60.3333333333 411.333333333 57 406 c 1
 36.3333333333 415.333333333 26 432 26 456 c 0xa0
 26 467.333333333 29 486.166666667 35 512.5 c 0
 41 538.833333333 44 559 44 573 c 0x90
 44 595.666666667 37.6666666667 614.333333333 25 629 c 0
 25.6666666667 631.666666667 26 634.333333333 26 637 c 0
 26 641 25.5 647 24.5 655 c 0
 23.5 663 23 668.666666667 23 672 c 0
 23 696 40.3333333333 708 75 708 c 0
 94.3333333333 708 111.333333333 702.333333333 126 691 c 0
 131.333333333 686.333333333 135.333333333 668.666666667 138 638 c 0
 138 634 138 634 138 630 c 1xc0
EndSplineSet
EndChar

StartChar: numbersign
Encoding: 35 35 85
Width: 596
Flags: W
HStem: 179 107<500 557.704> 213 101<290.064 376.225> 227 114<31.5776 186.133> 340 100<529.714 573.465> 394 94<65.8359 197 316 399.276> 650 20G<330 332.333>
VStem: 196 88<319.25 390.196> 376 124<102.359 181> 422 122<472.03 529.895>
LayerCount: 2
Back
Fore
SplineSet
588 381 m 0x1680
 588 370.333333333 583 360.833333333 573 352.5 c 0
 563 344.166666667 550.333333333 340 535 340 c 0
 531.666666667 340 526 341 518 343 c 0
 510 345 504.333333333 346.333333333 501 347 c 1
 499.666666667 339.666666667 499 330 499 318 c 0
 499 309.333333333 499.333333333 298.666666667 500 286 c 1
 501 286 l 1
 553.666666667 272.666666667 580 255 580 233 c 0
 580 197 570.666666667 179 552 179 c 0
 539 179 539 179 532 179 c 0x97
 516.666666667 179 505.333333333 179.666666667 498 181 c 1
 499.333333333 171.666666667 500 161.666666667 500 151 c 0
 500 133.666666667 498 119.333333333 494 108 c 0
 485.333333333 83.3333333333 474 71 460 71 c 0
 456 71 451.666666667 72 447 74 c 0
 437 77.3333333333 427.166666667 80.5 417.5 83.5 c 0
 407.833333333 86.5 398.333333333 92.6666666667 389 102 c 0
 382.333333333 109.333333333 378 137 376 185 c 0
 376 188 376 188 376 192 c 0
 376 196.666666667 376.333333333 201.666666667 377 207 c 1
 347.666666667 211 323 213 303 213 c 0x47
 294.333333333 213 290 204.666666667 290 188 c 0
 290 173.333333333 293 159.666666667 299 147 c 0
 313.666666667 115.666666667 321.666666667 99 323 97 c 0
 334.333333333 67 340.666666667 41 342 19 c 0
 342 0.333333333333 333 -9 315 -9 c 0
 307 -9 291.333333333 -1 268 15 c 0
 253.333333333 25 242 37 234 51 c 0
 214 85.6666666667 198 140.666666667 186 216 c 0
 184.666666667 223.333333333 179 227 169 227 c 0
 167 227 155.833333333 226.5 135.5 225.5 c 0
 115.166666667 224.5 104 224 102 224 c 0
 78.6666666667 224 57.8333333333 230 39.5 242 c 0
 21.1666666667 254 12 276.333333333 12 309 c 0
 12 315 14.8333333333 321.833333333 20.5 329.5 c 0
 26.1666666667 337.166666667 32 341 38 341 c 0
 77.3333333333 341 127.666666667 333.666666667 189 319 c 1
 192.333333333 324.333333333 194.666666667 330.333333333 196 337 c 0
 196 337.666666667 195.666666667 340 195 344 c 0
 195 349 195 349 195 358 c 256
 195 364 195.666666667 376 197 394 c 1
 168.333333333 394.666666667 145.666666667 396.333333333 129 399 c 0
 70.3333333333 408.333333333 41 422.666666667 41 442 c 0
 41 450.666666667 42.5 456.666666667 45.5 460 c 0
 48.5 463.333333333 56.6666666667 467.666666667 70 473 c 0
 96 483 131.333333333 488 176 488 c 0x2f
 189.333333333 488 201.333333333 487.333333333 212 486 c 1
 216 500.666666667 220.666666667 517.333333333 226 536 c 0
 248.666666667 615.333333333 271 655 293 655 c 0
 294.333333333 655 295.5 654.5 296.5 653.5 c 0
 297.5 652.5 298.666666667 652 300 652 c 256
 301.333333333 652 306.333333333 655 315 661 c 0
 323.666666667 667 329 670 331 670 c 0
 333.666666667 670 337 668.333333333 341 665 c 0
 345 661.666666667 348.333333333 659 351 657 c 1
 341 644.333333333 336 631.333333333 336 618 c 0
 336 616 338.5 609.5 343.5 598.5 c 0
 348.5 587.5 351 581 351 579 c 1
 343 563.666666667 331.333333333 532.333333333 316 485 c 1
 318 485 318 485 320 485 c 0
 332.666666667 485 349.666666667 483.333333333 371 480 c 0
 397.666666667 475.333333333 414.666666667 472.666666667 422 472 c 1
 436.666666667 517.333333333 450 547.333333333 462 562 c 0
 470.666666667 572 476.833333333 578 480.5 580 c 0
 484.166666667 582 491.333333333 583 502 583 c 0
 530 583 544 562.333333333 544 521 c 0
 544 513 539 489.333333333 529 450 c 1
 544.333333333 445.333333333 553.333333333 442 556 440 c 0
 570 426.666666667 580 410.333333333 586 391 c 0
 587.333333333 387.666666667 588 384.333333333 588 381 c 0x1680
403 371 m 1
 377 381 340.666666667 388 294 392 c 1
 287.333333333 353.333333333 284 326.666666667 284 312 c 0
 284 311.333333333 284.666666667 311 286 311 c 2
 286 311 286 311 295 312.5 c 0
 301 313.5 306.666666667 314 312 314 c 0x46
 320 314 327.666666667 313 335 311 c 0
 359.666666667 305 377 301.666666667 387 301 c 1
 390.333333333 316.333333333 395.666666667 339.666666667 403 371 c 1
EndSplineSet
EndChar

StartChar: bracketleft
Encoding: 91 91 86
Width: 415
Flags: W
HStem: 615 91<363.099 406.476>
VStem: 21 115<289.823 431.029>
LayerCount: 2
Back
Fore
SplineSet
421 650 m 0
 421 641.333333333 418.333333333 634.333333333 413 629 c 0
 407 621.666666667 403.666666667 616.666666667 403 614 c 1
 403 614.666666667 402.666666667 615 402 615 c 0
 398 615 363.333333333 594.333333333 298 553 c 0
 248.666666667 521.666666667 212.666666667 494.666666667 190 472 c 0
 154 436 136 400 136 364 c 0
 136 348 139.333333333 331.666666667 146 315 c 0
 166 265.666666667 197.666666667 219.333333333 241 176 c 0
 265 149 265 149 289 122 c 0
 312.333333333 96 336 73.3333333333 360 54 c 1
 365.333333333 30.6666666667 370 14.3333333333 374 5 c 1
 370 5 368 4.33333333333 368 3 c 1
 368 3.66666666667 368.333333333 1.33333333333 369 -4 c 0
 369 -8 364.333333333 -10 355 -10 c 0
 353.666666667 -10 349.333333333 -10.8333333333 342 -12.5 c 0
 334.666666667 -14.1666666667 330.333333333 -15 329 -15 c 0
 304.333333333 -15 265.5 9.5 212.5 58.5 c 0
 159.5 107.5 112 162 70 222 c 0
 37.3333333333 269.333333333 21 307.666666667 21 337 c 0
 21 461.666666667 82.3333333333 559 205 629 c 0
 295 680.333333333 352.666666667 706 378 706 c 0
 389.333333333 706 399.333333333 699.666666667 408 687 c 0
 416.666666667 674.333333333 421 662 421 650 c 0
EndSplineSet
EndChar

StartChar: backslash
Encoding: 92 92 87
Width: 388
Flags: W
HStem: -43 21G<301.667 318.333>
VStem: 270 100<-25.9784 53.7813>
LayerCount: 2
Back
Fore
SplineSet
370 31 m 0
 370 3.66666666667 364.166666667 -15.5 352.5 -26.5 c 0
 340.833333333 -37.5 326.666666667 -43 310 -43 c 256
 293.333333333 -43 280 -34 270 -16 c 0
 268 -13.3333333333 253.666666667 34.6666666667 227 128 c 0
 198.333333333 231.333333333 179 296.666666667 169 324 c 1
 136.333333333 390.666666667 108.666666667 444.666666667 86 486 c 1
 60 546 47 594.333333333 47 631 c 0
 47 666.333333333 58.3333333333 687.666666667 81 695 c 0
 87.6666666667 697 94 698 100 698 c 0
 123.333333333 698 143.333333333 683.666666667 160 655 c 0
 212.666666667 567.666666667 260.666666667 457 304 323 c 0
 321.333333333 270.333333333 332.666666667 227 338 193 c 1
 364 90 l 2
 368 73.3333333333 370 53.6666666667 370 31 c 0
EndSplineSet
EndChar

StartChar: bracketright
Encoding: 93 93 88
Width: 424
Flags: W
HStem: 597 91<26.5243 80.1797>
VStem: 291 119<301.42 438.663>
LayerCount: 2
Back
Fore
SplineSet
410 396 m 0
 410 342.666666667 386.333333333 282 339 214 c 0
 313 176.666666667 294 150.333333333 282 135 c 0
 261.333333333 109 239.333333333 85 216 63 c 0
 161.333333333 12.3333333333 121.666666667 -13 97 -13 c 0
 95.6666666667 -13 91.3333333333 -12.1666666667 84 -10.5 c 0
 76.6666666667 -8.83333333333 72.3333333333 -8 71 -8 c 0
 61.6666666667 -8 57 -6 57 -2 c 0
 59 5 59 5 59 5 c 2
 59 6.33333333333 56.6666666667 7 52 7 c 1
 56 16.3333333333 60.6666666667 32.6666666667 66 56 c 1
 90 75.3333333333 113.666666667 98 137 124 c 0
 161 151 161 151 185 178 c 0
 228.333333333 221.333333333 260 267.666666667 280 317 c 0
 287.333333333 334.333333333 291 351.333333333 291 368 c 0
 291 436 237.666666667 495.666666667 131 547 c 0
 108 560 108 560 85 573 c 0
 55 589 37.3333333333 597 32 597 c 0
 30.6666666667 597 30 596.666666667 30 596 c 1
 29.3333333333 598.666666667 26 603.666666667 20 611 c 0
 14.6666666667 616.333333333 12 623.333333333 12 632 c 0
 12 644 16.3333333333 656.333333333 25 669 c 0
 33.6666666667 681.666666667 43.6666666667 688 55 688 c 0
 70.3333333333 688 126.666666667 666.333333333 224 623 c 0
 291.333333333 593 347 541 391 467 c 0
 403.666666667 446.333333333 410 422.666666667 410 396 c 0
EndSplineSet
EndChar

StartChar: asciicircum
Encoding: 94 94 89
Width: 438
Flags: W
HStem: 436 255
LayerCount: 2
Back
Fore
SplineSet
422 504 m 0
 422 468 415 446.333333333 401 439 c 0
 397.666666667 437 393.666666667 436 389 436 c 0
 381.666666667 436 360.666666667 442.666666667 326 456 c 0
 308 462.666666667 275.333333333 495.333333333 228 554 c 1
 200 524.666666667 169.333333333 491 136 453 c 0
 130.666666667 444.333333333 116 440 92 440 c 0
 69.3333333333 440 53.5 443 44.5 449 c 0
 35.5 455 31 464.333333333 31 477 c 0
 31 483.666666667 33.3333333333 496 38 514 c 0
 43.3333333333 535.333333333 72 564 124 600 c 0
 135.333333333 608 147.5 619.833333333 160.5 635.5 c 0
 173.5 651.166666667 180.666666667 663.333333333 182 672 c 0
 183.333333333 684.666666667 196.666666667 691 222 691 c 0
 232 691 240 689.5 246 686.5 c 0
 252 683.5 266 671.333333333 288 650 c 0
 319.333333333 620 336 604.333333333 338 603 c 0
 363 584 363 584 388 565 c 0
 408.666666667 547.666666667 419.666666667 532.666666667 421 520 c 0
 421.666666667 514.666666667 422 509.333333333 422 504 c 0
EndSplineSet
EndChar

StartChar: underscore
Encoding: 95 95 90
Width: 443
Flags: W
HStem: -157 93<-11.6445 256.592> -154 108<304.437 478.568> -153 89<95.9368 407.405>
LayerCount: 2
Back
Fore
SplineSet
492 -110 m 0x40
 492 -127.333333333 483.333333333 -139.333333333 466 -146 c 0
 454 -151.333333333 441.333333333 -154 428 -154 c 0x40
 421.333333333 -154 410 -153 394 -151 c 0
 378 -149 364.666666667 -148 354 -148 c 0
 352.666666667 -148 336.333333333 -149 305 -151 c 0
 287.666666667 -152.333333333 271.666666667 -153 257 -153 c 0x20
 248.333333333 -153 237.666666667 -152.666666667 225 -152 c 0
 206 -152 206 -152 197 -152 c 0
 183 -152 168 -152.666666667 152 -154 c 0x40
 134 -156 115 -157 95 -157 c 0
 19.6666666667 -157 -19.6666666667 -143 -23 -115 c 0
 -23.6666666667 -109 -24 -103.666666667 -24 -99 c 0
 -24 -79 -17 -68 -3 -66 c 0
 3.66666666667 -64.6666666667 29.3333333333 -64 74 -64 c 0
 87 -64 87 -64 91 -64 c 0x80
 121 -66 145.666666667 -67 165 -67 c 0
 174.333333333 -67 188.833333333 -66.1666666667 208.5 -64.5 c 0
 228.166666667 -62.8333333333 242.666666667 -62 252 -62 c 0
 258 -62 266.833333333 -62.3333333333 278.5 -63 c 0
 290.166666667 -63.6666666667 298.666666667 -64 304 -64 c 0x20
 313.333333333 -64 321.333333333 -63.5 328 -62.5 c 0
 334.666666667 -61.5 347.333333333 -58.3333333333 366 -53 c 0
 381.333333333 -48.3333333333 395.333333333 -46 408 -46 c 0
 433.333333333 -46 452 -49.3333333333 464 -56 c 0
 482.666666667 -66 492 -84 492 -110 c 0x40
EndSplineSet
EndChar

StartChar: grave
Encoding: 96 96 91
Width: 354
Flags: W
HStem: 545 125<79.7684 169.358>
VStem: 33 295
LayerCount: 2
Back
Fore
SplineSet
328 471 m 1
 314 461.666666667 300.666666667 457 288 457 c 0
 270 457 243.166666667 471.666666667 207.5 501 c 0
 171.833333333 530.333333333 141 545 115 545 c 0
 107.666666667 545 100.333333333 544 93 542 c 1
 89 546 80 550 66 554 c 0
 52 558 43 562.333333333 39 567 c 0
 35 571.666666667 33 578 33 586 c 0
 33 601.333333333 39 617 51 633 c 0
 54.3333333333 635 59.3333333333 643 66 657 c 0
 70 665.666666667 81.6666666667 670 101 670 c 0
 113.666666667 670 131.666666667 665.333333333 155 656 c 0
 157.666666667 655.333333333 177.666666667 643.333333333 215 620 c 0
 221.666666667 616 231.333333333 607 244 593 c 0
 254.666666667 581.666666667 264.333333333 574.666666667 273 572 c 0
 291.666666667 562.666666667 304.333333333 547 311 525 c 0
 320.333333333 492.333333333 326 474.333333333 328 471 c 1
EndSplineSet
EndChar

StartChar: braceleft
Encoding: 123 123 92
Width: 415
Flags: W
HStem: 615 91<363.099 406.476>
VStem: 21 115<289.823 431.029>
LayerCount: 2
Back
Fore
SplineSet
421 650 m 0
 421 641.333333333 418.333333333 634.333333333 413 629 c 0
 407 621.666666667 403.666666667 616.666666667 403 614 c 1
 403 614.666666667 402.666666667 615 402 615 c 0
 398 615 363.333333333 594.333333333 298 553 c 0
 248.666666667 521.666666667 212.666666667 494.666666667 190 472 c 0
 154 436 136 400 136 364 c 0
 136 348 139.333333333 331.666666667 146 315 c 0
 166 265.666666667 197.666666667 219.333333333 241 176 c 0
 265 149 265 149 289 122 c 0
 312.333333333 96 336 73.3333333333 360 54 c 1
 365.333333333 30.6666666667 370 14.3333333333 374 5 c 1
 370 5 368 4.33333333333 368 3 c 1
 368 3.66666666667 368.333333333 1.33333333333 369 -4 c 0
 369 -8 364.333333333 -10 355 -10 c 0
 353.666666667 -10 349.333333333 -10.8333333333 342 -12.5 c 0
 334.666666667 -14.1666666667 330.333333333 -15 329 -15 c 0
 304.333333333 -15 265.5 9.5 212.5 58.5 c 0
 159.5 107.5 112 162 70 222 c 0
 37.3333333333 269.333333333 21 307.666666667 21 337 c 0
 21 461.666666667 82.3333333333 559 205 629 c 0
 295 680.333333333 352.666666667 706 378 706 c 0
 389.333333333 706 399.333333333 699.666666667 408 687 c 0
 416.666666667 674.333333333 421 662 421 650 c 0
EndSplineSet
EndChar

StartChar: bar
Encoding: 124 124 93
Width: 275
Flags: W
HStem: -42 21G<104.333 122>
VStem: 70 114<585.087 714.938> 84 128<53.0127 512.796>
LayerCount: 2
Back
Fore
SplineSet
212 352 m 0xa0
 212 331 212 331 212 309 c 0
 210.666666667 253.666666667 207 209 201 175 c 1
 192 69 l 2
 186.666666667 6.33333333333 168.666666667 -29.6666666667 138 -39 c 0
 132.666666667 -41 126 -42 118 -42 c 0
 90.6666666667 -42 74 -28.3333333333 68 -1 c 0
 68 0 68 0 68 1 c 0
 68 14.3333333333 70.3333333333 64 75 150 c 0
 81 247.333333333 84 312 84 344 c 0xa0
 84 383.333333333 80.6666666667 420.666666667 74 456 c 0
 66 495 66 495 58 534 c 0
 56.6666666667 550.666666667 56 567 56 583 c 0
 56 627.666666667 60.6666666667 662.666666667 70 688 c 0
 81.3333333333 718 98 733 120 733 c 0
 153.333333333 733 174.666666667 711.666666667 184 669 c 0xc0
 202.666666667 579.666666667 212 474 212 352 c 0xa0
EndSplineSet
EndChar

StartChar: braceright
Encoding: 125 125 94
Width: 424
Flags: W
HStem: 597 91<26.5243 80.1797>
VStem: 291 119<301.42 438.663>
LayerCount: 2
Back
Fore
SplineSet
410 396 m 0
 410 342.666666667 386.333333333 282 339 214 c 0
 313 176.666666667 294 150.333333333 282 135 c 0
 261.333333333 109 239.333333333 85 216 63 c 0
 161.333333333 12.3333333333 121.666666667 -13 97 -13 c 0
 95.6666666667 -13 91.3333333333 -12.1666666667 84 -10.5 c 0
 76.6666666667 -8.83333333333 72.3333333333 -8 71 -8 c 0
 61.6666666667 -8 57 -6 57 -2 c 0
 59 5 59 5 59 5 c 2
 59 6.33333333333 56.6666666667 7 52 7 c 1
 56 16.3333333333 60.6666666667 32.6666666667 66 56 c 1
 90 75.3333333333 113.666666667 98 137 124 c 0
 161 151 161 151 185 178 c 0
 228.333333333 221.333333333 260 267.666666667 280 317 c 0
 287.333333333 334.333333333 291 351.333333333 291 368 c 0
 291 436 237.666666667 495.666666667 131 547 c 0
 108 560 108 560 85 573 c 0
 55 589 37.3333333333 597 32 597 c 0
 30.6666666667 597 30 596.666666667 30 596 c 1
 29.3333333333 598.666666667 26 603.666666667 20 611 c 0
 14.6666666667 616.333333333 12 623.333333333 12 632 c 0
 12 644 16.3333333333 656.333333333 25 669 c 0
 33.6666666667 681.666666667 43.6666666667 688 55 688 c 0
 70.3333333333 688 126.666666667 666.333333333 224 623 c 0
 291.333333333 593 347 541 391 467 c 0
 403.666666667 446.333333333 410 422.666666667 410 396 c 0
EndSplineSet
EndChar

StartChar: asciitilde
Encoding: 126 126 95
Width: 610
Flags: W
HStem: 421 315
LayerCount: 2
Back
Fore
SplineSet
601 664 m 0
 601 661 601 661 601 657 c 0
 600.333333333 649 591.166666667 632.5 573.5 607.5 c 0
 555.833333333 582.5 544 570 538 570 c 0
 536.666666667 570.666666667 536 571.333333333 536 572 c 1
 527.333333333 564 513.5 544.166666667 494.5 512.5 c 0
 475.5 480.833333333 463.333333333 462 458 456 c 0
 436.666666667 432.666666667 410.666666667 421 380 421 c 0
 356.666666667 421 337.333333333 429.333333333 322 446 c 0
 314.666666667 453.333333333 300.666666667 478.5 280 521.5 c 0
 259.333333333 564.5 243.666666667 591.666666667 233 603 c 1
 226.333333333 585 203.5 557.333333333 164.5 520 c 0
 125.5 482.666666667 97 462.666666667 79 460 c 0
 73.6666666667 459.333333333 68.6666666667 459 64 459 c 0
 37.3333333333 459 24 470.666666667 24 494 c 0
 24 514 32.6666666667 531.333333333 50 546 c 0
 72 564 91 584.666666667 107 608 c 0
 132.333333333 646 162.666666667 685.666666667 198 727 c 0
 203.333333333 733 213.666666667 736 229 736 c 0
 264.333333333 736 297 709.333333333 327 656 c 0
 339.666666667 630.666666667 359 592.666666667 385 542 c 1
 425 605.333333333 447 640 451 646 c 0
 489.666666667 697.333333333 524.333333333 723 555 723 c 256
 585.666666667 723 601 703.333333333 601 664 c 0
EndSplineSet
EndChar

StartChar: copyright
Encoding: 169 169 96
Width: 660
Flags: W
HStem: 7 77<198.883 425.624> 166 79<246.641 388.784> 189 82<333.2 463.563> 406 66<291.521 435.889> 526 78<251.988 499.347>
VStem: 32 63<196.394 384.61> 164 70<257.785 357.666> 564 67<220.661 442.501>
LayerCount: 2
Back
Fore
SplineSet
631 320 m 0x9f
 631 254.666666667 618.666666667 199.333333333 594 154 c 1
 582.666666667 148 571.666666667 134.5 561 113.5 c 0
 550.333333333 92.5 538.333333333 78.6666666667 525 72 c 0
 444.333333333 28.6666666667 370.333333333 7 303 7 c 0
 263 7 226.333333333 15 193 31 c 0
 144.333333333 55 105.333333333 90.8333333333 76 138.5 c 0
 46.6666666667 186.166666667 32 238 32 294 c 0
 32 336 33.3333333333 364 36 378 c 0
 42.6666666667 409.333333333 58.3333333333 432.333333333 83 447 c 1
 89 470.333333333 106 494.333333333 134 519 c 0
 158 537.666666667 182.333333333 556.333333333 207 575 c 1
 222.333333333 577 256 582.666666667 308 592 c 0
 350 600 383.666666667 604 409 604 c 0
 465.666666667 604 510 592.333333333 542 569 c 0
 566.666666667 551 586.666666667 527.666666667 602 499 c 1
 603 500 l 1
 621.666666667 437.333333333 631 377.333333333 631 320 c 0x9f
564 324 m 0
 564 408 539.666666667 471 491 513 c 0
 482.333333333 521.666666667 472.666666667 526 462 526 c 0
 454 526 442.166666667 523 426.5 517 c 0
 410.833333333 511 399.333333333 507.666666667 392 507 c 1
 370.666666667 519.666666667 346 526 318 526 c 0
 272.666666667 526 230 511.666666667 190 483 c 0
 134.666666667 443.666666667 103 377 95 283 c 1
 96.3333333333 241.666666667 109.166666667 203.166666667 133.5 167.5 c 0
 157.833333333 131.833333333 187.333333333 107.666666667 222 95 c 0
 241.333333333 87.6666666667 264 84 290 84 c 0
 302 84 318.666666667 85 340 87 c 0
 367.333333333 89 384.666666667 90.3333333333 392 91 c 0
 484 125 539.333333333 174.333333333 558 239 c 1
 557 238 l 1
 561.666666667 269.333333333 564 298 564 324 c 0
491 378 m 0
 491 369.333333333 481.333333333 361 462 353 c 1
 440.666666667 388.333333333 411 406 373 406 c 0
 339 406 307.333333333 396.166666667 278 376.5 c 0
 248.666666667 356.833333333 234 333.333333333 234 306 c 0
 234 277.333333333 246.333333333 258.666666667 271 250 c 0
 281 246.666666667 291.666666667 245 303 245 c 0xdf
 319 245 341.833333333 250.333333333 371.5 261 c 0
 401.166666667 271.666666667 424 277 440 277 c 0
 452 277 463.333333333 275 474 271 c 1
 475 271 l 1
 472.333333333 253.666666667 469.333333333 236.333333333 466 219 c 0
 462 199 450.333333333 189 431 189 c 1xbf
 349.666666667 173.666666667 302.333333333 166 289 166 c 0xdf
 261 166 236 171.333333333 214 182 c 1
 180.666666667 211.333333333 164 253 164 307 c 0
 164 326.333333333 166.333333333 346.333333333 171 367 c 1
 215.666666667 437 286.333333333 472 383 472 c 0
 406.333333333 472 429.333333333 469.666666667 452 465 c 1
 448.666666667 458.333333333 447 452 447 446 c 0
 447 434.666666667 454.333333333 421.833333333 469 407.5 c 0
 483.666666667 393.166666667 491 383.333333333 491 378 c 0
EndSplineSet
EndChar

StartChar: ordfeminine
Encoding: 170 170 97
Width: 834
Flags: W
HStem: 7 116<252.827 452.512> 213 282<283.225 419.865> 584 126<252.827 457.218>
VStem: 13 112<246.786 460.969> 231 450<267.434 436.28>
LayerCount: 2
Back
Fore
SplineSet
681 358 m 256
 681 261.333333333 648.333333333 178.666666667 583 110 c 0
 517.666666667 41.3333333333 439 7 347 7 c 256
 255 7 176.333333333 41.3333333333 111 110 c 0
 45.6666666667 178.666666667 13 261.333333333 13 358 c 256
 13 454.666666667 45.6666666667 537.5 111 606.5 c 0
 176.333333333 675.5 255 710 347 710 c 256
 439 710 517.666666667 675.5 583 606.5 c 0
 648.333333333 537.5 681 454.666666667 681 358 c 256
530 213 m 1
 447 263 l 1
 423.666666667 229.666666667 391.666666667 213 351 213 c 0
 314.333333333 213 285.166666667 226 263.5 252 c 0
 241.833333333 278 231 311.666666667 231 353 c 0
 231 395 242 429.166666667 264 455.5 c 0
 286 481.833333333 316 495 354 495 c 256
 392 495 422.333333333 482 445 456 c 1
 518 504 l 1
 507.333333333 529.333333333 485.333333333 549.666666667 452 565 c 0
 423.333333333 577.666666667 394 584 364 584 c 0
 291.333333333 584 233.333333333 563.166666667 190 521.5 c 0
 146.666666667 479.833333333 125 423.666666667 125 353 c 0
 125 283.666666667 146.666666667 228 190 186 c 0
 233.333333333 144 291.333333333 123 364 123 c 0
 396 123 428 131.5 460 148.5 c 0
 492 165.5 515.333333333 187 530 213 c 1
EndSplineSet
EndChar

StartChar: cent
Encoding: 162 162 98
Width: 533
Flags: W
HStem: -44 21G<253 299> 95 50<299 393.703> 504 48<299.312 365.536> 670 20G<253 299>
VStem: 41 118<236.962 419.803> 253 46<-44 95 157 489 550.321 690> 337 146<384.174 486.741> 444 35<203.391 280.979>
LayerCount: 2
Back
Fore
SplineSet
483 435 m 0xfe
 483 415 475.833333333 397.833333333 461.5 383.5 c 0
 447.166666667 369.166666667 430 362 410 362 c 256
 390 362 372.833333333 369.166666667 358.5 383.5 c 0
 344.166666667 397.833333333 337 415 337 435 c 0xfe
 337 459.666666667 347 479.333333333 367 494 c 1
 356.333333333 500.666666667 340.333333333 504 319 504 c 0
 312.333333333 504 305.666666667 503.333333333 299 502 c 1
 299 146 l 1
 302.333333333 145.333333333 305.666666667 145 309 145 c 0
 347.666666667 145 377.333333333 153 398 169 c 0
 426 191.666666667 441.333333333 222 444 260 c 0
 445.333333333 274 451.333333333 281 462 281 c 0
 473.333333333 281 479 272.666666667 479 256 c 0xfd
 479 210.666666667 460.333333333 170.666666667 423 136 c 0
 396.333333333 111.333333333 355 97.6666666667 299 95 c 1
 299 -44 l 1
 253 -44 l 1
 253 95 l 1
 191.666666667 99.6666666667 141 123.833333333 101 167.5 c 0
 61 211.166666667 41 263 41 323 c 0
 41 381.666666667 61.3333333333 432.666666667 102 476 c 0
 142.666666667 519.333333333 193 544.333333333 253 551 c 1
 253 690 l 1
 299 690 l 1
 299 552 l 1
 358.333333333 548 406 533.333333333 442 508 c 0
 469.333333333 489.333333333 483 465 483 435 c 0xfe
253 157 m 1
 253 489 l 1
 224.333333333 476.333333333 201.5 455.666666667 184.5 427 c 0
 167.5 398.333333333 159 366 159 330 c 0
 159 294.666666667 167.666666667 260.666666667 185 228 c 0
 203 193.333333333 225.666666667 169.666666667 253 157 c 1
EndSplineSet
EndChar

StartChar: sterling
Encoding: 163 163 99
Width: 715
Flags: W
HStem: -43 28<112.249 151> 117 28<125.844 191.713> 119 155<596.375 677.62> 248 77<25.5078 53>
VStem: 65 27<5.46411 81.4281> 554 153<148.189 244.703>
LayerCount: 2
Back
Fore
SplineSet
707 207 m 0xac
 707 167.666666667 688.333333333 140.333333333 651 125 c 0
 641 121 631 119 621 119 c 0xac
 612.333333333 119 604 120.666666667 596 124 c 1
 194 -30 l 2
 186 -34.6666666667 178 -38 170 -40 c 2
 152 -47 l 1
 151 -43 l 2
 149 -43 149 -43 147 -43 c 0
 124.333333333 -43 105 -35.1666666667 89 -19.5 c 0
 73 -3.83333333333 65 15.3333333333 65 38 c 0
 65 58.6666666667 71.5 78.5 84.5 97.5 c 0
 97.5 116.5 114.333333333 130.333333333 135 139 c 0
 145.666666667 143 156.666666667 145 168 145 c 0
 176 145 184 144 192 142 c 1
 153 283 l 1
 74 252 l 2
 67.3333333333 249.333333333 60.6666666667 248 54 248 c 0
 30.6666666667 248 19 258.333333333 19 279 c 0
 19 300.333333333 30.3333333333 315.666666667 53 325 c 2xdc
 132 357 l 1
 62 607 l 1
 429 757 l 1
 439 720 l 1
 229 634 l 1
 289 421 l 1
 376 456 l 2
 382.666666667 458.666666667 389 460 395 460 c 0
 413 460 424.666666667 452.333333333 430 437 c 1
 429 438 l 1
 430 437 l 2
 430.666666667 434.333333333 431 431.333333333 431 428 c 0
 431 406.666666667 419.666666667 391.666666667 397 383 c 2
 310 347 l 1
 384 86 l 1
 565 148 l 1
 561.666666667 152 558.666666667 158.333333333 556 167 c 0
 554.666666667 173 554 179.333333333 554 186 c 0
 554 225.333333333 572.666666667 252.666666667 610 268 c 0
 620 272 630.333333333 274 641 274 c 0
 659 274 680.333333333 258 705 226 c 0
 706.333333333 220 707 213.666666667 707 207 c 0xac
221 59 m 0
 221 75 215.5 88.6666666667 204.5 100 c 0
 193.5 111.333333333 180.333333333 117 165 117 c 0xcc
 146.333333333 117 129.5 109 114.5 93 c 0
 99.5 77 92 60 92 42 c 0
 92 26 97.6666666667 12.5 109 1.5 c 0
 120.333333333 -9.5 134 -15 150 -15 c 0
 168 -15 184.333333333 -7.33333333333 199 8 c 0
 213.666666667 23.3333333333 221 40.3333333333 221 59 c 0
EndSplineSet
EndChar

StartChar: currency
Encoding: 164 164 100
Width: 834
Flags: W
HStem: 7 116<252.827 452.512> 213 282<283.225 419.865> 584 126<252.827 457.218>
VStem: 13 112<246.786 460.969> 231 450<267.434 436.28>
LayerCount: 2
Back
Fore
SplineSet
681 358 m 256
 681 261.333333333 648.333333333 178.666666667 583 110 c 0
 517.666666667 41.3333333333 439 7 347 7 c 256
 255 7 176.333333333 41.3333333333 111 110 c 0
 45.6666666667 178.666666667 13 261.333333333 13 358 c 256
 13 454.666666667 45.6666666667 537.5 111 606.5 c 0
 176.333333333 675.5 255 710 347 710 c 256
 439 710 517.666666667 675.5 583 606.5 c 0
 648.333333333 537.5 681 454.666666667 681 358 c 256
530 213 m 1
 447 263 l 1
 423.666666667 229.666666667 391.666666667 213 351 213 c 0
 314.333333333 213 285.166666667 226 263.5 252 c 0
 241.833333333 278 231 311.666666667 231 353 c 0
 231 395 242 429.166666667 264 455.5 c 0
 286 481.833333333 316 495 354 495 c 256
 392 495 422.333333333 482 445 456 c 1
 518 504 l 1
 507.333333333 529.333333333 485.333333333 549.666666667 452 565 c 0
 423.333333333 577.666666667 394 584 364 584 c 0
 291.333333333 584 233.333333333 563.166666667 190 521.5 c 0
 146.666666667 479.833333333 125 423.666666667 125 353 c 0
 125 283.666666667 146.666666667 228 190 186 c 0
 233.333333333 144 291.333333333 123 364 123 c 0
 396 123 428 131.5 460 148.5 c 0
 492 165.5 515.333333333 187 530 213 c 1
EndSplineSet
EndChar

StartChar: yen
Encoding: 165 165 101
Width: 600
Flags: W
HStem: -6 70<103.354 447.094> 161 60<236 301.801> 357 60<236 301.801> 664 44<176.468 375.344>
VStem: 41 62<64.0555 92> 188 48<221 357> 305 59<486 533> 312 60<230.246 347.754> 397 71<122.723 160.781> 398 18<246.955 391 434.899 455.906> 439 109<238.008 406.557> 449 99<64.8776 93 305.567 475.16> 499 49<94.4062 179.158>
LayerCount: 2
Back
Fore
SplineSet
549 119 m 5,0,-1
 549 68 549 68 511.5 31.5 c 4,3,-1
 474 -5 474 -5 422 -5 c 6,6,-1
 168 -6 l 6,7,-1
 116 -6 116 -6 78.5 30.5 c 4,10,-1
 41 67 41 67 41 119 c 6,13,-1
 40 584 l 6,14,-1
 40 635 40 635 77 671.5 c 4,17,-1
 114 708 114 708 167 708 c 6,20,-1
 421 709 l 6,21,-1
 473 709 473 709 510.5 672.5 c 4,24,-1
 548 636 548 636 548 584 c 6,27,-1
 548 119 l 5,28,-1
 549 119 l 5,0,-1
499 134 m 4,29,-1
 499 153 499 153 491 180 c 5,32,-1
 492 180 l 5,33,-1
 489 191 489 191 461 238 c 4,36,-1
 439 276 439 276 439 305 c 4,39,-1
 439 323 439 323 444 358 c 4,42,-1
 449 393 449 393 449 407 c 4,45,-1
 449 439 449 439 439 457 c 4,48,-1
 423 485 423 485 397 511 c 5,51,-1
 398 594 l 6,52,-1
 397 608 397 608 395 618 c 4,55,-1
 390 644 390 644 376 652 c 4,58,-1
 355 664 355 664 336 664 c 5,61,-1
 210 664 l 6,62,-1
 208 665 208 665 204 665 c 4,65,-1
 191 665 191 665 176 651 c 4,68,-1
 157 634 157 634 156 594 c 6,71,-1
 156 439 l 5,72,-1
 134 439 l 5,73,-1
 134 417 l 5,74,-1
 156 417 l 5,75,-1
 156 92 l 5,76,-1
 103 92 l 5,77,-1
 103 64 l 5,78,-1
 448 64 l 5,79,-1
 448 93 l 5,80,-1
 455 91 455 91 463 91 c 4,83,-1
 499 91 499 91 499 134 c 4,29,-1
416 450 m 4,86,-1
 416 437 416 437 398 426 c 5,89,-1
 398 486 l 5,90,-1
 403 480 403 480 416 456 c 5,93,-1
 415 456 l 6,94,-1
 416 453 416 453 416 450 c 4,86,-1
364 474 m 5,97,-1
 191 474 l 5,98,-1
 191 626 l 5,99,-1
 364 626 l 5,100,-1
 364 474 l 5,97,-1
468 148 m 4,101,-1
 468 121 468 121 429 121 c 4,104,-1
 413 121 413 121 397 125 c 5,107,-1
 398 391 l 6,108,-1
 399 390 399 390 400 390 c 4,111,-1
 402 390 402 390 417 402 c 5,114,-1
 420 396 l 5,115,-1
 415 317 l 6,116,-1
 414 308 414 308 414 301 c 4,119,-1
 414 262 414 262 434 229 c 4,122,-1
 460 185 460 185 467 161 c 5,125,-1
 466 161 l 5,126,-1
 468 154 468 154 468 148 c 4,101,-1
372 289 m 260,129,-1
 372 225 372 225 336 190 c 4,132,-1
 307 161 307 161 266 161 c 6,135,-1
 188 161 l 5,136,-1
 188 417 l 5,137,-1
 266 417 l 6,138,-1
 307 417 307 417 336 388 c 4,141,-1
 372 353 372 353 372 289 c 260,129,-1
345 559 m 5,144,-1
 300 574 l 5,145,-1
 288 619 l 5,146,-1
 260 581 l 5,147,-1
 213 584 l 5,148,-1
 241 546 l 5,149,-1
 223 502 l 5,150,-1
 268 516 l 5,151,-1
 305 486 l 5,152,-1
 305 533 l 5,153,-1
 345 559 l 5,144,-1
312 289 m 5,154,-1
 312 357 312 357 259 357 c 6,157,-1
 236 357 l 5,158,-1
 236 221 l 5,159,-1
 260 221 l 6,160,-1
 312 221 312 221 312 289 c 5,154,-1
EndSplineSet
EndChar

StartChar: section
Encoding: 167 167 102
Width: 425
Flags: W
HStem: -11 28<140.248 264.126> 146 57<97.2812 136.838> 477 58<290.5 329.719> 664 28<162.874 287.454>
VStem: 51 33<63.0869 148.256> 63 35<289.918 366.18> 80 58<148.015 201.838> 289 58<478.34 532.319> 329 36<311.933 389.688> 344 32<531.381 617.192>
LayerCount: 2
Back
Fore
SplineSet
376 112 m 0xf040
 376 78.6666666667 359.333333333 49.8333333333 326 25.5 c 0
 292.666666667 1.16666666667 253.666666667 -11 209 -11 c 0
 163.666666667 -11 126.666666667 -2 98 16 c 0xf440
 66.6666666667 36 51 64.6666666667 51 102 c 0xf8
 51 132 60.6666666667 156 80 174 c 0
 80 175 80 175 80 176 c 0
 80 194 89.3333333333 203 108 203 c 0
 116 203 123 200 129 194 c 0
 135 188 138 181 138 173 c 0xf2
 138 164.333333333 130.333333333 155.333333333 115 146 c 1
 109 146 103 147 97 149 c 1
 88.3333333333 138.333333333 84 124.666666667 84 108 c 0xf8
 84 84 95.5 62.8333333333 118.5 44.5 c 0
 141.5 26.1666666667 168.666666667 17 200 17 c 0
 259.333333333 17 289 37.6666666667 289 79 c 0
 289 85.6666666667 286 93.3333333333 280 102 c 0
 276.666666667 106.666666667 273.333333333 111 270 115 c 2
 132 242 l 1
 107.333333333 252 84.3333333333 278 63 320 c 0
 63 322 63 322 63 325 c 0xf5
 63 347.666666667 71 367.666666667 87 385 c 1
 99 405 117 421 141 433 c 1
 95 478 l 1
 65.6666666667 501.333333333 51 531.666666667 51 569 c 0
 51 602.333333333 67.6666666667 631.166666667 101 655.5 c 0
 134.333333333 679.833333333 173.333333333 692 218 692 c 0
 264 692 301 683 329 665 c 0xf880
 360.333333333 645 376 616 376 578 c 0xf040
 376 548 366.333333333 524.333333333 347 507 c 0
 347 506 347 506 347 505 c 0
 347 486.333333333 337.666666667 477 319 477 c 0
 311.666666667 477 304.833333333 480.166666667 298.5 486.5 c 0
 292.166666667 492.833333333 289 499.666666667 289 507 c 0xf1
 289 516.333333333 297 525.666666667 313 535 c 1
 318.333333333 535 324 533.666666667 330 531 c 1
 339.333333333 541.666666667 344 555.333333333 344 572 c 0xf040
 344 596.666666667 332.5 618.166666667 309.5 636.5 c 0
 286.5 654.833333333 259 664 227 664 c 0
 167.666666667 664 138 643.333333333 138 602 c 0
 138 594.666666667 141 587 147 579 c 0
 150.333333333 574.333333333 154 569.666666667 158 565 c 2
 295 438 l 1
 319.666666667 428.666666667 342.666666667 403 364 361 c 0
 364.666666667 359 365 357 365 355 c 0xf280
 365 333 356.666666667 313.333333333 340 296 c 1
 328 276 310 260 286 248 c 1
 332 203 l 1
 361.333333333 179 376 148.666666667 376 112 c 0xf040
329 355 m 256xf480
 329 373 321.333333333 388.5 306 401.5 c 0
 290.666666667 414.5 272.333333333 421 251 421 c 0
 224.333333333 421 202.666666667 411.666666667 186 393 c 0
 183 393 183 393 179 393 c 0
 157 393 138 386.333333333 122 373 c 0
 106 359.666666667 98 344 98 326 c 0
 98 307.333333333 106.166666667 291.666666667 122.5 279 c 0
 138.833333333 266.333333333 158.666666667 260 182 260 c 0
 207.333333333 260 227.333333333 269.333333333 242 288 c 1
 248 288 248 288 255 288 c 0
 275.666666667 288 293.166666667 294.666666667 307.5 308 c 0
 321.833333333 321.333333333 329 337 329 355 c 256xf480
EndSplineSet
EndChar

StartChar: dieresis
Encoding: 168 168 103
Width: 454
Flags: W
HStem: 589 155<71.8662 186.604> 606 154<284.866 399.938>
VStem: 48 159<614.378 720.312> 261 158<631.378 736.72>
LayerCount: 2
Back
Fore
SplineSet
419 694 m 0x70
 419 673.333333333 415.333333333 655.333333333 408 640 c 0
 396.666666667 617.333333333 376 606 346 606 c 0
 337.333333333 606 327.333333333 607 316 609 c 0
 294 613 279 620.333333333 271 631 c 0
 264.333333333 639 261 651.666666667 261 669 c 0
 261 673 261.333333333 680 262 690 c 0
 263.333333333 720 280.333333333 742 313 756 c 0
 321 758.666666667 330 760 340 760 c 0
 357.333333333 760 376 755 396 745 c 0
 411.333333333 737 419 720 419 694 c 0x70
207 677 m 0
 207 656.333333333 203 638.333333333 195 623 c 0
 183.666666667 600.333333333 163 589 133 589 c 0
 124.333333333 589 114.333333333 590 103 592 c 0
 81 596 66 603.333333333 58 614 c 0
 51.3333333333 622 48 634.666666667 48 652 c 0
 48 656 48.3333333333 663.333333333 49 674 c 0
 50.3333333333 704 67.3333333333 725.666666667 100 739 c 0
 108 742.333333333 117 744 127 744 c 0xb0
 144.333333333 744 163 738.666666667 183 728 c 0
 199 720 207 703 207 677 c 0
EndSplineSet
EndChar

StartChar: guillemotleft
Encoding: 171 171 104
Width: 619
Flags: W
LayerCount: 2
Back
Fore
SplineSet
353 439 m 1
 194 280 l 1
 351 123 l 1
 235 7 l 1
 50 192 l 2
 23.3333333333 218.666666667 10 246.666666667 10 276 c 0
 10 301.333333333 20.3333333333 324.333333333 41 345 c 2
 244 548 l 1
 353 439 l 1
608 132 m 1
 488 16 l 1
 221 280 l 1
 493 549 l 1
 598 440 l 1
 451 289 l 1
 608 132 l 1
EndSplineSet
EndChar

StartChar: logicalnot
Encoding: 172 172 105
Width: 671
Flags: W
HStem: -6 79<115.91 503.722> 184 66<264 337.224> 404 69<264 337.224> 537 172<213 409> 565 22<279.333 300> 586 26<284.25 300 316 336.995> 664 24<316 337.333> 751 51<199.531 423.22>
VStem: 46 69<73.1621 105> 211 53<251 404> 213 196<537 601 602 709> 245 71<637 664> 284 17<642.408 659.479> 300 16<552 564 688 699> 316 21<590.457 610.169> 351 67<263.5 390.976> 447 78<141.066 233.263> 448 20<278.875 443 493.659 532.971> 495 125<275.332 460.494> 505 115<73.4523 106 345.661 535.318> 553 67<151.69 249.116> 562 58<108.719 204.984>
LayerCount: 2
Back
Fore
SplineSet
620 135 m 2xe18004
 620 96.3333333333 606 63.1666666667 578 35.5 c 0
 550 7.83333333333 516.333333333 -6 477 -6 c 2
 189 -8 l 2
 149.666666667 -8 116 5.83333333333 88 33.5 c 0
 60 61.1666666667 46 94.6666666667 46 134 c 2
 46 660 l 2
 46 698.666666667 60 731.666666667 88 759 c 0
 116 786.333333333 149.666666667 800 189 800 c 2
 477 802 l 2
 516.333333333 802 550 788.166666667 578 760.5 c 0
 606 732.833333333 620 699.333333333 620 660 c 2
 620 135 l 2xe18004
562 151 m 0
 562 165.666666667 559 183.333333333 553 204 c 1
 553 205 l 1xe18008
 550.333333333 213.666666667 539.333333333 235.333333333 520 270 c 0
 503.333333333 298.666666667 495 323.666666667 495 345 c 0
 495 359 496.833333333 379.166666667 500.5 405.5 c 0
 504.166666667 431.833333333 506 450.333333333 506 461 c 0
 506 485.666666667 502.333333333 504.333333333 495 517 c 0xe18020
 483 537.666666667 467.333333333 558 448 578 c 1
 448 672 l 2
 447.333333333 682 446.333333333 691 445 699 c 0
 441 719 434 731.666666667 424 737 c 0
 407.333333333 746.333333333 392.333333333 751 379 751 c 1
 236 752 l 2
 234.666666667 752.666666667 233 753 231 753 c 0
 221 753 210.333333333 747.666666667 199 737 c 0
 185 723.666666667 177.333333333 702 176 672 c 2
 176 497 l 1
 150 497 l 1
 150 472 l 1
 176 472 l 1
 176 105 l 1
 115 105 l 1
 115 73 l 1
 505 73 l 1
 505 106 l 1xe18050
 510.333333333 104.666666667 516 104 522 104 c 0
 548.666666667 104 562 119.666666667 562 151 c 0
468 510 m 0xe18040
 468 500 461.333333333 491 448 483 c 1
 448 551 l 1
 461.333333333 536.333333333 468 522.666666667 468 510 c 0xe18040
409 537 m 1xf1a0
 213 537 l 1
 213 709 l 1
 409 709 l 1
 409 537 l 1xf1a0
527 168 m 0
 527 148.666666667 512.333333333 139 483 139 c 0
 471.666666667 139 459.666666667 140.333333333 447 143 c 1
 447 443 l 2
 447.666666667 442.333333333 448.666666667 442 450 442 c 256
 451.333333333 442 457.666666667 446.666666667 469 456 c 1
 472 449 l 1
 466 360 l 2
 465.333333333 353.333333333 465 346.666666667 465 340 c 0
 465 311.333333333 472.666666667 284.666666667 488 260 c 0
 507.333333333 228 519.666666667 202.666666667 525 184 c 1
 525 183 l 2xe18080
 526.333333333 177.666666667 527 172.666666667 527 168 c 0
418 328 m 256xe1c1
 418 279.333333333 404.666666667 242 378 216 c 0
 355.333333333 194.666666667 328.666666667 184 298 184 c 2
 211 184 l 1
 211 473 l 1
 298 473 l 2
 328.666666667 473 355.333333333 462.333333333 378 441 c 0
 404.666666667 414.333333333 418 376.666666667 418 328 c 256xe1c1
374 601 m 2
 374 602 l 2
 374 579.333333333 354.666666667 566.666666667 316 564 c 1
 316 552 l 1
 300 552 l 1
 300 565 l 1
 274.666666667 565 255 569.333333333 241 578 c 1
 258 594 l 1
 265.333333333 590.666666667 279.333333333 588.333333333 300 587 c 1
 300 615 l 1xeb84
 282 620 l 2
 257.333333333 626.666666667 245 637 245 651 c 0xeb90
 245 671.666666667 263.666666667 683.333333333 301 686 c 1xeb88
 300 699 l 1
 316 699 l 1
 316 688 l 1xeb84
 337.333333333 688 355 684.333333333 369 677 c 1
 354 660 l 1
 349.333333333 662.666666667 340 664 326 664 c 0
 324 664 324 664 320.5 664 c 0
 317 664 317 664 316 664 c 2
 316 637 l 1xeb90
 339 632 l 2
 362.333333333 626.666666667 374 616.333333333 374 601 c 2
351 327 m 1xe1c1
 351 378.333333333 331 404 291 404 c 2
 264 404 l 1
 264 251 l 1
 290 250 l 2
 292 250 292 250 293 250 c 0
 331 250 350 275.666666667 350 327 c 1
 351 327 l 1xe1c1
301 639 m 1xe188
 300 640 l 1xe184
 289.333333333 642.666666667 284 646 284 650 c 0
 284 656 289.666666667 660.333333333 301 663 c 1
 301 639 l 1xe188
337 599 m 256xe582
 337 593 330 588.666666667 316 586 c 1
 316 612 l 1
 321 612 l 1
 331.666666667 609.333333333 337 605 337 599 c 256xe582
EndSplineSet
EndChar

StartChar: registered
Encoding: 174 174 106
Width: 644
Flags: W
HStem: -9 83<202.591 389.324> 411 66<273.032 323.594> 528 80<226.993 377.866>
VStem: 37 84<206.715 416.776> 230 63<126.878 215.657> 613 3<298 298.562>
LayerCount: 2
Back
Fore
SplineSet
616 270 m 0
 616 249.333333333 610 224.666666667 598 196 c 0
 581.333333333 156 572.333333333 132.666666667 571 126 c 1
 479.666666667 36 385.666666667 -9 289 -9 c 0
 209 -9 150.666666667 16.6666666667 114 68 c 0
 106 78 92.6666666667 99.3333333333 74 132 c 1
 72 148.666666667 64.6666666667 182.666666667 52 234 c 0
 42 277.333333333 37 312 37 338 c 0
 37 372 44.3333333333 403.333333333 59 432 c 1
 69 472 85 501.333333333 107 520 c 0
 125.666666667 534 151.333333333 556.333333333 184 587 c 1
 215.333333333 601 247.333333333 608 280 608 c 0
 335.333333333 608 398.333333333 585.333333333 469 540 c 1
 549.666666667 448 597.666666667 367.333333333 613 298 c 1
 613 299 l 2
 615 289.666666667 616 280 616 270 c 0
542 282 m 0
 542 298 538.333333333 313 531 327 c 1
 530 327 l 1
 460 461 382 528 296 528 c 0
 267.333333333 528 237.666666667 516.333333333 207 493 c 0
 179.666666667 471.666666667 158 446.333333333 142 417 c 1
 128 378.333333333 121 337.333333333 121 294 c 0
 121 222.666666667 139.666666667 166.666666667 177 126 c 1
 197 91.3333333333 228.333333333 74 271 74 c 0
 285 74 304.333333333 76 329 80 c 0
 356.333333333 84 375.666666667 86.3333333333 387 87 c 1
 398.333333333 100.333333333 421.666666667 116 457 134 c 0
 489 149.333333333 511.333333333 167.666666667 524 189 c 0
 524.666666667 192.333333333 528.333333333 208 535 236 c 0
 539.666666667 254.666666667 542 270 542 282 c 0
453 204 m 1
 452.333333333 204.666666667 451.666666667 205 451 205 c 0
 443.666666667 205 440 200.666666667 440 192 c 0
 440 191 440 191 440 189 c 2
 442 169 l 1
 436 167 430.666666667 166 426 166 c 0
 414 166 396.333333333 174.5 373 191.5 c 0
 349.666666667 208.5 328 217 308 217 c 0
 302.666666667 217 297.333333333 216.666666667 292 216 c 1
 292.666666667 208.666666667 293 202 293 196 c 0
 293 147.333333333 281.666666667 123 259 123 c 0
 254.333333333 123 249 124 243 126 c 1
 235.666666667 144.666666667 231.333333333 168 230 196 c 0
 228.666666667 218 223.833333333 232.666666667 215.5 240 c 0
 207.166666667 247.333333333 191.333333333 254 168 260 c 1
 168 269.333333333 173.333333333 279 184 289 c 0
 200.666666667 305 209.333333333 313.333333333 210 314 c 0
 206.666666667 331.333333333 203.666666667 348.333333333 201 365 c 0
 197 385 188 400 174 410 c 1
 184 425.333333333 194.666666667 441.333333333 206 458 c 0
 217.333333333 474.666666667 230.666666667 483 246 483 c 0
 255.333333333 483 266 479.666666667 278 473 c 1
 279.333333333 475.666666667 282 477 286 477 c 0
 294 477 302.333333333 473 311 465 c 1
 318.333333333 467 325.666666667 468 333 468 c 0
 361.666666667 468 391 451 421 417 c 1
 421 392.333333333 408 367.333333333 382 342 c 0
 348.666666667 309.333333333 329.333333333 288.333333333 324 279 c 1
 332.666666667 272.333333333 358 262.666666667 400 250 c 0
 431.333333333 240.666666667 449 225.333333333 453 204 c 1
337 404 m 1
 328.333333333 408.666666667 318.666666667 411 308 411 c 0
 280.666666667 411 267 401 267 381 c 0
 267 362.333333333 271.666666667 353 281 353 c 0
 295.666666667 353 314.333333333 370 337 404 c 1
EndSplineSet
EndChar

StartChar: degree
Encoding: 176 176 107
Width: 305
Flags: W
HStem: 432 37<97.5426 188.788> 587 39<98.47 189.215>
VStem: 40 40<485.345 570.136> 207 40<486.533 528 530 569.983>
LayerCount: 2
Back
Fore
SplineSet
247 528 m 2
 247 500.666666667 236.833333333 477.833333333 216.5 459.5 c 0
 196.166666667 441.166666667 171.666666667 432 143 432 c 256
 114.333333333 432 90 441.5 70 460.5 c 0
 50 479.5 40 502.666666667 40 530 c 256
 40 557.333333333 50.1666666667 580.166666667 70.5 598.5 c 0
 90.8333333333 616.833333333 115.333333333 626 144 626 c 256
 172.666666667 626 197 616.5 217 597.5 c 0
 237 578.5 247 555.666666667 247 529 c 2
 247 528 l 2
207 528 m 1
 206 530 l 1
 206 546 200.166666667 559.5 188.5 570.5 c 0
 176.833333333 581.5 162.333333333 587 145 587 c 0
 127 587 111.666666667 581.333333333 99 570 c 0
 86.3333333333 558.666666667 80 544.333333333 80 527 c 0
 80 510.333333333 86 496.5 98 485.5 c 0
 110 474.5 125 469 143 469 c 256
 161 469 176.166666667 474.666666667 188.5 486 c 0
 200.833333333 497.333333333 207 511.333333333 207 528 c 1
EndSplineSet
EndChar

StartChar: plusminus
Encoding: 177 177 108
Width: 600
Flags: W
HStem: -6 70<103.354 447.094> 161 60<236 301.801> 357 60<236 301.801> 664 44<176.468 375.344>
VStem: 41 62<64.0555 92> 188 48<221 357> 305 59<486 533> 312 60<230.246 347.754> 397 71<122.723 160.781> 398 18<246.955 391 434.899 455.906> 439 109<238.008 406.557> 449 99<64.8776 93 305.567 475.16> 499 49<94.4062 179.158>
LayerCount: 2
Back
Fore
SplineSet
549 119 m 5,0,-1
 549 68 549 68 511.5 31.5 c 4,3,-1
 474 -5 474 -5 422 -5 c 6,6,-1
 168 -6 l 6,7,-1
 116 -6 116 -6 78.5 30.5 c 4,10,-1
 41 67 41 67 41 119 c 6,13,-1
 40 584 l 6,14,-1
 40 635 40 635 77 671.5 c 4,17,-1
 114 708 114 708 167 708 c 6,20,-1
 421 709 l 6,21,-1
 473 709 473 709 510.5 672.5 c 4,24,-1
 548 636 548 636 548 584 c 6,27,-1
 548 119 l 5,28,-1
 549 119 l 5,0,-1
499 134 m 4,29,-1
 499 153 499 153 491 180 c 5,32,-1
 492 180 l 5,33,-1
 489 191 489 191 461 238 c 4,36,-1
 439 276 439 276 439 305 c 4,39,-1
 439 323 439 323 444 358 c 4,42,-1
 449 393 449 393 449 407 c 4,45,-1
 449 439 449 439 439 457 c 4,48,-1
 423 485 423 485 397 511 c 5,51,-1
 398 594 l 6,52,-1
 397 608 397 608 395 618 c 4,55,-1
 390 644 390 644 376 652 c 4,58,-1
 355 664 355 664 336 664 c 5,61,-1
 210 664 l 6,62,-1
 208 665 208 665 204 665 c 4,65,-1
 191 665 191 665 176 651 c 4,68,-1
 157 634 157 634 156 594 c 6,71,-1
 156 439 l 5,72,-1
 134 439 l 5,73,-1
 134 417 l 5,74,-1
 156 417 l 5,75,-1
 156 92 l 5,76,-1
 103 92 l 5,77,-1
 103 64 l 5,78,-1
 448 64 l 5,79,-1
 448 93 l 5,80,-1
 455 91 455 91 463 91 c 4,83,-1
 499 91 499 91 499 134 c 4,29,-1
416 450 m 4,86,-1
 416 437 416 437 398 426 c 5,89,-1
 398 486 l 5,90,-1
 403 480 403 480 416 456 c 5,93,-1
 415 456 l 6,94,-1
 416 453 416 453 416 450 c 4,86,-1
364 474 m 5,97,-1
 191 474 l 5,98,-1
 191 626 l 5,99,-1
 364 626 l 5,100,-1
 364 474 l 5,97,-1
468 148 m 4,101,-1
 468 121 468 121 429 121 c 4,104,-1
 413 121 413 121 397 125 c 5,107,-1
 398 391 l 6,108,-1
 399 390 399 390 400 390 c 4,111,-1
 402 390 402 390 417 402 c 5,114,-1
 420 396 l 5,115,-1
 415 317 l 6,116,-1
 414 308 414 308 414 301 c 4,119,-1
 414 262 414 262 434 229 c 4,122,-1
 460 185 460 185 467 161 c 5,125,-1
 466 161 l 5,126,-1
 468 154 468 154 468 148 c 4,101,-1
372 289 m 260,129,-1
 372 225 372 225 336 190 c 4,132,-1
 307 161 307 161 266 161 c 6,135,-1
 188 161 l 5,136,-1
 188 417 l 5,137,-1
 266 417 l 6,138,-1
 307 417 307 417 336 388 c 4,141,-1
 372 353 372 353 372 289 c 260,129,-1
345 559 m 5,144,-1
 300 574 l 5,145,-1
 288 619 l 5,146,-1
 260 581 l 5,147,-1
 213 584 l 5,148,-1
 241 546 l 5,149,-1
 223 502 l 5,150,-1
 268 516 l 5,151,-1
 305 486 l 5,152,-1
 305 533 l 5,153,-1
 345 559 l 5,144,-1
312 289 m 5,154,-1
 312 357 312 357 259 357 c 6,157,-1
 236 357 l 5,158,-1
 236 221 l 5,159,-1
 260 221 l 6,160,-1
 312 221 312 221 312 289 c 5,154,-1
EndSplineSet
EndChar

StartChar: uni00B2
Encoding: 178 178 109
Width: 1000
Flags: W
HStem: 369 97<288.098 337.072> 477 69<433.176 481> 571 60<311 365.902> 582 28<362.708 422.074>
LayerCount: 2
Back
Fore
SplineSet
671 561 m 0xc0
 671 555 659.333333333 545 636 531 c 0
 575.333333333 495 510.333333333 477 441 477 c 0
 411.666666667 477 397 481.666666667 397 491 c 0
 397 505 425 523.333333333 481 546 c 1
 480.333333333 548.666666667 480 551 480 553 c 0
 480 563 485.833333333 571.666666667 497.5 579 c 0
 509.166666667 586.333333333 521 590 533 590 c 0
 553 590 565.333333333 583.333333333 570 570 c 1
 594 573.333333333 614 575 630 575 c 0
 657.333333333 575 671 570.333333333 671 561 c 0xc0
425 600 m 1
 425 595.333333333 412.333333333 589.333333333 387 582 c 0xd0
 361.666666667 574.666666667 338.333333333 571 317 571 c 0xe0
 297 571 276.333333333 576 255 586 c 1
 255 594 273.666666667 602 311 610 c 0xd0
 311 611 311 611 311 611 c 2
 311 624.333333333 321.333333333 631 342 631 c 0xe0
 356 631 364 625.666666667 366 615 c 1
 390 614.333333333 409.666666667 609.333333333 425 600 c 1
984 291 m 0
 984 272.333333333 947 241 873 197 c 0
 783 143.666666667 680.666666667 101.333333333 566 70 c 0
 456 40.6666666667 352 26 254 26 c 0
 158.666666667 26 111 39.6666666667 111 67 c 0
 111 87 135.833333333 113.333333333 185.5 146 c 0
 235.166666667 178.666666667 299.333333333 211 378 243 c 1
 377.333333333 248.333333333 377 253.666666667 377 259 c 0
 377 289.666666667 394.5 318 429.5 344 c 0
 464.5 370 503 383 545 383 c 0
 573 383 597.833333333 377.166666667 619.5 365.5 c 0
 641.166666667 353.833333333 655.333333333 338.333333333 662 319 c 1
 723.333333333 327.666666667 779.666666667 332 831 332 c 0
 933 332 984 318.333333333 984 291 c 0
408 388 m 0
 408 375.333333333 386.333333333 369 343 369 c 0
 244.333333333 369 151.333333333 394.666666667 64 446 c 0
 31.3333333333 465.333333333 15 479 15 487 c 0
 15 500.333333333 37.6666666667 507 83 507 c 0
 106.333333333 507 131.666666667 505 159 501 c 1
 165.666666667 519.666666667 183.333333333 529 212 529 c 0
 230 529 247.166666667 523.5 263.5 512.5 c 0
 279.833333333 501.5 288 489 288 475 c 0
 288 472.333333333 287.666666667 469.333333333 287 466 c 1
 367.666666667 434 408 408 408 388 c 0
EndSplineSet
EndChar

StartChar: uni00B3
Encoding: 179 179 110
Width: 1000
Flags: W
HStem: 369 97<288.098 337.072> 477 69<433.176 481> 571 60<311 365.902> 582 28<362.708 422.074>
LayerCount: 2
Back
Fore
SplineSet
671 561 m 0xc0
 671 555 659.333333333 545 636 531 c 0
 575.333333333 495 510.333333333 477 441 477 c 0
 411.666666667 477 397 481.666666667 397 491 c 0
 397 505 425 523.333333333 481 546 c 1
 480.333333333 548.666666667 480 551 480 553 c 0
 480 563 485.833333333 571.666666667 497.5 579 c 0
 509.166666667 586.333333333 521 590 533 590 c 0
 553 590 565.333333333 583.333333333 570 570 c 1
 594 573.333333333 614 575 630 575 c 0
 657.333333333 575 671 570.333333333 671 561 c 0xc0
425 600 m 1
 425 595.333333333 412.333333333 589.333333333 387 582 c 0xd0
 361.666666667 574.666666667 338.333333333 571 317 571 c 0xe0
 297 571 276.333333333 576 255 586 c 1
 255 594 273.666666667 602 311 610 c 0xd0
 311 611 311 611 311 611 c 2
 311 624.333333333 321.333333333 631 342 631 c 0xe0
 356 631 364 625.666666667 366 615 c 1
 390 614.333333333 409.666666667 609.333333333 425 600 c 1
984 291 m 0
 984 272.333333333 947 241 873 197 c 0
 783 143.666666667 680.666666667 101.333333333 566 70 c 0
 456 40.6666666667 352 26 254 26 c 0
 158.666666667 26 111 39.6666666667 111 67 c 0
 111 87 135.833333333 113.333333333 185.5 146 c 0
 235.166666667 178.666666667 299.333333333 211 378 243 c 1
 377.333333333 248.333333333 377 253.666666667 377 259 c 0
 377 289.666666667 394.5 318 429.5 344 c 0
 464.5 370 503 383 545 383 c 0
 573 383 597.833333333 377.166666667 619.5 365.5 c 0
 641.166666667 353.833333333 655.333333333 338.333333333 662 319 c 1
 723.333333333 327.666666667 779.666666667 332 831 332 c 0
 933 332 984 318.333333333 984 291 c 0
408 388 m 0
 408 375.333333333 386.333333333 369 343 369 c 0
 244.333333333 369 151.333333333 394.666666667 64 446 c 0
 31.3333333333 465.333333333 15 479 15 487 c 0
 15 500.333333333 37.6666666667 507 83 507 c 0
 106.333333333 507 131.666666667 505 159 501 c 1
 165.666666667 519.666666667 183.333333333 529 212 529 c 0
 230 529 247.166666667 523.5 263.5 512.5 c 0
 279.833333333 501.5 288 489 288 475 c 0
 288 472.333333333 287.666666667 469.333333333 287 466 c 1
 367.666666667 434 408 408 408 388 c 0
EndSplineSet
EndChar

StartChar: acute
Encoding: 180 180 111
Width: 354
Flags: W
HStem: 604 126<199.394 291.198>
VStem: 41 294
LayerCount: 2
Back
Fore
SplineSet
335 646 m 0
 335 638 333.166666667 631.5 329.5 626.5 c 0
 325.833333333 621.5 316.833333333 617 302.5 613 c 0
 288.166666667 609 279.333333333 605.333333333 276 602 c 1
 268 603.333333333 260.333333333 604 253 604 c 0
 227 604 196.166666667 589.333333333 160.5 560 c 0
 124.833333333 530.666666667 98.3333333333 516 81 516 c 0
 67.6666666667 516 54.3333333333 521 41 531 c 1
 43 534.333333333 48.6666666667 552 58 584 c 0
 64 606 76.3333333333 621.666666667 95 631 c 0
 104.333333333 633.666666667 114 641 124 653 c 0
 136.666666667 667 146.333333333 676 153 680 c 0
 166.333333333 689.333333333 186.333333333 701.333333333 213 716 c 1
 236.333333333 725.333333333 254.666666667 730 268 730 c 0
 286.666666667 730 298 725.666666667 302 717 c 0
 309.333333333 703 314.333333333 694.666666667 317 692 c 0
 329 676.666666667 335 661.333333333 335 646 c 0
EndSplineSet
EndChar

StartChar: mu
Encoding: 181 181 112
Width: 628
Flags: W
HStem: 24 97<176.53 315.26> 58 39<528.25 546.873> 121 61<-104.059 -64.1534> 146 8<-41.9512 -25.1741> 571 109<168.606 310.425>
VStem: -110 47<154 179.469> 20 103<243.552 526.117> 479 107<263 698.889> 507 40<58 96.8113>
LayerCount: 2
Back
Fore
SplineSet
425 160 m 2x9e
 425 138 413.333333333 116 390 94 c 0
 359 69 359 69 328 44 c 1
 301.333333333 30.6666666667 268 24 228 24 c 0
 201.333333333 24 176.333333333 27 153 33 c 1
 137 41 122.666666667 50.3333333333 110 61 c 1
 100.666666667 62.3333333333 94 63.3333333333 90 64 c 0
 81.3333333333 66.6666666667 73.6666666667 71.3333333333 67 78 c 0
 53 92.6666666667 39 107.666666667 25 123 c 0
 11 138.333333333 -4.66666666667 146 -22 146 c 0x9e
 -34.6666666667 146 -45.8333333333 141.833333333 -55.5 133.5 c 0
 -65.1666666667 125.166666667 -75 121 -85 121 c 0
 -101.666666667 121 -110 127.666666667 -110 141 c 0
 -110 151 -104.666666667 162 -94 174 c 0
 -89.3333333333 179.333333333 -85 182 -81 182 c 0x2e
 -75.6666666667 182 -71 177.666666667 -67 169 c 0
 -64.3333333333 163 -63 158 -63 154 c 1
 -52.3333333333 154 -31.3333333333 156.666666667 0 162 c 0
 6.66666666667 164 17.6666666667 189 33 237 c 1
 24.3333333333 261 20 289.666666667 20 323 c 0
 20 351 23.6666666667 390.666666667 31 442 c 0
 39 498.666666667 43.6666666667 538 45 560 c 1
 81 600 110 628 132 644 c 0
 165.333333333 668 199.666666667 680 235 680 c 0
 257.666666667 680 281.666666667 675.333333333 307 666 c 1
 341 640 341 640 375 614 c 0
 401 594 417.333333333 572.666666667 424 550 c 1
 415.333333333 524.666666667 402.666666667 512 386 512 c 0
 374 512 356 520.666666667 332 538 c 0
 306 556 288 566 278 568 c 0
 268 570 257.333333333 571 246 571 c 0
 194 571 156.666666667 550.666666667 134 510 c 1
 126.666666667 484.666666667 123 457 123 427 c 0
 123 407 125.166666667 377.333333333 129.5 338 c 0
 133.833333333 298.666666667 136 268.666666667 136 248 c 0
 136 231.333333333 135 215.333333333 133 200 c 1
 139 188 145 176.333333333 151 165 c 0
 158.333333333 151 168.666666667 143.333333333 182 142 c 0
 190 141.333333333 202.5 137.666666667 219.5 131 c 0
 236.5 124.333333333 249.666666667 121 259 121 c 0
 269 121 278.666666667 124.333333333 288 131 c 1
 300 131.666666667 317 141.833333333 339 161.5 c 0
 361 181.166666667 377.333333333 191 388 191 c 0
 401.333333333 191 413.666666667 181 425 161 c 1
 425 160 l 2x9e
547 58 m 1x4e80
 546 58 l 2
 544.666666667 58.6666666667 543.333333333 59 542 59 c 0
 538 59 533.333333333 55.6666666667 528 49 c 1
 514 55.6666666667 507 66 507 80 c 0
 507 87.3333333333 510.333333333 93 517 97 c 0
 519 97 519 97 523 97 c 0
 527 97 527 97 529 97 c 0
 538.333333333 97 544.333333333 94 547 88 c 1
 547 58 l 1x4e80
586 253 m 1x0f
 537 204 l 1
 479 263 l 1
 479 675 l 1
 488.333333333 700.333333333 504.333333333 713 527 713 c 0
 540.333333333 713 552.666666667 708.5 564 699.5 c 0
 575.333333333 690.5 582.666666667 679 586 665 c 1
 586 253 l 1x0f
EndSplineSet
EndChar

StartChar: paragraph
Encoding: 182 182 113
Width: 683
Flags: W
HStem: 0 46<302.094 344 416 510 557 634.947> 272 57<150.076 341.422> 282 48<191.566 342> 641 55<151.556 342 416 510> 649 41<557 647>
VStem: -5 92<396.844 570.156> 342 74<46 282 330 641> 510 47<46 641>
LayerCount: 2
Back
Fore
SplineSet
647 649 m 1x8f
 557 649 l 1
 557 46 l 1
 611 46 l 2
 627 46 635 38.6666666667 635 24 c 0
 635 8 627 0 611 0 c 2
 326 0 l 2
 310 0 302 7.33333333333 302 22 c 0
 302 36 310 43.3333333333 326 44 c 2
 344 46 l 1
 343 282 l 1
 242 282 l 1xaf
 220 275.333333333 203 272 191 272 c 0
 137 272 90.8333333333 292.833333333 52.5 334.5 c 0
 14.1666666667 376.166666667 -5 426.333333333 -5 485 c 0
 -5 543 14.5 592.666666667 53.5 634 c 0
 92.5 675.333333333 139 696 193 696 c 0xd7
 209 696 223.333333333 694.333333333 236 691 c 1
 647 690 l 1
 647 649 l 1x8f
510 46 m 1
 510 641 l 1
 416 641 l 1x97
 416 46 l 1
 510 46 l 1
342 330 m 1xa7
 342 641 l 1
 219 641 l 2
 182.333333333 641 151.166666667 625.5 125.5 594.5 c 0
 99.8333333333 563.5 87 526.666666667 87 484 c 1
 86 484 l 1
 86 441.333333333 98.8333333333 404.833333333 124.5 374.5 c 0
 150.166666667 344.166666667 181 329 217 329 c 0xd7
 222.333333333 329 228 329.333333333 234 330 c 2
 342 330 l 1xa7
EndSplineSet
EndChar

StartChar: uni00B9
Encoding: 185 185 114
Width: 1000
Flags: W
HStem: 369 97<288.098 337.072> 477 69<433.176 481> 571 60<311 365.902> 582 28<362.708 422.074>
LayerCount: 2
Back
Fore
SplineSet
671 561 m 0xc0
 671 555 659.333333333 545 636 531 c 0
 575.333333333 495 510.333333333 477 441 477 c 0
 411.666666667 477 397 481.666666667 397 491 c 0
 397 505 425 523.333333333 481 546 c 1
 480.333333333 548.666666667 480 551 480 553 c 0
 480 563 485.833333333 571.666666667 497.5 579 c 0
 509.166666667 586.333333333 521 590 533 590 c 0
 553 590 565.333333333 583.333333333 570 570 c 1
 594 573.333333333 614 575 630 575 c 0
 657.333333333 575 671 570.333333333 671 561 c 0xc0
425 600 m 1
 425 595.333333333 412.333333333 589.333333333 387 582 c 0xd0
 361.666666667 574.666666667 338.333333333 571 317 571 c 0xe0
 297 571 276.333333333 576 255 586 c 1
 255 594 273.666666667 602 311 610 c 0xd0
 311 611 311 611 311 611 c 2
 311 624.333333333 321.333333333 631 342 631 c 0xe0
 356 631 364 625.666666667 366 615 c 1
 390 614.333333333 409.666666667 609.333333333 425 600 c 1
984 291 m 0
 984 272.333333333 947 241 873 197 c 0
 783 143.666666667 680.666666667 101.333333333 566 70 c 0
 456 40.6666666667 352 26 254 26 c 0
 158.666666667 26 111 39.6666666667 111 67 c 0
 111 87 135.833333333 113.333333333 185.5 146 c 0
 235.166666667 178.666666667 299.333333333 211 378 243 c 1
 377.333333333 248.333333333 377 253.666666667 377 259 c 0
 377 289.666666667 394.5 318 429.5 344 c 0
 464.5 370 503 383 545 383 c 0
 573 383 597.833333333 377.166666667 619.5 365.5 c 0
 641.166666667 353.833333333 655.333333333 338.333333333 662 319 c 1
 723.333333333 327.666666667 779.666666667 332 831 332 c 0
 933 332 984 318.333333333 984 291 c 0
408 388 m 0
 408 375.333333333 386.333333333 369 343 369 c 0
 244.333333333 369 151.333333333 394.666666667 64 446 c 0
 31.3333333333 465.333333333 15 479 15 487 c 0
 15 500.333333333 37.6666666667 507 83 507 c 0
 106.333333333 507 131.666666667 505 159 501 c 1
 165.666666667 519.666666667 183.333333333 529 212 529 c 0
 230 529 247.166666667 523.5 263.5 512.5 c 0
 279.833333333 501.5 288 489 288 475 c 0
 288 472.333333333 287.666666667 469.333333333 287 466 c 1
 367.666666667 434 408 408 408 388 c 0
EndSplineSet
EndChar

StartChar: ordmasculine
Encoding: 186 186 115
Width: 600
Flags: W
HStem: -6 70<103.354 447.094> 161 60<236 301.801> 357 60<236 301.801> 664 44<176.468 375.344>
VStem: 41 62<64.0555 92> 188 48<221 357> 305 59<486 533> 312 60<230.246 347.754> 397 71<122.723 160.781> 398 18<246.955 391 434.899 455.906> 439 109<238.008 406.557> 449 99<64.8776 93 305.567 475.16> 499 49<94.4062 179.158>
LayerCount: 2
Back
Fore
SplineSet
549 119 m 5,0,-1
 549 68 549 68 511.5 31.5 c 4,3,-1
 474 -5 474 -5 422 -5 c 6,6,-1
 168 -6 l 6,7,-1
 116 -6 116 -6 78.5 30.5 c 4,10,-1
 41 67 41 67 41 119 c 6,13,-1
 40 584 l 6,14,-1
 40 635 40 635 77 671.5 c 4,17,-1
 114 708 114 708 167 708 c 6,20,-1
 421 709 l 6,21,-1
 473 709 473 709 510.5 672.5 c 4,24,-1
 548 636 548 636 548 584 c 6,27,-1
 548 119 l 5,28,-1
 549 119 l 5,0,-1
499 134 m 4,29,-1
 499 153 499 153 491 180 c 5,32,-1
 492 180 l 5,33,-1
 489 191 489 191 461 238 c 4,36,-1
 439 276 439 276 439 305 c 4,39,-1
 439 323 439 323 444 358 c 4,42,-1
 449 393 449 393 449 407 c 4,45,-1
 449 439 449 439 439 457 c 4,48,-1
 423 485 423 485 397 511 c 5,51,-1
 398 594 l 6,52,-1
 397 608 397 608 395 618 c 4,55,-1
 390 644 390 644 376 652 c 4,58,-1
 355 664 355 664 336 664 c 5,61,-1
 210 664 l 6,62,-1
 208 665 208 665 204 665 c 4,65,-1
 191 665 191 665 176 651 c 4,68,-1
 157 634 157 634 156 594 c 6,71,-1
 156 439 l 5,72,-1
 134 439 l 5,73,-1
 134 417 l 5,74,-1
 156 417 l 5,75,-1
 156 92 l 5,76,-1
 103 92 l 5,77,-1
 103 64 l 5,78,-1
 448 64 l 5,79,-1
 448 93 l 5,80,-1
 455 91 455 91 463 91 c 4,83,-1
 499 91 499 91 499 134 c 4,29,-1
416 450 m 4,86,-1
 416 437 416 437 398 426 c 5,89,-1
 398 486 l 5,90,-1
 403 480 403 480 416 456 c 5,93,-1
 415 456 l 6,94,-1
 416 453 416 453 416 450 c 4,86,-1
364 474 m 5,97,-1
 191 474 l 5,98,-1
 191 626 l 5,99,-1
 364 626 l 5,100,-1
 364 474 l 5,97,-1
468 148 m 4,101,-1
 468 121 468 121 429 121 c 4,104,-1
 413 121 413 121 397 125 c 5,107,-1
 398 391 l 6,108,-1
 399 390 399 390 400 390 c 4,111,-1
 402 390 402 390 417 402 c 5,114,-1
 420 396 l 5,115,-1
 415 317 l 6,116,-1
 414 308 414 308 414 301 c 4,119,-1
 414 262 414 262 434 229 c 4,122,-1
 460 185 460 185 467 161 c 5,125,-1
 466 161 l 5,126,-1
 468 154 468 154 468 148 c 4,101,-1
372 289 m 260,129,-1
 372 225 372 225 336 190 c 4,132,-1
 307 161 307 161 266 161 c 6,135,-1
 188 161 l 5,136,-1
 188 417 l 5,137,-1
 266 417 l 6,138,-1
 307 417 307 417 336 388 c 4,141,-1
 372 353 372 353 372 289 c 260,129,-1
345 559 m 5,144,-1
 300 574 l 5,145,-1
 288 619 l 5,146,-1
 260 581 l 5,147,-1
 213 584 l 5,148,-1
 241 546 l 5,149,-1
 223 502 l 5,150,-1
 268 516 l 5,151,-1
 305 486 l 5,152,-1
 305 533 l 5,153,-1
 345 559 l 5,144,-1
312 289 m 5,154,-1
 312 357 312 357 259 357 c 6,157,-1
 236 357 l 5,158,-1
 236 221 l 5,159,-1
 260 221 l 6,160,-1
 312 221 312 221 312 289 c 5,154,-1
EndSplineSet
EndChar

StartChar: guillemotright
Encoding: 187 187 116
Width: 610
Flags: W
LayerCount: 2
Back
Fore
SplineSet
392 280 m 1
 125 16 l 1
 5 132 l 1
 162 289 l 1
 15 440 l 1
 120 549 l 1
 392 280 l 1
603 276 m 0
 603 246.666666667 589.666666667 218.666666667 563 192 c 2
 378 7 l 1
 262 123 l 1
 418 280 l 1
 259 439 l 1
 369 548 l 1
 572 345 l 2
 592.666666667 324.333333333 603 301.333333333 603 276 c 0
EndSplineSet
EndChar

StartChar: onequarter
Encoding: 188 188 117
Width: 1000
Flags: W
HStem: 369 97<288.098 337.072> 477 69<433.176 481> 571 60<311 365.902> 582 28<362.708 422.074>
LayerCount: 2
Back
Fore
SplineSet
671 561 m 0xc0
 671 555 659.333333333 545 636 531 c 0
 575.333333333 495 510.333333333 477 441 477 c 0
 411.666666667 477 397 481.666666667 397 491 c 0
 397 505 425 523.333333333 481 546 c 1
 480.333333333 548.666666667 480 551 480 553 c 0
 480 563 485.833333333 571.666666667 497.5 579 c 0
 509.166666667 586.333333333 521 590 533 590 c 0
 553 590 565.333333333 583.333333333 570 570 c 1
 594 573.333333333 614 575 630 575 c 0
 657.333333333 575 671 570.333333333 671 561 c 0xc0
425 600 m 1
 425 595.333333333 412.333333333 589.333333333 387 582 c 0xd0
 361.666666667 574.666666667 338.333333333 571 317 571 c 0xe0
 297 571 276.333333333 576 255 586 c 1
 255 594 273.666666667 602 311 610 c 0xd0
 311 611 311 611 311 611 c 2
 311 624.333333333 321.333333333 631 342 631 c 0xe0
 356 631 364 625.666666667 366 615 c 1
 390 614.333333333 409.666666667 609.333333333 425 600 c 1
984 291 m 0
 984 272.333333333 947 241 873 197 c 0
 783 143.666666667 680.666666667 101.333333333 566 70 c 0
 456 40.6666666667 352 26 254 26 c 0
 158.666666667 26 111 39.6666666667 111 67 c 0
 111 87 135.833333333 113.333333333 185.5 146 c 0
 235.166666667 178.666666667 299.333333333 211 378 243 c 1
 377.333333333 248.333333333 377 253.666666667 377 259 c 0
 377 289.666666667 394.5 318 429.5 344 c 0
 464.5 370 503 383 545 383 c 0
 573 383 597.833333333 377.166666667 619.5 365.5 c 0
 641.166666667 353.833333333 655.333333333 338.333333333 662 319 c 1
 723.333333333 327.666666667 779.666666667 332 831 332 c 0
 933 332 984 318.333333333 984 291 c 0
408 388 m 0
 408 375.333333333 386.333333333 369 343 369 c 0
 244.333333333 369 151.333333333 394.666666667 64 446 c 0
 31.3333333333 465.333333333 15 479 15 487 c 0
 15 500.333333333 37.6666666667 507 83 507 c 0
 106.333333333 507 131.666666667 505 159 501 c 1
 165.666666667 519.666666667 183.333333333 529 212 529 c 0
 230 529 247.166666667 523.5 263.5 512.5 c 0
 279.833333333 501.5 288 489 288 475 c 0
 288 472.333333333 287.666666667 469.333333333 287 466 c 1
 367.666666667 434 408 408 408 388 c 0
EndSplineSet
EndChar

StartChar: onehalf
Encoding: 189 189 118
Width: 1000
Flags: W
HStem: 369 97<288.098 337.072> 477 69<433.176 481> 571 60<311 365.902> 582 28<362.708 422.074>
LayerCount: 2
Back
Fore
SplineSet
671 561 m 0xc0
 671 555 659.333333333 545 636 531 c 0
 575.333333333 495 510.333333333 477 441 477 c 0
 411.666666667 477 397 481.666666667 397 491 c 0
 397 505 425 523.333333333 481 546 c 1
 480.333333333 548.666666667 480 551 480 553 c 0
 480 563 485.833333333 571.666666667 497.5 579 c 0
 509.166666667 586.333333333 521 590 533 590 c 0
 553 590 565.333333333 583.333333333 570 570 c 1
 594 573.333333333 614 575 630 575 c 0
 657.333333333 575 671 570.333333333 671 561 c 0xc0
425 600 m 1
 425 595.333333333 412.333333333 589.333333333 387 582 c 0xd0
 361.666666667 574.666666667 338.333333333 571 317 571 c 0xe0
 297 571 276.333333333 576 255 586 c 1
 255 594 273.666666667 602 311 610 c 0xd0
 311 611 311 611 311 611 c 2
 311 624.333333333 321.333333333 631 342 631 c 0xe0
 356 631 364 625.666666667 366 615 c 1
 390 614.333333333 409.666666667 609.333333333 425 600 c 1
984 291 m 0
 984 272.333333333 947 241 873 197 c 0
 783 143.666666667 680.666666667 101.333333333 566 70 c 0
 456 40.6666666667 352 26 254 26 c 0
 158.666666667 26 111 39.6666666667 111 67 c 0
 111 87 135.833333333 113.333333333 185.5 146 c 0
 235.166666667 178.666666667 299.333333333 211 378 243 c 1
 377.333333333 248.333333333 377 253.666666667 377 259 c 0
 377 289.666666667 394.5 318 429.5 344 c 0
 464.5 370 503 383 545 383 c 0
 573 383 597.833333333 377.166666667 619.5 365.5 c 0
 641.166666667 353.833333333 655.333333333 338.333333333 662 319 c 1
 723.333333333 327.666666667 779.666666667 332 831 332 c 0
 933 332 984 318.333333333 984 291 c 0
408 388 m 0
 408 375.333333333 386.333333333 369 343 369 c 0
 244.333333333 369 151.333333333 394.666666667 64 446 c 0
 31.3333333333 465.333333333 15 479 15 487 c 0
 15 500.333333333 37.6666666667 507 83 507 c 0
 106.333333333 507 131.666666667 505 159 501 c 1
 165.666666667 519.666666667 183.333333333 529 212 529 c 0
 230 529 247.166666667 523.5 263.5 512.5 c 0
 279.833333333 501.5 288 489 288 475 c 0
 288 472.333333333 287.666666667 469.333333333 287 466 c 1
 367.666666667 434 408 408 408 388 c 0
EndSplineSet
EndChar

StartChar: threequarters
Encoding: 190 190 119
Width: 1000
Flags: W
HStem: 369 97<288.098 337.072> 477 69<433.176 481> 571 60<311 365.902> 582 28<362.708 422.074>
LayerCount: 2
Back
Fore
SplineSet
671 561 m 0xc0
 671 555 659.333333333 545 636 531 c 0
 575.333333333 495 510.333333333 477 441 477 c 0
 411.666666667 477 397 481.666666667 397 491 c 0
 397 505 425 523.333333333 481 546 c 1
 480.333333333 548.666666667 480 551 480 553 c 0
 480 563 485.833333333 571.666666667 497.5 579 c 0
 509.166666667 586.333333333 521 590 533 590 c 0
 553 590 565.333333333 583.333333333 570 570 c 1
 594 573.333333333 614 575 630 575 c 0
 657.333333333 575 671 570.333333333 671 561 c 0xc0
425 600 m 1
 425 595.333333333 412.333333333 589.333333333 387 582 c 0xd0
 361.666666667 574.666666667 338.333333333 571 317 571 c 0xe0
 297 571 276.333333333 576 255 586 c 1
 255 594 273.666666667 602 311 610 c 0xd0
 311 611 311 611 311 611 c 2
 311 624.333333333 321.333333333 631 342 631 c 0xe0
 356 631 364 625.666666667 366 615 c 1
 390 614.333333333 409.666666667 609.333333333 425 600 c 1
984 291 m 0
 984 272.333333333 947 241 873 197 c 0
 783 143.666666667 680.666666667 101.333333333 566 70 c 0
 456 40.6666666667 352 26 254 26 c 0
 158.666666667 26 111 39.6666666667 111 67 c 0
 111 87 135.833333333 113.333333333 185.5 146 c 0
 235.166666667 178.666666667 299.333333333 211 378 243 c 1
 377.333333333 248.333333333 377 253.666666667 377 259 c 0
 377 289.666666667 394.5 318 429.5 344 c 0
 464.5 370 503 383 545 383 c 0
 573 383 597.833333333 377.166666667 619.5 365.5 c 0
 641.166666667 353.833333333 655.333333333 338.333333333 662 319 c 1
 723.333333333 327.666666667 779.666666667 332 831 332 c 0
 933 332 984 318.333333333 984 291 c 0
408 388 m 0
 408 375.333333333 386.333333333 369 343 369 c 0
 244.333333333 369 151.333333333 394.666666667 64 446 c 0
 31.3333333333 465.333333333 15 479 15 487 c 0
 15 500.333333333 37.6666666667 507 83 507 c 0
 106.333333333 507 131.666666667 505 159 501 c 1
 165.666666667 519.666666667 183.333333333 529 212 529 c 0
 230 529 247.166666667 523.5 263.5 512.5 c 0
 279.833333333 501.5 288 489 288 475 c 0
 288 472.333333333 287.666666667 469.333333333 287 466 c 1
 367.666666667 434 408 408 408 388 c 0
EndSplineSet
EndChar

StartChar: questiondown
Encoding: 191 191 120
Width: 1152
Flags: W
HStem: 123 61<946.466 1029.69> 223 78<151.723 301.859> 442 92<195.766 344.32> 716 67<458.185 555.143>
VStem: 284 94<14.7998 154.342> 341 96<528.555 690.969> 945 105<502.338 637.371>
LayerCount: 2
Back
Fore
SplineSet
1137 215 m 1xf6
 1136 216 l 1
 1139.33333333 206 1141 196.666666667 1141 188 c 0
 1141 166 1128 149 1102 137 c 0
 1066 123 1066 123 1030 109 c 0
 1023.33333333 109 1013.33333333 111.333333333 1000 116 c 0
 986.666666667 120.666666667 977 123 971 123 c 0
 960.333333333 123 951.333333333 118.333333333 944 109 c 1
 946.666666667 97.6666666667 948 86 948 74 c 0
 948 9.33333333333 917.333333333 -45.6666666667 856 -91 c 1
 837.333333333 -95.6666666667 818 -98 798 -98 c 0
 743.333333333 -98 696.333333333 -82.3333333333 657 -51 c 0
 649 -45 637.333333333 -27.6666666667 622 1 c 0
 609.333333333 24.3333333333 594.333333333 38 577 42 c 1
 527.666666667 2 498 -21.3333333333 488 -28 c 0
 452 -51.3333333333 417.666666667 -63 385 -63 c 0
 371.666666667 -63 358 -61 344 -57 c 1
 318.666666667 -35.6666666667 302 -3.66666666667 294 39 c 0
 291.333333333 51.6666666667 288 88.6666666667 284 150 c 1
 284 153 l 2xfa
 284 159.666666667 287 168.5 293 179.5 c 0
 299 190.5 302 198.666666667 302 204 c 0
 302 211.333333333 298.333333333 217.666666667 291 223 c 1
 284.333333333 222.333333333 255 222.333333333 203 223 c 0
 166.333333333 223.666666667 137.666666667 219 117 209 c 1
 98.3333333333 215 79.6666666667 221.333333333 61 228 c 0
 39 237.333333333 27 251 25 269 c 0
 21.6666666667 299.666666667 26.3333333333 334.833333333 39 374.5 c 0
 51.6666666667 414.166666667 68.6666666667 443.333333333 90 462 c 0
 145.333333333 510 211 534 287 534 c 0
 293 534 301.666666667 532.166666667 313 528.5 c 0
 324.333333333 524.833333333 333 523 339 523 c 0
 346.333333333 523 350 526.333333333 350 533 c 0
 350 543.666666667 348.5 562.5 345.5 589.5 c 0
 342.5 616.5 341 637 341 651 c 0
 341 699 355.333333333 731.666666667 384 749 c 0
 422 771.666666667 464.666666667 783 512 783 c 0
 573.333333333 783 617 763 643 723 c 1
 647.666666667 710.333333333 652.666666667 698 658 686 c 0
 664 670.666666667 672.666666667 662.333333333 684 661 c 1
 704.666666667 689.666666667 733.333333333 710.666666667 770 724 c 0
 786 730 821.333333333 738.333333333 876 749 c 1
 915.333333333 741.666666667 949 727.333333333 977 706 c 0
 1009 682 1029 652 1037 616 c 1
 1045.66666667 602.666666667 1050 587.666666667 1050 571 c 0
 1050 555.666666667 1044.5 533.666666667 1033.5 505 c 0
 1022.5 476.333333333 1017 456.333333333 1017 445 c 0
 1017 417.666666667 1037 397 1077 383 c 1
 1094.33333333 363.666666667 1107.33333333 337 1116 303 c 0
 1123.33333333 273.666666667 1130.33333333 244.333333333 1137 215 c 1xf6
1044 194 m 1
 1044 208 1039.83333333 228.166666667 1031.5 254.5 c 0
 1023.16666667 280.833333333 1018.66666667 301 1018 315 c 1
 1004.66666667 343.666666667 977.333333333 367.333333333 936 386 c 0
 888.666666667 406.666666667 858.333333333 425 845 441 c 1
 843 461.666666667 850.333333333 475.666666667 867 483 c 0
 883 487.666666667 899.666666667 493 917 499 c 0
 934.333333333 505 943 518 943 538 c 0
 943 542.666666667 943.333333333 550 944 560 c 0
 944.666666667 570 945 577.666666667 945 583 c 0
 945 598.333333333 940.333333333 613 931 627 c 0
 911 657 888 672 862 672 c 0
 827.333333333 672 791.333333333 647.666666667 754 599 c 0
 722 557 701 515.666666667 691 475 c 1
 681.666666667 470.333333333 670.333333333 468 657 468 c 0
 634.333333333 468 614.333333333 473.666666667 597 485 c 0
 577.666666667 497.666666667 568.666666667 514 570 534 c 1
 578.666666667 548 583 568.333333333 583 595 c 0
 583 625.666666667 577.666666667 652.666666667 567 676 c 0
 553.666666667 702.666666667 536.666666667 716 516 716 c 0
 490 716 468.333333333 706.666666667 451 688 c 1
 441.666666667 664 437 637.666666667 437 609 c 0xf6
 437 567 446 528.333333333 464 493 c 1
 454 463 416.333333333 445.666666667 351 441 c 1
 339.666666667 428.333333333 323.333333333 424.333333333 302 429 c 0
 267.333333333 437.666666667 249 442 247 442 c 0
 233 442 221 437 211 427 c 1
 167 412.333333333 138 366.333333333 124 289 c 1
 151 289 l 1
 166.333333333 298.333333333 187.333333333 303 214 303 c 0
 220.666666667 303 234.666666667 302.333333333 256 301 c 0
 273.333333333 300.333333333 287 300.333333333 297 301 c 1
 309 290.333333333 328.666666667 283.666666667 356 281 c 0
 394 277.666666667 415.666666667 275.333333333 421 274 c 0
 443 268 457 254.666666667 463 234 c 1
 460.333333333 216 448.666666667 201.333333333 428 190 c 0
 404.666666667 178.666666667 390.666666667 167 386 155 c 0
 380.666666667 141 378 124.333333333 378 105 c 0
 378 63.6666666667 386.666666667 31.3333333333 404 8 c 1
 458 41 l 2
 474 50.3333333333 497.833333333 68.6666666667 529.5 96 c 0
 561.166666667 123.333333333 586 142 604 152 c 0
 633.333333333 168.666666667 662.666666667 176 692 174 c 1
 706 163.333333333 713 151.333333333 713 138 c 0
 713 129.333333333 708.666666667 115.833333333 700 97.5 c 0
 691.333333333 79.1666666667 687 65 687 55 c 0
 687 33.6666666667 702 12.8333333333 732 -7.5 c 0
 762 -27.8333333333 788.333333333 -36.3333333333 811 -33 c 1
 819.666666667 -16.3333333333 828.666666667 0 838 16 c 0
 848.666666667 38 853.333333333 55.6666666667 852 69 c 0
 850.666666667 81.6666666667 842.166666667 101.333333333 826.5 128 c 0
 810.833333333 154.666666667 803 179.333333333 803 202 c 0
 803 216.666666667 810.5 230.333333333 825.5 243 c 0
 840.5 255.666666667 855 262 869 262 c 0
 885 262 904.833333333 249 928.5 223 c 0
 952.166666667 197 975.666666667 184 999 184 c 0
 1012.33333333 184 1027.33333333 187.333333333 1044 194 c 1
EndSplineSet
EndChar

